# https://github.com/mikedh/trimesh
v 1.30000000 0.00000000 0.00000000
v 1.27716386 0.00000000 0.11480503
v 1.21213203 0.00000000 0.21213203
v 1.11480503 0.00000000 0.27716386
v 1.00000000 0.00000000 0.30000000
v 0.88519497 0.00000000 0.27716386
v 0.78786797 0.00000000 0.21213203
v 0.72283614 0.00000000 0.11480503
v 0.70000000 0.00000000 0.00000000
v 0.72283614 0.00000000 -0.11480503
v 0.78786797 0.00000000 -0.21213203
v 0.88519497 0.00000000 -0.27716386
v 1.00000000 0.00000000 -0.30000000
v 1.11480503 0.00000000 -0.27716386
v 1.21213203 0.00000000 -0.21213203
v 1.27716386 0.00000000 -0.11480503
v 1.28887832 0.16968405 0.00000000
v 1.26623755 0.16670334 0.11480503
v 1.20176208 0.15821498 0.21213203
v 1.10526772 0.14551126 0.27716386
v 0.99144486 0.13052619 0.30000000
v 0.87762200 0.11554113 0.27716386
v 0.78112765 0.10283741 0.21213203
v 0.71665218 0.09434905 0.11480503
v 0.69401140 0.09136833 0.00000000
v 0.71665218 0.09434905 -0.11480503
v 0.78112765 0.10283741 -0.21213203
v 0.87762200 0.11554113 -0.27716386
v 0.99144486 0.13052619 -0.30000000
v 1.10526772 0.14551126 -0.27716386
v 1.20176208 0.15821498 -0.21213203
v 1.26623755 0.16670334 -0.11480503
v 1.25570357 0.33646476 0.00000000
v 1.23364556 0.33055433 0.11480503
v 1.17082964 0.31372286 0.21213203
v 1.07681897 0.28853277 0.27716386
v 0.96592583 0.25881905 0.30000000
v 0.85503268 0.22910532 0.27716386
v 0.76102202 0.20391523 0.21213203
v 0.69820610 0.18708376 0.11480503
v 0.67614808 0.18117333 0.00000000
v 0.69820610 0.18708376 -0.11480503
v 0.76102202 0.20391523 -0.21213203
v 0.85503268 0.22910532 -0.27716386
v 0.96592583 0.25881905 -0.30000000
v 1.07681897 0.28853277 -0.27716386
v 1.17082964 0.31372286 -0.21213203
v 1.23364556 0.33055433 -0.11480503
v 1.20104339 0.49748846 0.00000000
v 1.17994555 0.48874945 0.11480503
v 1.11986398 0.46386285 0.21213203
v 1.02994555 0.42661742 0.27716386
v 0.92387953 0.38268343 0.30000000
v 0.81781352 0.33874945 0.27716386
v 0.72789509 0.30150402 0.21213203
v 0.66781352 0.27661742 0.11480503
v 0.64671567 0.26787840 0.00000000
v 0.66781352 0.27661742 -0.11480503
v 0.72789509 0.30150402 -0.21213203
v 0.81781352 0.33874945 -0.27716386
v 0.92387953 0.38268343 -0.30000000
v 1.02994555 0.42661742 -0.27716386
v 1.11986398 0.46386285 -0.21213203
v 1.17994555 0.48874945 -0.11480503
v 1.12583302 0.65000000 0.00000000
v 1.10605635 0.63858193 0.11480503
v 1.04973713 0.60606602 0.21213203
v 0.96544948 0.55740251 0.27716386
v 0.86602540 0.50000000 0.30000000
v 0.76660133 0.44259749 0.27716386
v 0.68231367 0.39393398 0.21213203
v 0.62599446 0.36141807 0.11480503
v 0.60621778 0.35000000 0.00000000
v 0.62599446 0.36141807 -0.11480503
v 0.68231367 0.39393398 -0.21213203
v 0.76660133 0.44259749 -0.27716386
v 0.86602540 0.50000000 -0.30000000
v 0.96544948 0.55740251 -0.27716386
v 1.04973713 0.60606602 -0.21213203
v 1.10605635 0.63858193 -0.11480503
v 1.03135934 0.79138986 0.00000000
v 1.01324221 0.77748810 0.11480503
v 0.96164900 0.73789923 0.21213203
v 0.88443429 0.67865030 0.27716386
v 0.79335334 0.60876143 0.30000000
v 0.70227239 0.53887256 0.27716386
v 0.62505768 0.47962363 0.21213203
v 0.57346447 0.44003476 0.11480503
v 0.55534734 0.42613300 0.00000000
v 0.57346447 0.44003476 -0.11480503
v 0.62505768 0.47962363 -0.21213203
v 0.70227239 0.53887256 -0.27716386
v 0.79335334 0.60876143 -0.30000000
v 0.88443429 0.67865030 -0.27716386
v 0.96164900 0.73789923 -0.21213203
v 1.01324221 0.77748810 -0.11480503
v 0.91923882 0.91923882 0.00000000
v 0.90309123 0.90309123 0.11480503
v 0.85710678 0.85710678 0.21213203
v 0.78828620 0.78828620 0.27716386
v 0.70710678 0.70710678 0.30000000
v 0.62592737 0.62592737 0.27716386
v 0.55710678 0.55710678 0.21213203
v 0.51112234 0.51112234 0.11480503
v 0.49497475 0.49497475 0.00000000
v 0.51112234 0.51112234 -0.11480503
v 0.55710678 0.55710678 -0.21213203
v 0.62592737 0.62592737 -0.27716386
v 0.70710678 0.70710678 -0.30000000
v 0.78828620 0.78828620 -0.27716386
v 0.85710678 0.85710678 -0.21213203
v 0.90309123 0.90309123 -0.11480503
v 0.79138986 1.03135934 0.00000000
v 0.77748810 1.01324221 0.11480503
v 0.73789923 0.96164900 0.21213203
v 0.67865030 0.88443429 0.27716386
v 0.60876143 0.79335334 0.30000000
v 0.53887256 0.70227239 0.27716386
v 0.47962363 0.62505768 0.21213203
v 0.44003476 0.57346447 0.11480503
v 0.42613300 0.55534734 0.00000000
v 0.44003476 0.57346447 -0.11480503
v 0.47962363 0.62505768 -0.21213203
v 0.53887256 0.70227239 -0.27716386
v 0.60876143 0.79335334 -0.30000000
v 0.67865030 0.88443429 -0.27716386
v 0.73789923 0.96164900 -0.21213203
v 0.77748810 1.01324221 -0.11480503
v 0.65000000 1.12583302 0.00000000
v 0.63858193 1.10605635 0.11480503
v 0.60606602 1.04973713 0.21213203
v 0.55740251 0.96544948 0.27716386
v 0.50000000 0.86602540 0.30000000
v 0.44259749 0.76660133 0.27716386
v 0.39393398 0.68231367 0.21213203
v 0.36141807 0.62599446 0.11480503
v 0.35000000 0.60621778 0.00000000
v 0.36141807 0.62599446 -0.11480503
v 0.39393398 0.68231367 -0.21213203
v 0.44259749 0.76660133 -0.27716386
v 0.50000000 0.86602540 -0.30000000
v 0.55740251 0.96544948 -0.27716386
v 0.60606602 1.04973713 -0.21213203
v 0.63858193 1.10605635 -0.11480503
v 0.49748846 1.20104339 0.00000000
v 0.48874945 1.17994555 0.11480503
v 0.46386285 1.11986398 0.21213203
v 0.42661742 1.02994555 0.27716386
v 0.38268343 0.92387953 0.30000000
v 0.33874945 0.81781352 0.27716386
v 0.30150402 0.72789509 0.21213203
v 0.27661742 0.66781352 0.11480503
v 0.26787840 0.64671567 0.00000000
v 0.27661742 0.66781352 -0.11480503
v 0.30150402 0.72789509 -0.21213203
v 0.33874945 0.81781352 -0.27716386
v 0.38268343 0.92387953 -0.30000000
v 0.42661742 1.02994555 -0.27716386
v 0.46386285 1.11986398 -0.21213203
v 0.48874945 1.17994555 -0.11480503
v 0.33646476 1.25570357 0.00000000
v 0.33055433 1.23364556 0.11480503
v 0.31372286 1.17082964 0.21213203
v 0.28853277 1.07681897 0.27716386
v 0.25881905 0.96592583 0.30000000
v 0.22910532 0.85503268 0.27716386
v 0.20391523 0.76102202 0.21213203
v 0.18708376 0.69820610 0.11480503
v 0.18117333 0.67614808 0.00000000
v 0.18708376 0.69820610 -0.11480503
v 0.20391523 0.76102202 -0.21213203
v 0.22910532 0.85503268 -0.27716386
v 0.25881905 0.96592583 -0.30000000
v 0.28853277 1.07681897 -0.27716386
v 0.31372286 1.17082964 -0.21213203
v 0.33055433 1.23364556 -0.11480503
v 0.16968405 1.28887832 0.00000000
v 0.16670334 1.26623755 0.11480503
v 0.15821498 1.20176208 0.21213203
v 0.14551126 1.10526772 0.27716386
v 0.13052619 0.99144486 0.30000000
v 0.11554113 0.87762200 0.27716386
v 0.10283741 0.78112765 0.21213203
v 0.09434905 0.71665218 0.11480503
v 0.09136833 0.69401140 0.00000000
v 0.09434905 0.71665218 -0.11480503
v 0.10283741 0.78112765 -0.21213203
v 0.11554113 0.87762200 -0.27716386
v 0.13052619 0.99144486 -0.30000000
v 0.14551126 1.10526772 -0.27716386
v 0.15821498 1.20176208 -0.21213203
v 0.16670334 1.26623755 -0.11480503
v 0.00000000 1.30000000 0.00000000
v 0.00000000 1.27716386 0.11480503
v 0.00000000 1.21213203 0.21213203
v 0.00000000 1.11480503 0.27716386
v 0.00000000 1.00000000 0.30000000
v 0.00000000 0.88519497 0.27716386
v 0.00000000 0.78786797 0.21213203
v 0.00000000 0.72283614 0.11480503
v 0.00000000 0.70000000 0.00000000
v 0.00000000 0.72283614 -0.11480503
v 0.00000000 0.78786797 -0.21213203
v 0.00000000 0.88519497 -0.27716386
v 0.00000000 1.00000000 -0.30000000
v 0.00000000 1.11480503 -0.27716386
v 0.00000000 1.21213203 -0.21213203
v 0.00000000 1.27716386 -0.11480503
v -0.16968405 1.28887832 0.00000000
v -0.16670334 1.26623755 0.11480503
v -0.15821498 1.20176208 0.21213203
v -0.14551126 1.10526772 0.27716386
v -0.13052619 0.99144486 0.30000000
v -0.11554113 0.87762200 0.27716386
v -0.10283741 0.78112765 0.21213203
v -0.09434905 0.71665218 0.11480503
v -0.09136833 0.69401140 0.00000000
v -0.09434905 0.71665218 -0.11480503
v -0.10283741 0.78112765 -0.21213203
v -0.11554113 0.87762200 -0.27716386
v -0.13052619 0.99144486 -0.30000000
v -0.14551126 1.10526772 -0.27716386
v -0.15821498 1.20176208 -0.21213203
v -0.16670334 1.26623755 -0.11480503
v -0.33646476 1.25570357 0.00000000
v -0.33055433 1.23364556 0.11480503
v -0.31372286 1.17082964 0.21213203
v -0.28853277 1.07681897 0.27716386
v -0.25881905 0.96592583 0.30000000
v -0.22910532 0.85503268 0.27716386
v -0.20391523 0.76102202 0.21213203
v -0.18708376 0.69820610 0.11480503
v -0.18117333 0.67614808 0.00000000
v -0.18708376 0.69820610 -0.11480503
v -0.20391523 0.76102202 -0.21213203
v -0.22910532 0.85503268 -0.27716386
v -0.25881905 0.96592583 -0.30000000
v -0.28853277 1.07681897 -0.27716386
v -0.31372286 1.17082964 -0.21213203
v -0.33055433 1.23364556 -0.11480503
v -0.49748846 1.20104339 0.00000000
v -0.48874945 1.17994555 0.11480503
v -0.46386285 1.11986398 0.21213203
v -0.42661742 1.02994555 0.27716386
v -0.38268343 0.92387953 0.30000000
v -0.33874945 0.81781352 0.27716386
v -0.30150402 0.72789509 0.21213203
v -0.27661742 0.66781352 0.11480503
v -0.26787840 0.64671567 0.00000000
v -0.27661742 0.66781352 -0.11480503
v -0.30150402 0.72789509 -0.21213203
v -0.33874945 0.81781352 -0.27716386
v -0.38268343 0.92387953 -0.30000000
v -0.42661742 1.02994555 -0.27716386
v -0.46386285 1.11986398 -0.21213203
v -0.48874945 1.17994555 -0.11480503
v -0.65000000 1.12583302 0.00000000
v -0.63858193 1.10605635 0.11480503
v -0.60606602 1.04973713 0.21213203
v -0.55740251 0.96544948 0.27716386
v -0.50000000 0.86602540 0.30000000
v -0.44259749 0.76660133 0.27716386
v -0.39393398 0.68231367 0.21213203
v -0.36141807 0.62599446 0.11480503
v -0.35000000 0.60621778 0.00000000
v -0.36141807 0.62599446 -0.11480503
v -0.39393398 0.68231367 -0.21213203
v -0.44259749 0.76660133 -0.27716386
v -0.50000000 0.86602540 -0.30000000
v -0.55740251 0.96544948 -0.27716386
v -0.60606602 1.04973713 -0.21213203
v -0.63858193 1.10605635 -0.11480503
v -0.79138986 1.03135934 0.00000000
v -0.77748810 1.01324221 0.11480503
v -0.73789923 0.96164900 0.21213203
v -0.67865030 0.88443429 0.27716386
v -0.60876143 0.79335334 0.30000000
v -0.53887256 0.70227239 0.27716386
v -0.47962363 0.62505768 0.21213203
v -0.44003476 0.57346447 0.11480503
v -0.42613300 0.55534734 0.00000000
v -0.44003476 0.57346447 -0.11480503
v -0.47962363 0.62505768 -0.21213203
v -0.53887256 0.70227239 -0.27716386
v -0.60876143 0.79335334 -0.30000000
v -0.67865030 0.88443429 -0.27716386
v -0.73789923 0.96164900 -0.21213203
v -0.77748810 1.01324221 -0.11480503
v -0.91923882 0.91923882 0.00000000
v -0.90309123 0.90309123 0.11480503
v -0.85710678 0.85710678 0.21213203
v -0.78828620 0.78828620 0.27716386
v -0.70710678 0.70710678 0.30000000
v -0.62592737 0.62592737 0.27716386
v -0.55710678 0.55710678 0.21213203
v -0.51112234 0.51112234 0.11480503
v -0.49497475 0.49497475 0.00000000
v -0.51112234 0.51112234 -0.11480503
v -0.55710678 0.55710678 -0.21213203
v -0.62592737 0.62592737 -0.27716386
v -0.70710678 0.70710678 -0.30000000
v -0.78828620 0.78828620 -0.27716386
v -0.85710678 0.85710678 -0.21213203
v -0.90309123 0.90309123 -0.11480503
v -1.03135934 0.79138986 0.00000000
v -1.01324221 0.77748810 0.11480503
v -0.96164900 0.73789923 0.21213203
v -0.88443429 0.67865030 0.27716386
v -0.79335334 0.60876143 0.30000000
v -0.70227239 0.53887256 0.27716386
v -0.62505768 0.47962363 0.21213203
v -0.57346447 0.44003476 0.11480503
v -0.55534734 0.42613300 0.00000000
v -0.57346447 0.44003476 -0.11480503
v -0.62505768 0.47962363 -0.21213203
v -0.70227239 0.53887256 -0.27716386
v -0.79335334 0.60876143 -0.30000000
v -0.88443429 0.67865030 -0.27716386
v -0.96164900 0.73789923 -0.21213203
v -1.01324221 0.77748810 -0.11480503
v -1.12583302 0.65000000 0.00000000
v -1.10605635 0.63858193 0.11480503
v -1.04973713 0.60606602 0.21213203
v -0.96544948 0.55740251 0.27716386
v -0.86602540 0.50000000 0.30000000
v -0.76660133 0.44259749 0.27716386
v -0.68231367 0.39393398 0.21213203
v -0.62599446 0.36141807 0.11480503
v -0.60621778 0.35000000 0.00000000
v -0.62599446 0.36141807 -0.11480503
v -0.68231367 0.39393398 -0.21213203
v -0.76660133 0.44259749 -0.27716386
v -0.86602540 0.50000000 -0.30000000
v -0.96544948 0.55740251 -0.27716386
v -1.04973713 0.60606602 -0.21213203
v -1.10605635 0.63858193 -0.11480503
v -1.20104339 0.49748846 0.00000000
v -1.17994555 0.48874945 0.11480503
v -1.11986398 0.46386285 0.21213203
v -1.02994555 0.42661742 0.27716386
v -0.92387953 0.38268343 0.30000000
v -0.81781352 0.33874945 0.27716386
v -0.72789509 0.30150402 0.21213203
v -0.66781352 0.27661742 0.11480503
v -0.64671567 0.26787840 0.00000000
v -0.66781352 0.27661742 -0.11480503
v -0.72789509 0.30150402 -0.21213203
v -0.81781352 0.33874945 -0.27716386
v -0.92387953 0.38268343 -0.30000000
v -1.02994555 0.42661742 -0.27716386
v -1.11986398 0.46386285 -0.21213203
v -1.17994555 0.48874945 -0.11480503
v -1.25570357 0.33646476 0.00000000
v -1.23364556 0.33055433 0.11480503
v -1.17082964 0.31372286 0.21213203
v -1.07681897 0.28853277 0.27716386
v -0.96592583 0.25881905 0.30000000
v -0.85503268 0.22910532 0.27716386
v -0.76102202 0.20391523 0.21213203
v -0.69820610 0.18708376 0.11480503
v -0.67614808 0.18117333 0.00000000
v -0.69820610 0.18708376 -0.11480503
v -0.76102202 0.20391523 -0.21213203
v -0.85503268 0.22910532 -0.27716386
v -0.96592583 0.25881905 -0.30000000
v -1.07681897 0.28853277 -0.27716386
v -1.17082964 0.31372286 -0.21213203
v -1.23364556 0.33055433 -0.11480503
v -1.28887832 0.16968405 0.00000000
v -1.26623755 0.16670334 0.11480503
v -1.20176208 0.15821498 0.21213203
v -1.10526772 0.14551126 0.27716386
v -0.99144486 0.13052619 0.30000000
v -0.87762200 0.11554113 0.27716386
v -0.78112765 0.10283741 0.21213203
v -0.71665218 0.09434905 0.11480503
v -0.69401140 0.09136833 0.00000000
v -0.71665218 0.09434905 -0.11480503
v -0.78112765 0.10283741 -0.21213203
v -0.87762200 0.11554113 -0.27716386
v -0.99144486 0.13052619 -0.30000000
v -1.10526772 0.14551126 -0.27716386
v -1.20176208 0.15821498 -0.21213203
v -1.26623755 0.16670334 -0.11480503
v -1.30000000 0.00000000 0.00000000
v -1.27716386 0.00000000 0.11480503
v -1.21213203 0.00000000 0.21213203
v -1.11480503 0.00000000 0.27716386
v -1.00000000 0.00000000 0.30000000
v -0.88519497 0.00000000 0.27716386
v -0.78786797 0.00000000 0.21213203
v -0.72283614 0.00000000 0.11480503
v -0.70000000 0.00000000 0.00000000
v -0.72283614 0.00000000 -0.11480503
v -0.78786797 0.00000000 -0.21213203
v -0.88519497 0.00000000 -0.27716386
v -1.00000000 0.00000000 -0.30000000
v -1.11480503 0.00000000 -0.27716386
v -1.21213203 0.00000000 -0.21213203
v -1.27716386 0.00000000 -0.11480503
v -1.28887832 -0.16968405 0.00000000
v -1.26623755 -0.16670334 0.11480503
v -1.20176208 -0.15821498 0.21213203
v -1.10526772 -0.14551126 0.27716386
v -0.99144486 -0.13052619 0.30000000
v -0.87762200 -0.11554113 0.27716386
v -0.78112765 -0.10283741 0.21213203
v -0.71665218 -0.09434905 0.11480503
v -0.69401140 -0.09136833 0.00000000
v -0.71665218 -0.09434905 -0.11480503
v -0.78112765 -0.10283741 -0.21213203
v -0.87762200 -0.11554113 -0.27716386
v -0.99144486 -0.13052619 -0.30000000
v -1.10526772 -0.14551126 -0.27716386
v -1.20176208 -0.15821498 -0.21213203
v -1.26623755 -0.16670334 -0.11480503
v -1.25570357 -0.33646476 0.00000000
v -1.23364556 -0.33055433 0.11480503
v -1.17082964 -0.31372286 0.21213203
v -1.07681897 -0.28853277 0.27716386
v -0.96592583 -0.25881905 0.30000000
v -0.85503268 -0.22910532 0.27716386
v -0.76102202 -0.20391523 0.21213203
v -0.69820610 -0.18708376 0.11480503
v -0.67614808 -0.18117333 0.00000000
v -0.69820610 -0.18708376 -0.11480503
v -0.76102202 -0.20391523 -0.21213203
v -0.85503268 -0.22910532 -0.27716386
v -0.96592583 -0.25881905 -0.30000000
v -1.07681897 -0.28853277 -0.27716386
v -1.17082964 -0.31372286 -0.21213203
v -1.23364556 -0.33055433 -0.11480503
v -1.20104339 -0.49748846 0.00000000
v -1.17994555 -0.48874945 0.11480503
v -1.11986398 -0.46386285 0.21213203
v -1.02994555 -0.42661742 0.27716386
v -0.92387953 -0.38268343 0.30000000
v -0.81781352 -0.33874945 0.27716386
v -0.72789509 -0.30150402 0.21213203
v -0.66781352 -0.27661742 0.11480503
v -0.64671567 -0.26787840 0.00000000
v -0.66781352 -0.27661742 -0.11480503
v -0.72789509 -0.30150402 -0.21213203
v -0.81781352 -0.33874945 -0.27716386
v -0.92387953 -0.38268343 -0.30000000
v -1.02994555 -0.42661742 -0.27716386
v -1.11986398 -0.46386285 -0.21213203
v -1.17994555 -0.48874945 -0.11480503
v -1.12583302 -0.65000000 0.00000000
v -1.10605635 -0.63858193 0.11480503
v -1.04973713 -0.60606602 0.21213203
v -0.96544948 -0.55740251 0.27716386
v -0.86602540 -0.50000000 0.30000000
v -0.76660133 -0.44259749 0.27716386
v -0.68231367 -0.39393398 0.21213203
v -0.62599446 -0.36141807 0.11480503
v -0.60621778 -0.35000000 0.00000000
v -0.62599446 -0.36141807 -0.11480503
v -0.68231367 -0.39393398 -0.21213203
v -0.76660133 -0.44259749 -0.27716386
v -0.86602540 -0.50000000 -0.30000000
v -0.96544948 -0.55740251 -0.27716386
v -1.04973713 -0.60606602 -0.21213203
v -1.10605635 -0.63858193 -0.11480503
v -1.03135934 -0.79138986 0.00000000
v -1.01324221 -0.77748810 0.11480503
v -0.96164900 -0.73789923 0.21213203
v -0.88443429 -0.67865030 0.27716386
v -0.79335334 -0.60876143 0.30000000
v -0.70227239 -0.53887256 0.27716386
v -0.62505768 -0.47962363 0.21213203
v -0.57346447 -0.44003476 0.11480503
v -0.55534734 -0.42613300 0.00000000
v -0.57346447 -0.44003476 -0.11480503
v -0.62505768 -0.47962363 -0.21213203
v -0.70227239 -0.53887256 -0.27716386
v -0.79335334 -0.60876143 -0.30000000
v -0.88443429 -0.67865030 -0.27716386
v -0.96164900 -0.73789923 -0.21213203
v -1.01324221 -0.77748810 -0.11480503
v -0.91923882 -0.91923882 0.00000000
v -0.90309123 -0.90309123 0.11480503
v -0.85710678 -0.85710678 0.21213203
v -0.78828620 -0.78828620 0.27716386
v -0.70710678 -0.70710678 0.30000000
v -0.62592737 -0.62592737 0.27716386
v -0.55710678 -0.55710678 0.21213203
v -0.51112234 -0.51112234 0.11480503
v -0.49497475 -0.49497475 0.00000000
v -0.51112234 -0.51112234 -0.11480503
v -0.55710678 -0.55710678 -0.21213203
v -0.62592737 -0.62592737 -0.27716386
v -0.70710678 -0.70710678 -0.30000000
v -0.78828620 -0.78828620 -0.27716386
v -0.85710678 -0.85710678 -0.21213203
v -0.90309123 -0.90309123 -0.11480503
v -0.79138986 -1.03135934 0.00000000
v -0.77748810 -1.01324221 0.11480503
v -0.73789923 -0.96164900 0.21213203
v -0.67865030 -0.88443429 0.27716386
v -0.60876143 -0.79335334 0.30000000
v -0.53887256 -0.70227239 0.27716386
v -0.47962363 -0.62505768 0.21213203
v -0.44003476 -0.57346447 0.11480503
v -0.42613300 -0.55534734 0.00000000
v -0.44003476 -0.57346447 -0.11480503
v -0.47962363 -0.62505768 -0.21213203
v -0.53887256 -0.70227239 -0.27716386
v -0.60876143 -0.79335334 -0.30000000
v -0.67865030 -0.88443429 -0.27716386
v -0.73789923 -0.96164900 -0.21213203
v -0.77748810 -1.01324221 -0.11480503
v -0.65000000 -1.12583302 0.00000000
v -0.63858193 -1.10605635 0.11480503
v -0.60606602 -1.04973713 0.21213203
v -0.55740251 -0.96544948 0.27716386
v -0.50000000 -0.86602540 0.30000000
v -0.44259749 -0.76660133 0.27716386
v -0.39393398 -0.68231367 0.21213203
v -0.36141807 -0.62599446 0.11480503
v -0.35000000 -0.60621778 0.00000000
v -0.36141807 -0.62599446 -0.11480503
v -0.39393398 -0.68231367 -0.21213203
v -0.44259749 -0.76660133 -0.27716386
v -0.50000000 -0.86602540 -0.30000000
v -0.55740251 -0.96544948 -0.27716386
v -0.60606602 -1.04973713 -0.21213203
v -0.63858193 -1.10605635 -0.11480503
v -0.49748846 -1.20104339 0.00000000
v -0.48874945 -1.17994555 0.11480503
v -0.46386285 -1.11986398 0.21213203
v -0.42661742 -1.02994555 0.27716386
v -0.38268343 -0.92387953 0.30000000
v -0.33874945 -0.81781352 0.27716386
v -0.30150402 -0.72789509 0.21213203
v -0.27661742 -0.66781352 0.11480503
v -0.26787840 -0.64671567 0.00000000
v -0.27661742 -0.66781352 -0.11480503
v -0.30150402 -0.72789509 -0.21213203
v -0.33874945 -0.81781352 -0.27716386
v -0.38268343 -0.92387953 -0.30000000
v -0.42661742 -1.02994555 -0.27716386
v -0.46386285 -1.11986398 -0.21213203
v -0.48874945 -1.17994555 -0.11480503
v -0.33646476 -1.25570357 0.00000000
v -0.33055433 -1.23364556 0.11480503
v -0.31372286 -1.17082964 0.21213203
v -0.28853277 -1.07681897 0.27716386
v -0.25881905 -0.96592583 0.30000000
v -0.22910532 -0.85503268 0.27716386
v -0.20391523 -0.76102202 0.21213203
v -0.18708376 -0.69820610 0.11480503
v -0.18117333 -0.67614808 0.00000000
v -0.18708376 -0.69820610 -0.11480503
v -0.20391523 -0.76102202 -0.21213203
v -0.22910532 -0.85503268 -0.27716386
v -0.25881905 -0.96592583 -0.30000000
v -0.28853277 -1.07681897 -0.27716386
v -0.31372286 -1.17082964 -0.21213203
v -0.33055433 -1.23364556 -0.11480503
v -0.16968405 -1.28887832 0.00000000
v -0.16670334 -1.26623755 0.11480503
v -0.15821498 -1.20176208 0.21213203
v -0.14551126 -1.10526772 0.27716386
v -0.13052619 -0.99144486 0.30000000
v -0.11554113 -0.87762200 0.27716386
v -0.10283741 -0.78112765 0.21213203
v -0.09434905 -0.71665218 0.11480503
v -0.09136833 -0.69401140 0.00000000
v -0.09434905 -0.71665218 -0.11480503
v -0.10283741 -0.78112765 -0.21213203
v -0.11554113 -0.87762200 -0.27716386
v -0.13052619 -0.99144486 -0.30000000
v -0.14551126 -1.10526772 -0.27716386
v -0.15821498 -1.20176208 -0.21213203
v -0.16670334 -1.26623755 -0.11480503
v -0.00000000 -1.30000000 0.00000000
v -0.00000000 -1.27716386 0.11480503
v -0.00000000 -1.21213203 0.21213203
v -0.00000000 -1.11480503 0.27716386
v -0.00000000 -1.00000000 0.30000000
v -0.00000000 -0.88519497 0.27716386
v -0.00000000 -0.78786797 0.21213203
v -0.00000000 -0.72283614 0.11480503
v -0.00000000 -0.70000000 0.00000000
v -0.00000000 -0.72283614 -0.11480503
v -0.00000000 -0.78786797 -0.21213203
v -0.00000000 -0.88519497 -0.27716386
v -0.00000000 -1.00000000 -0.30000000
v -0.00000000 -1.11480503 -0.27716386
v -0.00000000 -1.21213203 -0.21213203
v -0.00000000 -1.27716386 -0.11480503
v 0.16968405 -1.28887832 0.00000000
v 0.16670334 -1.26623755 0.11480503
v 0.15821498 -1.20176208 0.21213203
v 0.14551126 -1.10526772 0.27716386
v 0.13052619 -0.99144486 0.30000000
v 0.11554113 -0.87762200 0.27716386
v 0.10283741 -0.78112765 0.21213203
v 0.09434905 -0.71665218 0.11480503
v 0.09136833 -0.69401140 0.00000000
v 0.09434905 -0.71665218 -0.11480503
v 0.10283741 -0.78112765 -0.21213203
v 0.11554113 -0.87762200 -0.27716386
v 0.13052619 -0.99144486 -0.30000000
v 0.14551126 -1.10526772 -0.27716386
v 0.15821498 -1.20176208 -0.21213203
v 0.16670334 -1.26623755 -0.11480503
v 0.33646476 -1.25570357 0.00000000
v 0.33055433 -1.23364556 0.11480503
v 0.31372286 -1.17082964 0.21213203
v 0.28853277 -1.07681897 0.27716386
v 0.25881905 -0.96592583 0.30000000
v 0.22910532 -0.85503268 0.27716386
v 0.20391523 -0.76102202 0.21213203
v 0.18708376 -0.69820610 0.11480503
v 0.18117333 -0.67614808 0.00000000
v 0.18708376 -0.69820610 -0.11480503
v 0.20391523 -0.76102202 -0.21213203
v 0.22910532 -0.85503268 -0.27716386
v 0.25881905 -0.96592583 -0.30000000
v 0.28853277 -1.07681897 -0.27716386
v 0.31372286 -1.17082964 -0.21213203
v 0.33055433 -1.23364556 -0.11480503
v 0.49748846 -1.20104339 0.00000000
v 0.48874945 -1.17994555 0.11480503
v 0.46386285 -1.11986398 0.21213203
v 0.42661742 -1.02994555 0.27716386
v 0.38268343 -0.92387953 0.30000000
v 0.33874945 -0.81781352 0.27716386
v 0.30150402 -0.72789509 0.21213203
v 0.27661742 -0.66781352 0.11480503
v 0.26787840 -0.64671567 0.00000000
v 0.27661742 -0.66781352 -0.11480503
v 0.30150402 -0.72789509 -0.21213203
v 0.33874945 -0.81781352 -0.27716386
v 0.38268343 -0.92387953 -0.30000000
v 0.42661742 -1.02994555 -0.27716386
v 0.46386285 -1.11986398 -0.21213203
v 0.48874945 -1.17994555 -0.11480503
v 0.65000000 -1.12583302 0.00000000
v 0.63858193 -1.10605635 0.11480503
v 0.60606602 -1.04973713 0.21213203
v 0.55740251 -0.96544948 0.27716386
v 0.50000000 -0.86602540 0.30000000
v 0.44259749 -0.76660133 0.27716386
v 0.39393398 -0.68231367 0.21213203
v 0.36141807 -0.62599446 0.11480503
v 0.35000000 -0.60621778 0.00000000
v 0.36141807 -0.62599446 -0.11480503
v 0.39393398 -0.68231367 -0.21213203
v 0.44259749 -0.76660133 -0.27716386
v 0.50000000 -0.86602540 -0.30000000
v 0.55740251 -0.96544948 -0.27716386
v 0.60606602 -1.04973713 -0.21213203
v 0.63858193 -1.10605635 -0.11480503
v 0.79138986 -1.03135934 0.00000000
v 0.77748810 -1.01324221 0.11480503
v 0.73789923 -0.96164900 0.21213203
v 0.67865030 -0.88443429 0.27716386
v 0.60876143 -0.79335334 0.30000000
v 0.53887256 -0.70227239 0.27716386
v 0.47962363 -0.62505768 0.21213203
v 0.44003476 -0.57346447 0.11480503
v 0.42613300 -0.55534734 0.00000000
v 0.44003476 -0.57346447 -0.11480503
v 0.47962363 -0.62505768 -0.21213203
v 0.53887256 -0.70227239 -0.27716386
v 0.60876143 -0.79335334 -0.30000000
v 0.67865030 -0.88443429 -0.27716386
v 0.73789923 -0.96164900 -0.21213203
v 0.77748810 -1.01324221 -0.11480503
v 0.91923882 -0.91923882 0.00000000
v 0.90309123 -0.90309123 0.11480503
v 0.85710678 -0.85710678 0.21213203
v 0.78828620 -0.78828620 0.27716386
v 0.70710678 -0.70710678 0.30000000
v 0.62592737 -0.62592737 0.27716386
v 0.55710678 -0.55710678 0.21213203
v 0.51112234 -0.51112234 0.11480503
v 0.49497475 -0.49497475 0.00000000
v 0.51112234 -0.51112234 -0.11480503
v 0.55710678 -0.55710678 -0.21213203
v 0.62592737 -0.62592737 -0.27716386
v 0.70710678 -0.70710678 -0.30000000
v 0.78828620 -0.78828620 -0.27716386
v 0.85710678 -0.85710678 -0.21213203
v 0.90309123 -0.90309123 -0.11480503
v 1.03135934 -0.79138986 0.00000000
v 1.01324221 -0.77748810 0.11480503
v 0.96164900 -0.73789923 0.21213203
v 0.88443429 -0.67865030 0.27716386
v 0.79335334 -0.60876143 0.30000000
v 0.70227239 -0.53887256 0.27716386
v 0.62505768 -0.47962363 0.21213203
v 0.57346447 -0.44003476 0.11480503
v 0.55534734 -0.42613300 0.00000000
v 0.57346447 -0.44003476 -0.11480503
v 0.62505768 -0.47962363 -0.21213203
v 0.70227239 -0.53887256 -0.27716386
v 0.79335334 -0.60876143 -0.30000000
v 0.88443429 -0.67865030 -0.27716386
v 0.96164900 -0.73789923 -0.21213203
v 1.01324221 -0.77748810 -0.11480503
v 1.12583302 -0.65000000 0.00000000
v 1.10605635 -0.63858193 0.11480503
v 1.04973713 -0.60606602 0.21213203
v 0.96544948 -0.55740251 0.27716386
v 0.86602540 -0.50000000 0.30000000
v 0.76660133 -0.44259749 0.27716386
v 0.68231367 -0.39393398 0.21213203
v 0.62599446 -0.36141807 0.11480503
v 0.60621778 -0.35000000 0.00000000
v 0.62599446 -0.36141807 -0.11480503
v 0.68231367 -0.39393398 -0.21213203
v 0.76660133 -0.44259749 -0.27716386
v 0.86602540 -0.50000000 -0.30000000
v 0.96544948 -0.55740251 -0.27716386
v 1.04973713 -0.60606602 -0.21213203
v 1.10605635 -0.63858193 -0.11480503
v 1.20104339 -0.49748846 0.00000000
v 1.17994555 -0.48874945 0.11480503
v 1.11986398 -0.46386285 0.21213203
v 1.02994555 -0.42661742 0.27716386
v 0.92387953 -0.38268343 0.30000000
v 0.81781352 -0.33874945 0.27716386
v 0.72789509 -0.30150402 0.21213203
v 0.66781352 -0.27661742 0.11480503
v 0.64671567 -0.26787840 0.00000000
v 0.66781352 -0.27661742 -0.11480503
v 0.72789509 -0.30150402 -0.21213203
v 0.81781352 -0.33874945 -0.27716386
v 0.92387953 -0.38268343 -0.30000000
v 1.02994555 -0.42661742 -0.27716386
v 1.11986398 -0.46386285 -0.21213203
v 1.17994555 -0.48874945 -0.11480503
v 1.25570357 -0.33646476 0.00000000
v 1.23364556 -0.33055433 0.11480503
v 1.17082964 -0.31372286 0.21213203
v 1.07681897 -0.28853277 0.27716386
v 0.96592583 -0.25881905 0.30000000
v 0.85503268 -0.22910532 0.27716386
v 0.76102202 -0.20391523 0.21213203
v 0.69820610 -0.18708376 0.11480503
v 0.67614808 -0.18117333 0.00000000
v 0.69820610 -0.18708376 -0.11480503
v 0.76102202 -0.20391523 -0.21213203
v 0.85503268 -0.22910532 -0.27716386
v 0.96592583 -0.25881905 -0.30000000
v 1.07681897 -0.28853277 -0.27716386
v 1.17082964 -0.31372286 -0.21213203
v 1.23364556 -0.33055433 -0.11480503
v 1.28887832 -0.16968405 0.00000000
v 1.26623755 -0.16670334 0.11480503
v 1.20176208 -0.15821498 0.21213203
v 1.10526772 -0.14551126 0.27716386
v 0.99144486 -0.13052619 0.30000000
v 0.87762200 -0.11554113 0.27716386
v 0.78112765 -0.10283741 0.21213203
v 0.71665218 -0.09434905 0.11480503
v 0.69401140 -0.09136833 0.00000000
v 0.71665218 -0.09434905 -0.11480503
v 0.78112765 -0.10283741 -0.21213203
v 0.87762200 -0.11554113 -0.27716386
v 0.99144486 -0.13052619 -0.30000000
v 1.10526772 -0.14551126 -0.27716386
v 1.20176208 -0.15821498 -0.21213203
v 1.26623755 -0.16670334 -0.11480503
f 1 17 2
f 2 17 18
f 2 18 3
f 3 18 19
f 3 19 4
f 4 19 20
f 4 20 5
f 5 20 21
f 5 21 6
f 6 21 22
f 6 22 7
f 7 22 23
f 7 23 8
f 8 23 24
f 8 24 9
f 9 24 25
f 9 25 10
f 10 25 26
f 10 26 11
f 11 26 27
f 11 27 12
f 12 27 28
f 12 28 13
f 13 28 29
f 13 29 14
f 14 29 30
f 14 30 15
f 15 30 31
f 15 31 16
f 16 31 32
f 16 32 1
f 1 32 17
f 17 33 18
f 18 33 34
f 18 34 19
f 19 34 35
f 19 35 20
f 20 35 36
f 20 36 21
f 21 36 37
f 21 37 22
f 22 37 38
f 22 38 23
f 23 38 39
f 23 39 24
f 24 39 40
f 24 40 25
f 25 40 41
f 25 41 26
f 26 41 42
f 26 42 27
f 27 42 43
f 27 43 28
f 28 43 44
f 28 44 29
f 29 44 45
f 29 45 30
f 30 45 46
f 30 46 31
f 31 46 47
f 31 47 32
f 32 47 48
f 32 48 17
f 17 48 33
f 33 49 34
f 34 49 50
f 34 50 35
f 35 50 51
f 35 51 36
f 36 51 52
f 36 52 37
f 37 52 53
f 37 53 38
f 38 53 54
f 38 54 39
f 39 54 55
f 39 55 40
f 40 55 56
f 40 56 41
f 41 56 57
f 41 57 42
f 42 57 58
f 42 58 43
f 43 58 59
f 43 59 44
f 44 59 60
f 44 60 45
f 45 60 61
f 45 61 46
f 46 61 62
f 46 62 47
f 47 62 63
f 47 63 48
f 48 63 64
f 48 64 33
f 33 64 49
f 49 65 50
f 50 65 66
f 50 66 51
f 51 66 67
f 51 67 52
f 52 67 68
f 52 68 53
f 53 68 69
f 53 69 54
f 54 69 70
f 54 70 55
f 55 70 71
f 55 71 56
f 56 71 72
f 56 72 57
f 57 72 73
f 57 73 58
f 58 73 74
f 58 74 59
f 59 74 75
f 59 75 60
f 60 75 76
f 60 76 61
f 61 76 77
f 61 77 62
f 62 77 78
f 62 78 63
f 63 78 79
f 63 79 64
f 64 79 80
f 64 80 49
f 49 80 65
f 65 81 66
f 66 81 82
f 66 82 67
f 67 82 83
f 67 83 68
f 68 83 84
f 68 84 69
f 69 84 85
f 69 85 70
f 70 85 86
f 70 86 71
f 71 86 87
f 71 87 72
f 72 87 88
f 72 88 73
f 73 88 89
f 73 89 74
f 74 89 90
f 74 90 75
f 75 90 91
f 75 91 76
f 76 91 92
f 76 92 77
f 77 92 93
f 77 93 78
f 78 93 94
f 78 94 79
f 79 94 95
f 79 95 80
f 80 95 96
f 80 96 65
f 65 96 81
f 81 97 82
f 82 97 98
f 82 98 83
f 83 98 99
f 83 99 84
f 84 99 100
f 84 100 85
f 85 100 101
f 85 101 86
f 86 101 102
f 86 102 87
f 87 102 103
f 87 103 88
f 88 103 104
f 88 104 89
f 89 104 105
f 89 105 90
f 90 105 106
f 90 106 91
f 91 106 107
f 91 107 92
f 92 107 108
f 92 108 93
f 93 108 109
f 93 109 94
f 94 109 110
f 94 110 95
f 95 110 111
f 95 111 96
f 96 111 112
f 96 112 81
f 81 112 97
f 97 113 98
f 98 113 114
f 98 114 99
f 99 114 115
f 99 115 100
f 100 115 116
f 100 116 101
f 101 116 117
f 101 117 102
f 102 117 118
f 102 118 103
f 103 118 119
f 103 119 104
f 104 119 120
f 104 120 105
f 105 120 121
f 105 121 106
f 106 121 122
f 106 122 107
f 107 122 123
f 107 123 108
f 108 123 124
f 108 124 109
f 109 124 125
f 109 125 110
f 110 125 126
f 110 126 111
f 111 126 127
f 111 127 112
f 112 127 128
f 112 128 97
f 97 128 113
f 113 129 114
f 114 129 130
f 114 130 115
f 115 130 131
f 115 131 116
f 116 131 132
f 116 132 117
f 117 132 133
f 117 133 118
f 118 133 134
f 118 134 119
f 119 134 135
f 119 135 120
f 120 135 136
f 120 136 121
f 121 136 137
f 121 137 122
f 122 137 138
f 122 138 123
f 123 138 139
f 123 139 124
f 124 139 140
f 124 140 125
f 125 140 141
f 125 141 126
f 126 141 142
f 126 142 127
f 127 142 143
f 127 143 128
f 128 143 144
f 128 144 113
f 113 144 129
f 129 145 130
f 130 145 146
f 130 146 131
f 131 146 147
f 131 147 132
f 132 147 148
f 132 148 133
f 133 148 149
f 133 149 134
f 134 149 150
f 134 150 135
f 135 150 151
f 135 151 136
f 136 151 152
f 136 152 137
f 137 152 153
f 137 153 138
f 138 153 154
f 138 154 139
f 139 154 155
f 139 155 140
f 140 155 156
f 140 156 141
f 141 156 157
f 141 157 142
f 142 157 158
f 142 158 143
f 143 158 159
f 143 159 144
f 144 159 160
f 144 160 129
f 129 160 145
f 145 161 146
f 146 161 162
f 146 162 147
f 147 162 163
f 147 163 148
f 148 163 164
f 148 164 149
f 149 164 165
f 149 165 150
f 150 165 166
f 150 166 151
f 151 166 167
f 151 167 152
f 152 167 168
f 152 168 153
f 153 168 169
f 153 169 154
f 154 169 170
f 154 170 155
f 155 170 171
f 155 171 156
f 156 171 172
f 156 172 157
f 157 172 173
f 157 173 158
f 158 173 174
f 158 174 159
f 159 174 175
f 159 175 160
f 160 175 176
f 160 176 145
f 145 176 161
f 161 177 162
f 162 177 178
f 162 178 163
f 163 178 179
f 163 179 164
f 164 179 180
f 164 180 165
f 165 180 181
f 165 181 166
f 166 181 182
f 166 182 167
f 167 182 183
f 167 183 168
f 168 183 184
f 168 184 169
f 169 184 185
f 169 185 170
f 170 185 186
f 170 186 171
f 171 186 187
f 171 187 172
f 172 187 188
f 172 188 173
f 173 188 189
f 173 189 174
f 174 189 190
f 174 190 175
f 175 190 191
f 175 191 176
f 176 191 192
f 176 192 161
f 161 192 177
f 177 193 178
f 178 193 194
f 178 194 179
f 179 194 195
f 179 195 180
f 180 195 196
f 180 196 181
f 181 196 197
f 181 197 182
f 182 197 198
f 182 198 183
f 183 198 199
f 183 199 184
f 184 199 200
f 184 200 185
f 185 200 201
f 185 201 186
f 186 201 202
f 186 202 187
f 187 202 203
f 187 203 188
f 188 203 204
f 188 204 189
f 189 204 205
f 189 205 190
f 190 205 206
f 190 206 191
f 191 206 207
f 191 207 192
f 192 207 208
f 192 208 177
f 177 208 193
f 193 209 194
f 194 209 210
f 194 210 195
f 195 210 211
f 195 211 196
f 196 211 212
f 196 212 197
f 197 212 213
f 197 213 198
f 198 213 214
f 198 214 199
f 199 214 215
f 199 215 200
f 200 215 216
f 200 216 201
f 201 216 217
f 201 217 202
f 202 217 218
f 202 218 203
f 203 218 219
f 203 219 204
f 204 219 220
f 204 220 205
f 205 220 221
f 205 221 206
f 206 221 222
f 206 222 207
f 207 222 223
f 207 223 208
f 208 223 224
f 208 224 193
f 193 224 209
f 209 225 210
f 210 225 226
f 210 226 211
f 211 226 227
f 211 227 212
f 212 227 228
f 212 228 213
f 213 228 229
f 213 229 214
f 214 229 230
f 214 230 215
f 215 230 231
f 215 231 216
f 216 231 232
f 216 232 217
f 217 232 233
f 217 233 218
f 218 233 234
f 218 234 219
f 219 234 235
f 219 235 220
f 220 235 236
f 220 236 221
f 221 236 237
f 221 237 222
f 222 237 238
f 222 238 223
f 223 238 239
f 223 239 224
f 224 239 240
f 224 240 209
f 209 240 225
f 225 241 226
f 226 241 242
f 226 242 227
f 227 242 243
f 227 243 228
f 228 243 244
f 228 244 229
f 229 244 245
f 229 245 230
f 230 245 246
f 230 246 231
f 231 246 247
f 231 247 232
f 232 247 248
f 232 248 233
f 233 248 249
f 233 249 234
f 234 249 250
f 234 250 235
f 235 250 251
f 235 251 236
f 236 251 252
f 236 252 237
f 237 252 253
f 237 253 238
f 238 253 254
f 238 254 239
f 239 254 255
f 239 255 240
f 240 255 256
f 240 256 225
f 225 256 241
f 241 257 242
f 242 257 258
f 242 258 243
f 243 258 259
f 243 259 244
f 244 259 260
f 244 260 245
f 245 260 261
f 245 261 246
f 246 261 262
f 246 262 247
f 247 262 263
f 247 263 248
f 248 263 264
f 248 264 249
f 249 264 265
f 249 265 250
f 250 265 266
f 250 266 251
f 251 266 267
f 251 267 252
f 252 267 268
f 252 268 253
f 253 268 269
f 253 269 254
f 254 269 270
f 254 270 255
f 255 270 271
f 255 271 256
f 256 271 272
f 256 272 241
f 241 272 257
f 257 273 258
f 258 273 274
f 258 274 259
f 259 274 275
f 259 275 260
f 260 275 276
f 260 276 261
f 261 276 277
f 261 277 262
f 262 277 278
f 262 278 263
f 263 278 279
f 263 279 264
f 264 279 280
f 264 280 265
f 265 280 281
f 265 281 266
f 266 281 282
f 266 282 267
f 267 282 283
f 267 283 268
f 268 283 284
f 268 284 269
f 269 284 285
f 269 285 270
f 270 285 286
f 270 286 271
f 271 286 287
f 271 287 272
f 272 287 288
f 272 288 257
f 257 288 273
f 273 289 274
f 274 289 290
f 274 290 275
f 275 290 291
f 275 291 276
f 276 291 292
f 276 292 277
f 277 292 293
f 277 293 278
f 278 293 294
f 278 294 279
f 279 294 295
f 279 295 280
f 280 295 296
f 280 296 281
f 281 296 297
f 281 297 282
f 282 297 298
f 282 298 283
f 283 298 299
f 283 299 284
f 284 299 300
f 284 300 285
f 285 300 301
f 285 301 286
f 286 301 302
f 286 302 287
f 287 302 303
f 287 303 288
f 288 303 304
f 288 304 273
f 273 304 289
f 289 305 290
f 290 305 306
f 290 306 291
f 291 306 307
f 291 307 292
f 292 307 308
f 292 308 293
f 293 308 309
f 293 309 294
f 294 309 310
f 294 310 295
f 295 310 311
f 295 311 296
f 296 311 312
f 296 312 297
f 297 312 313
f 297 313 298
f 298 313 314
f 298 314 299
f 299 314 315
f 299 315 300
f 300 315 316
f 300 316 301
f 301 316 317
f 301 317 302
f 302 317 318
f 302 318 303
f 303 318 319
f 303 319 304
f 304 319 320
f 304 320 289
f 289 320 305
f 305 321 306
f 306 321 322
f 306 322 307
f 307 322 323
f 307 323 308
f 308 323 324
f 308 324 309
f 309 324 325
f 309 325 310
f 310 325 326
f 310 326 311
f 311 326 327
f 311 327 312
f 312 327 328
f 312 328 313
f 313 328 329
f 313 329 314
f 314 329 330
f 314 330 315
f 315 330 331
f 315 331 316
f 316 331 332
f 316 332 317
f 317 332 333
f 317 333 318
f 318 333 334
f 318 334 319
f 319 334 335
f 319 335 320
f 320 335 336
f 320 336 305
f 305 336 321
f 321 337 322
f 322 337 338
f 322 338 323
f 323 338 339
f 323 339 324
f 324 339 340
f 324 340 325
f 325 340 341
f 325 341 326
f 326 341 342
f 326 342 327
f 327 342 343
f 327 343 328
f 328 343 344
f 328 344 329
f 329 344 345
f 329 345 330
f 330 345 346
f 330 346 331
f 331 346 347
f 331 347 332
f 332 347 348
f 332 348 333
f 333 348 349
f 333 349 334
f 334 349 350
f 334 350 335
f 335 350 351
f 335 351 336
f 336 351 352
f 336 352 321
f 321 352 337
f 337 353 338
f 338 353 354
f 338 354 339
f 339 354 355
f 339 355 340
f 340 355 356
f 340 356 341
f 341 356 357
f 341 357 342
f 342 357 358
f 342 358 343
f 343 358 359
f 343 359 344
f 344 359 360
f 344 360 345
f 345 360 361
f 345 361 346
f 346 361 362
f 346 362 347
f 347 362 363
f 347 363 348
f 348 363 364
f 348 364 349
f 349 364 365
f 349 365 350
f 350 365 366
f 350 366 351
f 351 366 367
f 351 367 352
f 352 367 368
f 352 368 337
f 337 368 353
f 353 369 354
f 354 369 370
f 354 370 355
f 355 370 371
f 355 371 356
f 356 371 372
f 356 372 357
f 357 372 373
f 357 373 358
f 358 373 374
f 358 374 359
f 359 374 375
f 359 375 360
f 360 375 376
f 360 376 361
f 361 376 377
f 361 377 362
f 362 377 378
f 362 378 363
f 363 378 379
f 363 379 364
f 364 379 380
f 364 380 365
f 365 380 381
f 365 381 366
f 366 381 382
f 366 382 367
f 367 382 383
f 367 383 368
f 368 383 384
f 368 384 353
f 353 384 369
f 369 385 370
f 370 385 386
f 370 386 371
f 371 386 387
f 371 387 372
f 372 387 388
f 372 388 373
f 373 388 389
f 373 389 374
f 374 389 390
f 374 390 375
f 375 390 391
f 375 391 376
f 376 391 392
f 376 392 377
f 377 392 393
f 377 393 378
f 378 393 394
f 378 394 379
f 379 394 395
f 379 395 380
f 380 395 396
f 380 396 381
f 381 396 397
f 381 397 382
f 382 397 398
f 382 398 383
f 383 398 399
f 383 399 384
f 384 399 400
f 384 400 369
f 369 400 385
f 385 401 386
f 386 401 402
f 386 402 387
f 387 402 403
f 387 403 388
f 388 403 404
f 388 404 389
f 389 404 405
f 389 405 390
f 390 405 406
f 390 406 391
f 391 406 407
f 391 407 392
f 392 407 408
f 392 408 393
f 393 408 409
f 393 409 394
f 394 409 410
f 394 410 395
f 395 410 411
f 395 411 396
f 396 411 412
f 396 412 397
f 397 412 413
f 397 413 398
f 398 413 414
f 398 414 399
f 399 414 415
f 399 415 400
f 400 415 416
f 400 416 385
f 385 416 401
f 401 417 402
f 402 417 418
f 402 418 403
f 403 418 419
f 403 419 404
f 404 419 420
f 404 420 405
f 405 420 421
f 405 421 406
f 406 421 422
f 406 422 407
f 407 422 423
f 407 423 408
f 408 423 424
f 408 424 409
f 409 424 425
f 409 425 410
f 410 425 426
f 410 426 411
f 411 426 427
f 411 427 412
f 412 427 428
f 412 428 413
f 413 428 429
f 413 429 414
f 414 429 430
f 414 430 415
f 415 430 431
f 415 431 416
f 416 431 432
f 416 432 401
f 401 432 417
f 417 433 418
f 418 433 434
f 418 434 419
f 419 434 435
f 419 435 420
f 420 435 436
f 420 436 421
f 421 436 437
f 421 437 422
f 422 437 438
f 422 438 423
f 423 438 439
f 423 439 424
f 424 439 440
f 424 440 425
f 425 440 441
f 425 441 426
f 426 441 442
f 426 442 427
f 427 442 443
f 427 443 428
f 428 443 444
f 428 444 429
f 429 444 445
f 429 445 430
f 430 445 446
f 430 446 431
f 431 446 447
f 431 447 432
f 432 447 448
f 432 448 417
f 417 448 433
f 433 449 434
f 434 449 450
f 434 450 435
f 435 450 451
f 435 451 436
f 436 451 452
f 436 452 437
f 437 452 453
f 437 453 438
f 438 453 454
f 438 454 439
f 439 454 455
f 439 455 440
f 440 455 456
f 440 456 441
f 441 456 457
f 441 457 442
f 442 457 458
f 442 458 443
f 443 458 459
f 443 459 444
f 444 459 460
f 444 460 445
f 445 460 461
f 445 461 446
f 446 461 462
f 446 462 447
f 447 462 463
f 447 463 448
f 448 463 464
f 448 464 433
f 433 464 449
f 449 465 450
f 450 465 466
f 450 466 451
f 451 466 467
f 451 467 452
f 452 467 468
f 452 468 453
f 453 468 469
f 453 469 454
f 454 469 470
f 454 470 455
f 455 470 471
f 455 471 456
f 456 471 472
f 456 472 457
f 457 472 473
f 457 473 458
f 458 473 474
f 458 474 459
f 459 474 475
f 459 475 460
f 460 475 476
f 460 476 461
f 461 476 477
f 461 477 462
f 462 477 478
f 462 478 463
f 463 478 479
f 463 479 464
f 464 479 480
f 464 480 449
f 449 480 465
f 465 481 466
f 466 481 482
f 466 482 467
f 467 482 483
f 467 483 468
f 468 483 484
f 468 484 469
f 469 484 485
f 469 485 470
f 470 485 486
f 470 486 471
f 471 486 487
f 471 487 472
f 472 487 488
f 472 488 473
f 473 488 489
f 473 489 474
f 474 489 490
f 474 490 475
f 475 490 491
f 475 491 476
f 476 491 492
f 476 492 477
f 477 492 493
f 477 493 478
f 478 493 494
f 478 494 479
f 479 494 495
f 479 495 480
f 480 495 496
f 480 496 465
f 465 496 481
f 481 497 482
f 482 497 498
f 482 498 483
f 483 498 499
f 483 499 484
f 484 499 500
f 484 500 485
f 485 500 501
f 485 501 486
f 486 501 502
f 486 502 487
f 487 502 503
f 487 503 488
f 488 503 504
f 488 504 489
f 489 504 505
f 489 505 490
f 490 505 506
f 490 506 491
f 491 506 507
f 491 507 492
f 492 507 508
f 492 508 493
f 493 508 509
f 493 509 494
f 494 509 510
f 494 510 495
f 495 510 511
f 495 511 496
f 496 511 512
f 496 512 481
f 481 512 497
f 497 513 498
f 498 513 514
f 498 514 499
f 499 514 515
f 499 515 500
f 500 515 516
f 500 516 501
f 501 516 517
f 501 517 502
f 502 517 518
f 502 518 503
f 503 518 519
f 503 519 504
f 504 519 520
f 504 520 505
f 505 520 521
f 505 521 506
f 506 521 522
f 506 522 507
f 507 522 523
f 507 523 508
f 508 523 524
f 508 524 509
f 509 524 525
f 509 525 510
f 510 525 526
f 510 526 511
f 511 526 527
f 511 527 512
f 512 527 528
f 512 528 497
f 497 528 513
f 513 529 514
f 514 529 530
f 514 530 515
f 515 530 531
f 515 531 516
f 516 531 532
f 516 532 517
f 517 532 533
f 517 533 518
f 518 533 534
f 518 534 519
f 519 534 535
f 519 535 520
f 520 535 536
f 520 536 521
f 521 536 537
f 521 537 522
f 522 537 538
f 522 538 523
f 523 538 539
f 523 539 524
f 524 539 540
f 524 540 525
f 525 540 541
f 525 541 526
f 526 541 542
f 526 542 527
f 527 542 543
f 527 543 528
f 528 543 544
f 528 544 513
f 513 544 529
f 529 545 530
f 530 545 546
f 530 546 531
f 531 546 547
f 531 547 532
f 532 547 548
f 532 548 533
f 533 548 549
f 533 549 534
f 534 549 550
f 534 550 535
f 535 550 551
f 535 551 536
f 536 551 552
f 536 552 537
f 537 552 553
f 537 553 538
f 538 553 554
f 538 554 539
f 539 554 555
f 539 555 540
f 540 555 556
f 540 556 541
f 541 556 557
f 541 557 542
f 542 557 558
f 542 558 543
f 543 558 559
f 543 559 544
f 544 559 560
f 544 560 529
f 529 560 545
f 545 561 546
f 546 561 562
f 546 562 547
f 547 562 563
f 547 563 548
f 548 563 564
f 548 564 549
f 549 564 565
f 549 565 550
f 550 565 566
f 550 566 551
f 551 566 567
f 551 567 552
f 552 567 568
f 552 568 553
f 553 568 569
f 553 569 554
f 554 569 570
f 554 570 555
f 555 570 571
f 555 571 556
f 556 571 572
f 556 572 557
f 557 572 573
f 557 573 558
f 558 573 574
f 558 574 559
f 559 574 575
f 559 575 560
f 560 575 576
f 560 576 545
f 545 576 561
f 561 577 562
f 562 577 578
f 562 578 563
f 563 578 579
f 563 579 564
f 564 579 580
f 564 580 565
f 565 580 581
f 565 581 566
f 566 581 582
f 566 582 567
f 567 582 583
f 567 583 568
f 568 583 584
f 568 584 569
f 569 584 585
f 569 585 570
f 570 585 586
f 570 586 571
f 571 586 587
f 571 587 572
f 572 587 588
f 572 588 573
f 573 588 589
f 573 589 574
f 574 589 590
f 574 590 575
f 575 590 591
f 575 591 576
f 576 591 592
f 576 592 561
f 561 592 577
f 577 593 578
f 578 593 594
f 578 594 579
f 579 594 595
f 579 595 580
f 580 595 596
f 580 596 581
f 581 596 597
f 581 597 582
f 582 597 598
f 582 598 583
f 583 598 599
f 583 599 584
f 584 599 600
f 584 600 585
f 585 600 601
f 585 601 586
f 586 601 602
f 586 602 587
f 587 602 603
f 587 603 588
f 588 603 604
f 588 604 589
f 589 604 605
f 589 605 590
f 590 605 606
f 590 606 591
f 591 606 607
f 591 607 592
f 592 607 608
f 592 608 577
f 577 608 593
f 593 609 594
f 594 609 610
f 594 610 595
f 595 610 611
f 595 611 596
f 596 611 612
f 596 612 597
f 597 612 613
f 597 613 598
f 598 613 614
f 598 614 599
f 599 614 615
f 599 615 600
f 600 615 616
f 600 616 601
f 601 616 617
f 601 617 602
f 602 617 618
f 602 618 603
f 603 618 619
f 603 619 604
f 604 619 620
f 604 620 605
f 605 620 621
f 605 621 606
f 606 621 622
f 606 622 607
f 607 622 623
f 607 623 608
f 608 623 624
f 608 624 593
f 593 624 609
f 609 625 610
f 610 625 626
f 610 626 611
f 611 626 627
f 611 627 612
f 612 627 628
f 612 628 613
f 613 628 629
f 613 629 614
f 614 629 630
f 614 630 615
f 615 630 631
f 615 631 616
f 616 631 632
f 616 632 617
f 617 632 633
f 617 633 618
f 618 633 634
f 618 634 619
f 619 634 635
f 619 635 620
f 620 635 636
f 620 636 621
f 621 636 637
f 621 637 622
f 622 637 638
f 622 638 623
f 623 638 639
f 623 639 624
f 624 639 640
f 624 640 609
f 609 640 625
f 625 641 626
f 626 641 642
f 626 642 627
f 627 642 643
f 627 643 628
f 628 643 644
f 628 644 629
f 629 644 645
f 629 645 630
f 630 645 646
f 630 646 631
f 631 646 647
f 631 647 632
f 632 647 648
f 632 648 633
f 633 648 649
f 633 649 634
f 634 649 650
f 634 650 635
f 635 650 651
f 635 651 636
f 636 651 652
f 636 652 637
f 637 652 653
f 637 653 638
f 638 653 654
f 638 654 639
f 639 654 655
f 639 655 640
f 640 655 656
f 640 656 625
f 625 656 641
f 641 657 642
f 642 657 658
f 642 658 643
f 643 658 659
f 643 659 644
f 644 659 660
f 644 660 645
f 645 660 661
f 645 661 646
f 646 661 662
f 646 662 647
f 647 662 663
f 647 663 648
f 648 663 664
f 648 664 649
f 649 664 665
f 649 665 650
f 650 665 666
f 650 666 651
f 651 666 667
f 651 667 652
f 652 667 668
f 652 668 653
f 653 668 669
f 653 669 654
f 654 669 670
f 654 670 655
f 655 670 671
f 655 671 656
f 656 671 672
f 656 672 641
f 641 672 657
f 657 673 658
f 658 673 674
f 658 674 659
f 659 674 675
f 659 675 660
f 660 675 676
f 660 676 661
f 661 676 677
f 661 677 662
f 662 677 678
f 662 678 663
f 663 678 679
f 663 679 664
f 664 679 680
f 664 680 665
f 665 680 681
f 665 681 666
f 666 681 682
f 666 682 667
f 667 682 683
f 667 683 668
f 668 683 684
f 668 684 669
f 669 684 685
f 669 685 670
f 670 685 686
f 670 686 671
f 671 686 687
f 671 687 672
f 672 687 688
f 672 688 657
f 657 688 673
f 673 689 674
f 674 689 690
f 674 690 675
f 675 690 691
f 675 691 676
f 676 691 692
f 676 692 677
f 677 692 693
f 677 693 678
f 678 693 694
f 678 694 679
f 679 694 695
f 679 695 680
f 680 695 696
f 680 696 681
f 681 696 697
f 681 697 682
f 682 697 698
f 682 698 683
f 683 698 699
f 683 699 684
f 684 699 700
f 684 700 685
f 685 700 701
f 685 701 686
f 686 701 702
f 686 702 687
f 687 702 703
f 687 703 688
f 688 703 704
f 688 704 673
f 673 704 689
f 689 705 690
f 690 705 706
f 690 706 691
f 691 706 707
f 691 707 692
f 692 707 708
f 692 708 693
f 693 708 709
f 693 709 694
f 694 709 710
f 694 710 695
f 695 710 711
f 695 711 696
f 696 711 712
f 696 712 697
f 697 712 713
f 697 713 698
f 698 713 714
f 698 714 699
f 699 714 715
f 699 715 700
f 700 715 716
f 700 716 701
f 701 716 717
f 701 717 702
f 702 717 718
f 702 718 703
f 703 718 719
f 703 719 704
f 704 719 720
f 704 720 689
f 689 720 705
f 705 721 706
f 706 721 722
f 706 722 707
f 707 722 723
f 707 723 708
f 708 723 724
f 708 724 709
f 709 724 725
f 709 725 710
f 710 725 726
f 710 726 711
f 711 726 727
f 711 727 712
f 712 727 728
f 712 728 713
f 713 728 729
f 713 729 714
f 714 729 730
f 714 730 715
f 715 730 731
f 715 731 716
f 716 731 732
f 716 732 717
f 717 732 733
f 717 733 718
f 718 733 734
f 718 734 719
f 719 734 735
f 719 735 720
f 720 735 736
f 720 736 705
f 705 736 721
f 721 737 722
f 722 737 738
f 722 738 723
f 723 738 739
f 723 739 724
f 724 739 740
f 724 740 725
f 725 740 741
f 725 741 726
f 726 741 742
f 726 742 727
f 727 742 743
f 727 743 728
f 728 743 744
f 728 744 729
f 729 744 745
f 729 745 730
f 730 745 746
f 730 746 731
f 731 746 747
f 731 747 732
f 732 747 748
f 732 748 733
f 733 748 749
f 733 749 734
f 734 749 750
f 734 750 735
f 735 750 751
f 735 751 736
f 736 751 752
f 736 752 721
f 721 752 737
f 737 753 738
f 738 753 754
f 738 754 739
f 739 754 755
f 739 755 740
f 740 755 756
f 740 756 741
f 741 756 757
f 741 757 742
f 742 757 758
f 742 758 743
f 743 758 759
f 743 759 744
f 744 759 760
f 744 760 745
f 745 760 761
f 745 761 746
f 746 761 762
f 746 762 747
f 747 762 763
f 747 763 748
f 748 763 764
f 748 764 749
f 749 764 765
f 749 765 750
f 750 765 766
f 750 766 751
f 751 766 767
f 751 767 752
f 752 767 768
f 752 768 737
f 737 768 753
f 753 1 754
f 754 1 2
f 754 2 755
f 755 2 3
f 755 3 756
f 756 3 4
f 756 4 757
f 757 4 5
f 757 5 758
f 758 5 6
f 758 6 759
f 759 6 7
f 759 7 760
f 760 7 8
f 760 8 761
f 761 8 9
f 761 9 762
f 762 9 10
f 762 10 763
f 763 10 11
f 763 11 764
f 764 11 12
f 764 12 765
f 765 12 13
f 765 13 766
f 766 13 14
f 766 14 767
f 767 14 15
f 767 15 768
f 768 15 16
f 768 16 753
f 753 16 1

