# https://github.com/mikedh/trimesh
v 0.00000000 0.00000000 -1.15000000
v 0.04046733 0.00000000 -1.14794773
v 0.08051941 0.00000000 -1.14181198
v 0.11974525 0.00000000 -1.13165570
v 0.15774234 0.00000000 -1.11758312
v 0.19412079 0.00000000 -1.09973865
v 0.22850729 0.00000000 -1.07830538
v 0.26054899 0.00000000 -1.05350325
v 0.28991711 0.00000000 -1.02558677
v 0.31631029 0.00000000 -0.99484239
v 0.33945770 0.00000000 -0.96158560
v 0.35912182 0.00000000 -0.92615766
v 0.37510085 0.00000000 -0.88892210
v 0.38723085 0.00000000 -0.85026101
v 0.39538733 0.00000000 -0.81057111
v 0.39948660 0.00000000 -0.77025967
v 0.39948660 0.00000000 0.77025967
v 0.39538733 0.00000000 0.81057111
v 0.38723085 0.00000000 0.85026101
v 0.37510085 0.00000000 0.88892210
v 0.35912182 0.00000000 0.92615766
v 0.33945770 0.00000000 0.96158560
v 0.31631029 0.00000000 0.99484239
v 0.28991711 0.00000000 1.02558677
v 0.26054899 0.00000000 1.05350325
v 0.22850729 0.00000000 1.07830538
v 0.19412079 0.00000000 1.09973865
v 0.15774234 0.00000000 1.11758312
v 0.11974525 0.00000000 1.13165570
v 0.08051941 0.00000000 1.14181198
v 0.04046733 0.00000000 1.14794773
v 0.00000000 0.00000000 1.15000000
v 0.03738694 0.01548618 -1.14794773
v 0.07439023 0.03081344 -1.14181198
v 0.11063018 0.04582452 -1.13165570
v 0.14573492 0.06036538 -1.11758312
v 0.17934422 0.07428681 -1.09973865
v 0.21111320 0.08744595 -1.07830538
v 0.24071588 0.09970778 -1.05350325
v 0.26784849 0.11094648 -1.02558677
v 0.29223261 0.12104671 -0.99484239
v 0.31361802 0.12990484 -0.96158560
v 0.33178530 0.13742997 -0.92615766
v 0.34654800 0.14354488 -0.88892210
v 0.35775465 0.14818683 -0.85026101
v 0.36529026 0.15130818 -0.81057111
v 0.36907750 0.15287690 -0.77025967
v 0.36907750 0.15287690 0.77025967
v 0.36529026 0.15130818 0.81057111
v 0.35775465 0.14818683 0.85026101
v 0.34654800 0.14354488 0.88892210
v 0.33178530 0.13742997 0.92615766
v 0.31361802 0.12990484 0.96158560
v 0.29223261 0.12104671 0.99484239
v 0.26784849 0.11094648 1.02558677
v 0.24071588 0.09970778 1.05350325
v 0.21111320 0.08744595 1.07830538
v 0.17934422 0.07428681 1.09973865
v 0.14573492 0.06036538 1.11758312
v 0.11063018 0.04582452 1.13165570
v 0.07439023 0.03081344 1.14181198
v 0.03738694 0.01548618 1.14794773
v 0.02861472 0.02861472 -1.14794773
v 0.05693582 0.05693582 -1.14181198
v 0.08467268 0.08467268 -1.13165570
v 0.11154068 0.11154068 -1.11758312
v 0.13726412 0.13726412 -1.09973865
v 0.16157905 0.16157905 -1.07830538
v 0.18423596 0.18423596 -1.05350325
v 0.20500236 0.20500236 -1.02558677
v 0.22366515 0.22366515 -0.99484239
v 0.24003284 0.24003284 -0.96158560
v 0.25393747 0.25393747 -0.92615766
v 0.26523636 0.26523636 -0.88892210
v 0.27381356 0.27381356 -0.85026101
v 0.27958106 0.27958106 -0.81057111
v 0.28247969 0.28247969 -0.77025967
v 0.28247969 0.28247969 0.77025967
v 0.27958106 0.27958106 0.81057111
v 0.27381356 0.27381356 0.85026101
v 0.26523636 0.26523636 0.88892210
v 0.25393747 0.25393747 0.92615766
v 0.24003284 0.24003284 0.96158560
v 0.22366515 0.22366515 0.99484239
v 0.20500236 0.20500236 1.02558677
v 0.18423596 0.18423596 1.05350325
v 0.16157905 0.16157905 1.07830538
v 0.13726412 0.13726412 1.09973865
v 0.11154068 0.11154068 1.11758312
v 0.08467268 0.08467268 1.13165570
v 0.05693582 0.05693582 1.14181198
v 0.02861472 0.02861472 1.14794773
v 0.01548618 0.03738694 -1.14794773
v 0.03081344 0.07439023 -1.14181198
v 0.04582452 0.11063018 -1.13165570
v 0.06036538 0.14573492 -1.11758312
v 0.07428681 0.17934422 -1.09973865
v 0.08744595 0.21111320 -1.07830538
v 0.09970778 0.24071588 -1.05350325
v 0.11094648 0.26784849 -1.02558677
v 0.12104671 0.29223261 -0.99484239
v 0.12990484 0.31361802 -0.96158560
v 0.13742997 0.33178530 -0.92615766
v 0.14354488 0.34654800 -0.88892210
v 0.14818683 0.35775465 -0.85026101
v 0.15130818 0.36529026 -0.81057111
v 0.15287690 0.36907750 -0.77025967
v 0.15287690 0.36907750 0.77025967
v 0.15130818 0.36529026 0.81057111
v 0.14818683 0.35775465 0.85026101
v 0.14354488 0.34654800 0.88892210
v 0.13742997 0.33178530 0.92615766
v 0.12990484 0.31361802 0.96158560
v 0.12104671 0.29223261 0.99484239
v 0.11094648 0.26784849 1.02558677
v 0.09970778 0.24071588 1.05350325
v 0.08744595 0.21111320 1.07830538
v 0.07428681 0.17934422 1.09973865
v 0.06036538 0.14573492 1.11758312
v 0.04582452 0.11063018 1.13165570
v 0.03081344 0.07439023 1.14181198
v 0.01548618 0.03738694 1.14794773
v 0.00000000 0.04046733 -1.14794773
v 0.00000000 0.08051941 -1.14181198
v 0.00000000 0.11974525 -1.13165570
v 0.00000000 0.15774234 -1.11758312
v 0.00000000 0.19412079 -1.09973865
v 0.00000000 0.22850729 -1.07830538
v 0.00000000 0.26054899 -1.05350325
v 0.00000000 0.28991711 -1.02558677
v 0.00000000 0.31631029 -0.99484239
v 0.00000000 0.33945770 -0.96158560
v 0.00000000 0.35912182 -0.92615766
v 0.00000000 0.37510085 -0.88892210
v 0.00000000 0.38723085 -0.85026101
v 0.00000000 0.39538733 -0.81057111
v 0.00000000 0.39948660 -0.77025967
v 0.00000000 0.39948660 0.77025967
v 0.00000000 0.39538733 0.81057111
v 0.00000000 0.38723085 0.85026101
v 0.00000000 0.37510085 0.88892210
v 0.00000000 0.35912182 0.92615766
v 0.00000000 0.33945770 0.96158560
v 0.00000000 0.31631029 0.99484239
v 0.00000000 0.28991711 1.02558677
v 0.00000000 0.26054899 1.05350325
v 0.00000000 0.22850729 1.07830538
v 0.00000000 0.19412079 1.09973865
v 0.00000000 0.15774234 1.11758312
v 0.00000000 0.11974525 1.13165570
v 0.00000000 0.08051941 1.14181198
v 0.00000000 0.04046733 1.14794773
v -0.01548618 0.03738694 -1.14794773
v -0.03081344 0.07439023 -1.14181198
v -0.04582452 0.11063018 -1.13165570
v -0.06036538 0.14573492 -1.11758312
v -0.07428681 0.17934422 -1.09973865
v -0.08744595 0.21111320 -1.07830538
v -0.09970778 0.24071588 -1.05350325
v -0.11094648 0.26784849 -1.02558677
v -0.12104671 0.29223261 -0.99484239
v -0.12990484 0.31361802 -0.96158560
v -0.13742997 0.33178530 -0.92615766
v -0.14354488 0.34654800 -0.88892210
v -0.14818683 0.35775465 -0.85026101
v -0.15130818 0.36529026 -0.81057111
v -0.15287690 0.36907750 -0.77025967
v -0.15287690 0.36907750 0.77025967
v -0.15130818 0.36529026 0.81057111
v -0.14818683 0.35775465 0.85026101
v -0.14354488 0.34654800 0.88892210
v -0.13742997 0.33178530 0.92615766
v -0.12990484 0.31361802 0.96158560
v -0.12104671 0.29223261 0.99484239
v -0.11094648 0.26784849 1.02558677
v -0.09970778 0.24071588 1.05350325
v -0.08744595 0.21111320 1.07830538
v -0.07428681 0.17934422 1.09973865
v -0.06036538 0.14573492 1.11758312
v -0.04582452 0.11063018 1.13165570
v -0.03081344 0.07439023 1.14181198
v -0.01548618 0.03738694 1.14794773
v -0.02861472 0.02861472 -1.14794773
v -0.05693582 0.05693582 -1.14181198
v -0.08467268 0.08467268 -1.13165570
v -0.11154068 0.11154068 -1.11758312
v -0.13726412 0.13726412 -1.09973865
v -0.16157905 0.16157905 -1.07830538
v -0.18423596 0.18423596 -1.05350325
v -0.20500236 0.20500236 -1.02558677
v -0.22366515 0.22366515 -0.99484239
v -0.24003284 0.24003284 -0.96158560
v -0.25393747 0.25393747 -0.92615766
v -0.26523636 0.26523636 -0.88892210
v -0.27381356 0.27381356 -0.85026101
v -0.27958106 0.27958106 -0.81057111
v -0.28247969 0.28247969 -0.77025967
v -0.28247969 0.28247969 0.77025967
v -0.27958106 0.27958106 0.81057111
v -0.27381356 0.27381356 0.85026101
v -0.26523636 0.26523636 0.88892210
v -0.25393747 0.25393747 0.92615766
v -0.24003284 0.24003284 0.96158560
v -0.22366515 0.22366515 0.99484239
v -0.20500236 0.20500236 1.02558677
v -0.18423596 0.18423596 1.05350325
v -0.16157905 0.16157905 1.07830538
v -0.13726412 0.13726412 1.09973865
v -0.11154068 0.11154068 1.11758312
v -0.08467268 0.08467268 1.13165570
v -0.05693582 0.05693582 1.14181198
v -0.02861472 0.02861472 1.14794773
v -0.03738694 0.01548618 -1.14794773
v -0.07439023 0.03081344 -1.14181198
v -0.11063018 0.04582452 -1.13165570
v -0.14573492 0.06036538 -1.11758312
v -0.17934422 0.07428681 -1.09973865
v -0.21111320 0.08744595 -1.07830538
v -0.24071588 0.09970778 -1.05350325
v -0.26784849 0.11094648 -1.02558677
v -0.29223261 0.12104671 -0.99484239
v -0.31361802 0.12990484 -0.96158560
v -0.33178530 0.13742997 -0.92615766
v -0.34654800 0.14354488 -0.88892210
v -0.35775465 0.14818683 -0.85026101
v -0.36529026 0.15130818 -0.81057111
v -0.36907750 0.15287690 -0.77025967
v -0.36907750 0.15287690 0.77025967
v -0.36529026 0.15130818 0.81057111
v -0.35775465 0.14818683 0.85026101
v -0.34654800 0.14354488 0.88892210
v -0.33178530 0.13742997 0.92615766
v -0.31361802 0.12990484 0.96158560
v -0.29223261 0.12104671 0.99484239
v -0.26784849 0.11094648 1.02558677
v -0.24071588 0.09970778 1.05350325
v -0.21111320 0.08744595 1.07830538
v -0.17934422 0.07428681 1.09973865
v -0.14573492 0.06036538 1.11758312
v -0.11063018 0.04582452 1.13165570
v -0.07439023 0.03081344 1.14181198
v -0.03738694 0.01548618 1.14794773
v -0.04046733 0.00000000 -1.14794773
v -0.08051941 0.00000000 -1.14181198
v -0.11974525 0.00000000 -1.13165570
v -0.15774234 0.00000000 -1.11758312
v -0.19412079 0.00000000 -1.09973865
v -0.22850729 0.00000000 -1.07830538
v -0.26054899 0.00000000 -1.05350325
v -0.28991711 0.00000000 -1.02558677
v -0.31631029 0.00000000 -0.99484239
v -0.33945770 0.00000000 -0.96158560
v -0.35912182 0.00000000 -0.92615766
v -0.37510085 0.00000000 -0.88892210
v -0.38723085 0.00000000 -0.85026101
v -0.39538733 0.00000000 -0.81057111
v -0.39948660 0.00000000 -0.77025967
v -0.39948660 0.00000000 0.77025967
v -0.39538733 0.00000000 0.81057111
v -0.38723085 0.00000000 0.85026101
v -0.37510085 0.00000000 0.88892210
v -0.35912182 0.00000000 0.92615766
v -0.33945770 0.00000000 0.96158560
v -0.31631029 0.00000000 0.99484239
v -0.28991711 0.00000000 1.02558677
v -0.26054899 0.00000000 1.05350325
v -0.22850729 0.00000000 1.07830538
v -0.19412079 0.00000000 1.09973865
v -0.15774234 0.00000000 1.11758312
v -0.11974525 0.00000000 1.13165570
v -0.08051941 0.00000000 1.14181198
v -0.04046733 0.00000000 1.14794773
v -0.03738694 -0.01548618 -1.14794773
v -0.07439023 -0.03081344 -1.14181198
v -0.11063018 -0.04582452 -1.13165570
v -0.14573492 -0.06036538 -1.11758312
v -0.17934422 -0.07428681 -1.09973865
v -0.21111320 -0.08744595 -1.07830538
v -0.24071588 -0.09970778 -1.05350325
v -0.26784849 -0.11094648 -1.02558677
v -0.29223261 -0.12104671 -0.99484239
v -0.31361802 -0.12990484 -0.96158560
v -0.33178530 -0.13742997 -0.92615766
v -0.34654800 -0.14354488 -0.88892210
v -0.35775465 -0.14818683 -0.85026101
v -0.36529026 -0.15130818 -0.81057111
v -0.36907750 -0.15287690 -0.77025967
v -0.36907750 -0.15287690 0.77025967
v -0.36529026 -0.15130818 0.81057111
v -0.35775465 -0.14818683 0.85026101
v -0.34654800 -0.14354488 0.88892210
v -0.33178530 -0.13742997 0.92615766
v -0.31361802 -0.12990484 0.96158560
v -0.29223261 -0.12104671 0.99484239
v -0.26784849 -0.11094648 1.02558677
v -0.24071588 -0.09970778 1.05350325
v -0.21111320 -0.08744595 1.07830538
v -0.17934422 -0.07428681 1.09973865
v -0.14573492 -0.06036538 1.11758312
v -0.11063018 -0.04582452 1.13165570
v -0.07439023 -0.03081344 1.14181198
v -0.03738694 -0.01548618 1.14794773
v -0.02861472 -0.02861472 -1.14794773
v -0.05693582 -0.05693582 -1.14181198
v -0.08467268 -0.08467268 -1.13165570
v -0.11154068 -0.11154068 -1.11758312
v -0.13726412 -0.13726412 -1.09973865
v -0.16157905 -0.16157905 -1.07830538
v -0.18423596 -0.18423596 -1.05350325
v -0.20500236 -0.20500236 -1.02558677
v -0.22366515 -0.22366515 -0.99484239
v -0.24003284 -0.24003284 -0.96158560
v -0.25393747 -0.25393747 -0.92615766
v -0.26523636 -0.26523636 -0.88892210
v -0.27381356 -0.27381356 -0.85026101
v -0.27958106 -0.27958106 -0.81057111
v -0.28247969 -0.28247969 -0.77025967
v -0.28247969 -0.28247969 0.77025967
v -0.27958106 -0.27958106 0.81057111
v -0.27381356 -0.27381356 0.85026101
v -0.26523636 -0.26523636 0.88892210
v -0.25393747 -0.25393747 0.92615766
v -0.24003284 -0.24003284 0.96158560
v -0.22366515 -0.22366515 0.99484239
v -0.20500236 -0.20500236 1.02558677
v -0.18423596 -0.18423596 1.05350325
v -0.16157905 -0.16157905 1.07830538
v -0.13726412 -0.13726412 1.09973865
v -0.11154068 -0.11154068 1.11758312
v -0.08467268 -0.08467268 1.13165570
v -0.05693582 -0.05693582 1.14181198
v -0.02861472 -0.02861472 1.14794773
v -0.01548618 -0.03738694 -1.14794773
v -0.03081344 -0.07439023 -1.14181198
v -0.04582452 -0.11063018 -1.13165570
v -0.06036538 -0.14573492 -1.11758312
v -0.07428681 -0.17934422 -1.09973865
v -0.08744595 -0.21111320 -1.07830538
v -0.09970778 -0.24071588 -1.05350325
v -0.11094648 -0.26784849 -1.02558677
v -0.12104671 -0.29223261 -0.99484239
v -0.12990484 -0.31361802 -0.96158560
v -0.13742997 -0.33178530 -0.92615766
v -0.14354488 -0.34654800 -0.88892210
v -0.14818683 -0.35775465 -0.85026101
v -0.15130818 -0.36529026 -0.81057111
v -0.15287690 -0.36907750 -0.77025967
v -0.15287690 -0.36907750 0.77025967
v -0.15130818 -0.36529026 0.81057111
v -0.14818683 -0.35775465 0.85026101
v -0.14354488 -0.34654800 0.88892210
v -0.13742997 -0.33178530 0.92615766
v -0.12990484 -0.31361802 0.96158560
v -0.12104671 -0.29223261 0.99484239
v -0.11094648 -0.26784849 1.02558677
v -0.09970778 -0.24071588 1.05350325
v -0.08744595 -0.21111320 1.07830538
v -0.07428681 -0.17934422 1.09973865
v -0.06036538 -0.14573492 1.11758312
v -0.04582452 -0.11063018 1.13165570
v -0.03081344 -0.07439023 1.14181198
v -0.01548618 -0.03738694 1.14794773
v -0.00000000 -0.04046733 -1.14794773
v -0.00000000 -0.08051941 -1.14181198
v -0.00000000 -0.11974525 -1.13165570
v -0.00000000 -0.15774234 -1.11758312
v -0.00000000 -0.19412079 -1.09973865
v -0.00000000 -0.22850729 -1.07830538
v -0.00000000 -0.26054899 -1.05350325
v -0.00000000 -0.28991711 -1.02558677
v -0.00000000 -0.31631029 -0.99484239
v -0.00000000 -0.33945770 -0.96158560
v -0.00000000 -0.35912182 -0.92615766
v -0.00000000 -0.37510085 -0.88892210
v -0.00000000 -0.38723085 -0.85026101
v -0.00000000 -0.39538733 -0.81057111
v -0.00000000 -0.39948660 -0.77025967
v -0.00000000 -0.39948660 0.77025967
v -0.00000000 -0.39538733 0.81057111
v -0.00000000 -0.38723085 0.85026101
v -0.00000000 -0.37510085 0.88892210
v -0.00000000 -0.35912182 0.92615766
v -0.00000000 -0.33945770 0.96158560
v -0.00000000 -0.31631029 0.99484239
v -0.00000000 -0.28991711 1.02558677
v -0.00000000 -0.26054899 1.05350325
v -0.00000000 -0.22850729 1.07830538
v -0.00000000 -0.19412079 1.09973865
v -0.00000000 -0.15774234 1.11758312
v -0.00000000 -0.11974525 1.13165570
v -0.00000000 -0.08051941 1.14181198
v -0.00000000 -0.04046733 1.14794773
v 0.01548618 -0.03738694 -1.14794773
v 0.03081344 -0.07439023 -1.14181198
v 0.04582452 -0.11063018 -1.13165570
v 0.06036538 -0.14573492 -1.11758312
v 0.07428681 -0.17934422 -1.09973865
v 0.08744595 -0.21111320 -1.07830538
v 0.09970778 -0.24071588 -1.05350325
v 0.11094648 -0.26784849 -1.02558677
v 0.12104671 -0.29223261 -0.99484239
v 0.12990484 -0.31361802 -0.96158560
v 0.13742997 -0.33178530 -0.92615766
v 0.14354488 -0.34654800 -0.88892210
v 0.14818683 -0.35775465 -0.85026101
v 0.15130818 -0.36529026 -0.81057111
v 0.15287690 -0.36907750 -0.77025967
v 0.15287690 -0.36907750 0.77025967
v 0.15130818 -0.36529026 0.81057111
v 0.14818683 -0.35775465 0.85026101
v 0.14354488 -0.34654800 0.88892210
v 0.13742997 -0.33178530 0.92615766
v 0.12990484 -0.31361802 0.96158560
v 0.12104671 -0.29223261 0.99484239
v 0.11094648 -0.26784849 1.02558677
v 0.09970778 -0.24071588 1.05350325
v 0.08744595 -0.21111320 1.07830538
v 0.07428681 -0.17934422 1.09973865
v 0.06036538 -0.14573492 1.11758312
v 0.04582452 -0.11063018 1.13165570
v 0.03081344 -0.07439023 1.14181198
v 0.01548618 -0.03738694 1.14794773
v 0.02861472 -0.02861472 -1.14794773
v 0.05693582 -0.05693582 -1.14181198
v 0.08467268 -0.08467268 -1.13165570
v 0.11154068 -0.11154068 -1.11758312
v 0.13726412 -0.13726412 -1.09973865
v 0.16157905 -0.16157905 -1.07830538
v 0.18423596 -0.18423596 -1.05350325
v 0.20500236 -0.20500236 -1.02558677
v 0.22366515 -0.22366515 -0.99484239
v 0.24003284 -0.24003284 -0.96158560
v 0.25393747 -0.25393747 -0.92615766
v 0.26523636 -0.26523636 -0.88892210
v 0.27381356 -0.27381356 -0.85026101
v 0.27958106 -0.27958106 -0.81057111
v 0.28247969 -0.28247969 -0.77025967
v 0.28247969 -0.28247969 0.77025967
v 0.27958106 -0.27958106 0.81057111
v 0.27381356 -0.27381356 0.85026101
v 0.26523636 -0.26523636 0.88892210
v 0.25393747 -0.25393747 0.92615766
v 0.24003284 -0.24003284 0.96158560
v 0.22366515 -0.22366515 0.99484239
v 0.20500236 -0.20500236 1.02558677
v 0.18423596 -0.18423596 1.05350325
v 0.16157905 -0.16157905 1.07830538
v 0.13726412 -0.13726412 1.09973865
v 0.11154068 -0.11154068 1.11758312
v 0.08467268 -0.08467268 1.13165570
v 0.05693582 -0.05693582 1.14181198
v 0.02861472 -0.02861472 1.14794773
v 0.03738694 -0.01548618 -1.14794773
v 0.07439023 -0.03081344 -1.14181198
v 0.11063018 -0.04582452 -1.13165570
v 0.14573492 -0.06036538 -1.11758312
v 0.17934422 -0.07428681 -1.09973865
v 0.21111320 -0.08744595 -1.07830538
v 0.24071588 -0.09970778 -1.05350325
v 0.26784849 -0.11094648 -1.02558677
v 0.29223261 -0.12104671 -0.99484239
v 0.31361802 -0.12990484 -0.96158560
v 0.33178530 -0.13742997 -0.92615766
v 0.34654800 -0.14354488 -0.88892210
v 0.35775465 -0.14818683 -0.85026101
v 0.36529026 -0.15130818 -0.81057111
v 0.36907750 -0.15287690 -0.77025967
v 0.36907750 -0.15287690 0.77025967
v 0.36529026 -0.15130818 0.81057111
v 0.35775465 -0.14818683 0.85026101
v 0.34654800 -0.14354488 0.88892210
v 0.33178530 -0.13742997 0.92615766
v 0.31361802 -0.12990484 0.96158560
v 0.29223261 -0.12104671 0.99484239
v 0.26784849 -0.11094648 1.02558677
v 0.24071588 -0.09970778 1.05350325
v 0.21111320 -0.08744595 1.07830538
v 0.17934422 -0.07428681 1.09973865
v 0.14573492 -0.06036538 1.11758312
v 0.11063018 -0.04582452 1.13165570
v 0.07439023 -0.03081344 1.14181198
v 0.03738694 -0.01548618 1.14794773
f 2 1 33
f 2 33 3
f 3 33 34
f 3 34 4
f 4 34 35
f 4 35 5
f 5 35 36
f 5 36 6
f 6 36 37
f 6 37 7
f 7 37 38
f 7 38 8
f 8 38 39
f 8 39 9
f 9 39 40
f 9 40 10
f 10 40 41
f 10 41 11
f 11 41 42
f 11 42 12
f 12 42 43
f 12 43 13
f 13 43 44
f 13 44 14
f 14 44 45
f 14 45 15
f 15 45 46
f 15 46 16
f 16 46 47
f 16 47 17
f 17 47 48
f 17 48 18
f 18 48 49
f 18 49 19
f 19 49 50
f 19 50 20
f 20 50 51
f 20 51 21
f 21 51 52
f 21 52 22
f 22 52 53
f 22 53 23
f 23 53 54
f 23 54 24
f 24 54 55
f 24 55 25
f 25 55 56
f 25 56 26
f 26 56 57
f 26 57 27
f 27 57 58
f 27 58 28
f 28 58 59
f 28 59 29
f 29 59 60
f 29 60 30
f 30 60 61
f 30 61 31
f 31 61 62
f 31 62 32
f 33 1 63
f 33 63 34
f 34 63 64
f 34 64 35
f 35 64 65
f 35 65 36
f 36 65 66
f 36 66 37
f 37 66 67
f 37 67 38
f 38 67 68
f 38 68 39
f 39 68 69
f 39 69 40
f 40 69 70
f 40 70 41
f 41 70 71
f 41 71 42
f 42 71 72
f 42 72 43
f 43 72 73
f 43 73 44
f 44 73 74
f 44 74 45
f 45 74 75
f 45 75 46
f 46 75 76
f 46 76 47
f 47 76 77
f 47 77 48
f 48 77 78
f 48 78 49
f 49 78 79
f 49 79 50
f 50 79 80
f 50 80 51
f 51 80 81
f 51 81 52
f 52 81 82
f 52 82 53
f 53 82 83
f 53 83 54
f 54 83 84
f 54 84 55
f 55 84 85
f 55 85 56
f 56 85 86
f 56 86 57
f 57 86 87
f 57 87 58
f 58 87 88
f 58 88 59
f 59 88 89
f 59 89 60
f 60 89 90
f 60 90 61
f 61 90 91
f 61 91 62
f 62 91 92
f 62 92 32
f 63 1 93
f 63 93 64
f 64 93 94
f 64 94 65
f 65 94 95
f 65 95 66
f 66 95 96
f 66 96 67
f 67 96 97
f 67 97 68
f 68 97 98
f 68 98 69
f 69 98 99
f 69 99 70
f 70 99 100
f 70 100 71
f 71 100 101
f 71 101 72
f 72 101 102
f 72 102 73
f 73 102 103
f 73 103 74
f 74 103 104
f 74 104 75
f 75 104 105
f 75 105 76
f 76 105 106
f 76 106 77
f 77 106 107
f 77 107 78
f 78 107 108
f 78 108 79
f 79 108 109
f 79 109 80
f 80 109 110
f 80 110 81
f 81 110 111
f 81 111 82
f 82 111 112
f 82 112 83
f 83 112 113
f 83 113 84
f 84 113 114
f 84 114 85
f 85 114 115
f 85 115 86
f 86 115 116
f 86 116 87
f 87 116 117
f 87 117 88
f 88 117 118
f 88 118 89
f 89 118 119
f 89 119 90
f 90 119 120
f 90 120 91
f 91 120 121
f 91 121 92
f 92 121 122
f 92 122 32
f 93 1 123
f 93 123 94
f 94 123 124
f 94 124 95
f 95 124 125
f 95 125 96
f 96 125 126
f 96 126 97
f 97 126 127
f 97 127 98
f 98 127 128
f 98 128 99
f 99 128 129
f 99 129 100
f 100 129 130
f 100 130 101
f 101 130 131
f 101 131 102
f 102 131 132
f 102 132 103
f 103 132 133
f 103 133 104
f 104 133 134
f 104 134 105
f 105 134 135
f 105 135 106
f 106 135 136
f 106 136 107
f 107 136 137
f 107 137 108
f 108 137 138
f 108 138 109
f 109 138 139
f 109 139 110
f 110 139 140
f 110 140 111
f 111 140 141
f 111 141 112
f 112 141 142
f 112 142 113
f 113 142 143
f 113 143 114
f 114 143 144
f 114 144 115
f 115 144 145
f 115 145 116
f 116 145 146
f 116 146 117
f 117 146 147
f 117 147 118
f 118 147 148
f 118 148 119
f 119 148 149
f 119 149 120
f 120 149 150
f 120 150 121
f 121 150 151
f 121 151 122
f 122 151 152
f 122 152 32
f 123 1 153
f 123 153 124
f 124 153 154
f 124 154 125
f 125 154 155
f 125 155 126
f 126 155 156
f 126 156 127
f 127 156 157
f 127 157 128
f 128 157 158
f 128 158 129
f 129 158 159
f 129 159 130
f 130 159 160
f 130 160 131
f 131 160 161
f 131 161 132
f 132 161 162
f 132 162 133
f 133 162 163
f 133 163 134
f 134 163 164
f 134 164 135
f 135 164 165
f 135 165 136
f 136 165 166
f 136 166 137
f 137 166 167
f 137 167 138
f 138 167 168
f 138 168 139
f 139 168 169
f 139 169 140
f 140 169 170
f 140 170 141
f 141 170 171
f 141 171 142
f 142 171 172
f 142 172 143
f 143 172 173
f 143 173 144
f 144 173 174
f 144 174 145
f 145 174 175
f 145 175 146
f 146 175 176
f 146 176 147
f 147 176 177
f 147 177 148
f 148 177 178
f 148 178 149
f 149 178 179
f 149 179 150
f 150 179 180
f 150 180 151
f 151 180 181
f 151 181 152
f 152 181 182
f 152 182 32
f 153 1 183
f 153 183 154
f 154 183 184
f 154 184 155
f 155 184 185
f 155 185 156
f 156 185 186
f 156 186 157
f 157 186 187
f 157 187 158
f 158 187 188
f 158 188 159
f 159 188 189
f 159 189 160
f 160 189 190
f 160 190 161
f 161 190 191
f 161 191 162
f 162 191 192
f 162 192 163
f 163 192 193
f 163 193 164
f 164 193 194
f 164 194 165
f 165 194 195
f 165 195 166
f 166 195 196
f 166 196 167
f 167 196 197
f 167 197 168
f 168 197 198
f 168 198 169
f 169 198 199
f 169 199 170
f 170 199 200
f 170 200 171
f 171 200 201
f 171 201 172
f 172 201 202
f 172 202 173
f 173 202 203
f 173 203 174
f 174 203 204
f 174 204 175
f 175 204 205
f 175 205 176
f 176 205 206
f 176 206 177
f 177 206 207
f 177 207 178
f 178 207 208
f 178 208 179
f 179 208 209
f 179 209 180
f 180 209 210
f 180 210 181
f 181 210 211
f 181 211 182
f 182 211 212
f 182 212 32
f 183 1 213
f 183 213 184
f 184 213 214
f 184 214 185
f 185 214 215
f 185 215 186
f 186 215 216
f 186 216 187
f 187 216 217
f 187 217 188
f 188 217 218
f 188 218 189
f 189 218 219
f 189 219 190
f 190 219 220
f 190 220 191
f 191 220 221
f 191 221 192
f 192 221 222
f 192 222 193
f 193 222 223
f 193 223 194
f 194 223 224
f 194 224 195
f 195 224 225
f 195 225 196
f 196 225 226
f 196 226 197
f 197 226 227
f 197 227 198
f 198 227 228
f 198 228 199
f 199 228 229
f 199 229 200
f 200 229 230
f 200 230 201
f 201 230 231
f 201 231 202
f 202 231 232
f 202 232 203
f 203 232 233
f 203 233 204
f 204 233 234
f 204 234 205
f 205 234 235
f 205 235 206
f 206 235 236
f 206 236 207
f 207 236 237
f 207 237 208
f 208 237 238
f 208 238 209
f 209 238 239
f 209 239 210
f 210 239 240
f 210 240 211
f 211 240 241
f 211 241 212
f 212 241 242
f 212 242 32
f 213 1 243
f 213 243 214
f 214 243 244
f 214 244 215
f 215 244 245
f 215 245 216
f 216 245 246
f 216 246 217
f 217 246 247
f 217 247 218
f 218 247 248
f 218 248 219
f 219 248 249
f 219 249 220
f 220 249 250
f 220 250 221
f 221 250 251
f 221 251 222
f 222 251 252
f 222 252 223
f 223 252 253
f 223 253 224
f 224 253 254
f 224 254 225
f 225 254 255
f 225 255 226
f 226 255 256
f 226 256 227
f 227 256 257
f 227 257 228
f 228 257 258
f 228 258 229
f 229 258 259
f 229 259 230
f 230 259 260
f 230 260 231
f 231 260 261
f 231 261 232
f 232 261 262
f 232 262 233
f 233 262 263
f 233 263 234
f 234 263 264
f 234 264 235
f 235 264 265
f 235 265 236
f 236 265 266
f 236 266 237
f 237 266 267
f 237 267 238
f 238 267 268
f 238 268 239
f 239 268 269
f 239 269 240
f 240 269 270
f 240 270 241
f 241 270 271
f 241 271 242
f 242 271 272
f 242 272 32
f 243 1 273
f 243 273 244
f 244 273 274
f 244 274 245
f 245 274 275
f 245 275 246
f 246 275 276
f 246 276 247
f 247 276 277
f 247 277 248
f 248 277 278
f 248 278 249
f 249 278 279
f 249 279 250
f 250 279 280
f 250 280 251
f 251 280 281
f 251 281 252
f 252 281 282
f 252 282 253
f 253 282 283
f 253 283 254
f 254 283 284
f 254 284 255
f 255 284 285
f 255 285 256
f 256 285 286
f 256 286 257
f 257 286 287
f 257 287 258
f 258 287 288
f 258 288 259
f 259 288 289
f 259 289 260
f 260 289 290
f 260 290 261
f 261 290 291
f 261 291 262
f 262 291 292
f 262 292 263
f 263 292 293
f 263 293 264
f 264 293 294
f 264 294 265
f 265 294 295
f 265 295 266
f 266 295 296
f 266 296 267
f 267 296 297
f 267 297 268
f 268 297 298
f 268 298 269
f 269 298 299
f 269 299 270
f 270 299 300
f 270 300 271
f 271 300 301
f 271 301 272
f 272 301 302
f 272 302 32
f 273 1 303
f 273 303 274
f 274 303 304
f 274 304 275
f 275 304 305
f 275 305 276
f 276 305 306
f 276 306 277
f 277 306 307
f 277 307 278
f 278 307 308
f 278 308 279
f 279 308 309
f 279 309 280
f 280 309 310
f 280 310 281
f 281 310 311
f 281 311 282
f 282 311 312
f 282 312 283
f 283 312 313
f 283 313 284
f 284 313 314
f 284 314 285
f 285 314 315
f 285 315 286
f 286 315 316
f 286 316 287
f 287 316 317
f 287 317 288
f 288 317 318
f 288 318 289
f 289 318 319
f 289 319 290
f 290 319 320
f 290 320 291
f 291 320 321
f 291 321 292
f 292 321 322
f 292 322 293
f 293 322 323
f 293 323 294
f 294 323 324
f 294 324 295
f 295 324 325
f 295 325 296
f 296 325 326
f 296 326 297
f 297 326 327
f 297 327 298
f 298 327 328
f 298 328 299
f 299 328 329
f 299 329 300
f 300 329 330
f 300 330 301
f 301 330 331
f 301 331 302
f 302 331 332
f 302 332 32
f 303 1 333
f 303 333 304
f 304 333 334
f 304 334 305
f 305 334 335
f 305 335 306
f 306 335 336
f 306 336 307
f 307 336 337
f 307 337 308
f 308 337 338
f 308 338 309
f 309 338 339
f 309 339 310
f 310 339 340
f 310 340 311
f 311 340 341
f 311 341 312
f 312 341 342
f 312 342 313
f 313 342 343
f 313 343 314
f 314 343 344
f 314 344 315
f 315 344 345
f 315 345 316
f 316 345 346
f 316 346 317
f 317 346 347
f 317 347 318
f 318 347 348
f 318 348 319
f 319 348 349
f 319 349 320
f 320 349 350
f 320 350 321
f 321 350 351
f 321 351 322
f 322 351 352
f 322 352 323
f 323 352 353
f 323 353 324
f 324 353 354
f 324 354 325
f 325 354 355
f 325 355 326
f 326 355 356
f 326 356 327
f 327 356 357
f 327 357 328
f 328 357 358
f 328 358 329
f 329 358 359
f 329 359 330
f 330 359 360
f 330 360 331
f 331 360 361
f 331 361 332
f 332 361 362
f 332 362 32
f 333 1 363
f 333 363 334
f 334 363 364
f 334 364 335
f 335 364 365
f 335 365 336
f 336 365 366
f 336 366 337
f 337 366 367
f 337 367 338
f 338 367 368
f 338 368 339
f 339 368 369
f 339 369 340
f 340 369 370
f 340 370 341
f 341 370 371
f 341 371 342
f 342 371 372
f 342 372 343
f 343 372 373
f 343 373 344
f 344 373 374
f 344 374 345
f 345 374 375
f 345 375 346
f 346 375 376
f 346 376 347
f 347 376 377
f 347 377 348
f 348 377 378
f 348 378 349
f 349 378 379
f 349 379 350
f 350 379 380
f 350 380 351
f 351 380 381
f 351 381 352
f 352 381 382
f 352 382 353
f 353 382 383
f 353 383 354
f 354 383 384
f 354 384 355
f 355 384 385
f 355 385 356
f 356 385 386
f 356 386 357
f 357 386 387
f 357 387 358
f 358 387 388
f 358 388 359
f 359 388 389
f 359 389 360
f 360 389 390
f 360 390 361
f 361 390 391
f 361 391 362
f 362 391 392
f 362 392 32
f 363 1 393
f 363 393 364
f 364 393 394
f 364 394 365
f 365 394 395
f 365 395 366
f 366 395 396
f 366 396 367
f 367 396 397
f 367 397 368
f 368 397 398
f 368 398 369
f 369 398 399
f 369 399 370
f 370 399 400
f 370 400 371
f 371 400 401
f 371 401 372
f 372 401 402
f 372 402 373
f 373 402 403
f 373 403 374
f 374 403 404
f 374 404 375
f 375 404 405
f 375 405 376
f 376 405 406
f 376 406 377
f 377 406 407
f 377 407 378
f 378 407 408
f 378 408 379
f 379 408 409
f 379 409 380
f 380 409 410
f 380 410 381
f 381 410 411
f 381 411 382
f 382 411 412
f 382 412 383
f 383 412 413
f 383 413 384
f 384 413 414
f 384 414 385
f 385 414 415
f 385 415 386
f 386 415 416
f 386 416 387
f 387 416 417
f 387 417 388
f 388 417 418
f 388 418 389
f 389 418 419
f 389 419 390
f 390 419 420
f 390 420 391
f 391 420 421
f 391 421 392
f 392 421 422
f 392 422 32
f 393 1 423
f 393 423 394
f 394 423 424
f 394 424 395
f 395 424 425
f 395 425 396
f 396 425 426
f 396 426 397
f 397 426 427
f 397 427 398
f 398 427 428
f 398 428 399
f 399 428 429
f 399 429 400
f 400 429 430
f 400 430 401
f 401 430 431
f 401 431 402
f 402 431 432
f 402 432 403
f 403 432 433
f 403 433 404
f 404 433 434
f 404 434 405
f 405 434 435
f 405 435 406
f 406 435 436
f 406 436 407
f 407 436 437
f 407 437 408
f 408 437 438
f 408 438 409
f 409 438 439
f 409 439 410
f 410 439 440
f 410 440 411
f 411 440 441
f 411 441 412
f 412 441 442
f 412 442 413
f 413 442 443
f 413 443 414
f 414 443 444
f 414 444 415
f 415 444 445
f 415 445 416
f 416 445 446
f 416 446 417
f 417 446 447
f 417 447 418
f 418 447 448
f 418 448 419
f 419 448 449
f 419 449 420
f 420 449 450
f 420 450 421
f 421 450 451
f 421 451 422
f 422 451 452
f 422 452 32
f 423 1 453
f 423 453 424
f 424 453 454
f 424 454 425
f 425 454 455
f 425 455 426
f 426 455 456
f 426 456 427
f 427 456 457
f 427 457 428
f 428 457 458
f 428 458 429
f 429 458 459
f 429 459 430
f 430 459 460
f 430 460 431
f 431 460 461
f 431 461 432
f 432 461 462
f 432 462 433
f 433 462 463
f 433 463 434
f 434 463 464
f 434 464 435
f 435 464 465
f 435 465 436
f 436 465 466
f 436 466 437
f 437 466 467
f 437 467 438
f 438 467 468
f 438 468 439
f 439 468 469
f 439 469 440
f 440 469 470
f 440 470 441
f 441 470 471
f 441 471 442
f 442 471 472
f 442 472 443
f 443 472 473
f 443 473 444
f 444 473 474
f 444 474 445
f 445 474 475
f 445 475 446
f 446 475 476
f 446 476 447
f 447 476 477
f 447 477 448
f 448 477 478
f 448 478 449
f 449 478 479
f 449 479 450
f 450 479 480
f 450 480 451
f 451 480 481
f 451 481 452
f 452 481 482
f 452 482 32
f 453 1 2
f 453 2 454
f 454 2 3
f 454 3 455
f 455 3 4
f 455 4 456
f 456 4 5
f 456 5 457
f 457 5 6
f 457 6 458
f 458 6 7
f 458 7 459
f 459 7 8
f 459 8 460
f 460 8 9
f 460 9 461
f 461 9 10
f 461 10 462
f 462 10 11
f 462 11 463
f 463 11 12
f 463 12 464
f 464 12 13
f 464 13 465
f 465 13 14
f 465 14 466
f 466 14 15
f 466 15 467
f 467 15 16
f 467 16 468
f 468 16 17
f 468 17 469
f 469 17 18
f 469 18 470
f 470 18 19
f 470 19 471
f 471 19 20
f 471 20 472
f 472 20 21
f 472 21 473
f 473 21 22
f 473 22 474
f 474 22 23
f 474 23 475
f 475 23 24
f 475 24 476
f 476 24 25
f 476 25 477
f 477 25 26
f 477 26 478
f 478 26 27
f 478 27 479
f 479 27 28
f 479 28 480
f 480 28 29
f 480 29 481
f 481 29 30
f 481 30 482
f 482 30 31
f 482 31 32

