OFF
427 850 0
0.0018502693 -0.0167976393 -0.6442049733
0.0033623090 -0.0159464459 -0.5959408518
0.0042275587 -0.0134370734 -0.5201203825
0.0042736490 -0.0126078572 -0.4990226638
0.0037321735 -0.0068497649 -0.3643439634
0.0030127856 -0.0038856084 -0.2997918015
0.0020685630 -0.0014283123 -0.0889096408
0.0024497926 -0.0021531192 0.0137748797
0.0024466995 -0.0020317341 -0.0056638480
0.0024507759 -0.0023483406 0.0449596414
0.0058476271 -0.0015056842 0.2086249825
0.0141083901 -0.0005208440 0.3720578902
0.0283316882 0.0021059580 0.5188880640
0.0428851586 0.0071418809 0.6166141556
0.0438661553 0.0075993947 0.6226427635
0.0012485926 -0.0168041094 -0.6559762196
0.0024484071 -0.0020516337 -0.0024511086
0.0049977299 -0.0016387424 0.1784524592
0.0148666774 -0.0004187829 0.3824049907
0.0018927096 -0.0008106534 -0.1944275572
0.0092290422 -0.0011093814 0.2918897373
0.0019329708 -0.0011740819 -0.1270776199
0.0160518149 -0.0002497762 0.3975436261
0.0024233772 -0.0019356954 -0.0200899895
0.0041894665 -0.0099730036 -0.4353192608
0.0019938120 -0.0012986803 -0.1079045516
0.0024785571 -0.0022736795 0.0371074982
0.0087683195 -0.0011602019 0.2825732847
0.0018800422 -0.0010308133 -0.1504707863
0.0024495997 -0.0022057993 0.0222428901
0.0066700224 -0.0013980924 0.2332944862
0.0020310382 -0.0007317053 -0.2201850157
0.0022441446 -0.0016919022 -0.0523902379
0.0031279923 -0.0020800440 0.0890319776
0.0224765065 0.0008321255 0.4670629098
0.0380886687 0.0052003900 0.5864471337
0.0018727044 -0.0010001303 -0.1557930467
0.0024500057 -0.0021816728 0.0184140047
0.0234622174 0.0010208307 0.4765710757
0.0018774969 -0.0008390361 -0.1875099852
0.0019038500 -0.0011059978 -0.1378846721
0.0062388745 -0.0014533980 0.2206420445
0.0018676694 -0.0008724575 -0.1800984764
0.0025323913 -0.0165826789 -0.6262954904
0.0038150631 -0.0152015931 -0.5700404062
0.0034505231 -0.0055900538 -0.3367017932
0.0018720746 -0.0008555424 -0.1837945649
0.0036393812 -0.0019249372 0.1182090563
0.0013275477 -0.0168288946 -0.6550520318
0.0015617808 -0.0168100242 -0.6500597181
0.0028848089 -0.0163904569 -0.6152261235
0.0042790948 -0.0116672839 -0.4757839884
0.0018695705 -0.0009748125 -0.1604211821
0.0022253178 -0.0016655250 -0.0559242594
0.0485397518 0.0099722510 0.6511772231
0.0354929291 0.0042833550 0.5695337426
0.0502105631 0.0108925036 0.6613536691
0.0023120848 -0.0017869211 -0.0396826574
0.0059589672 -0.0014896903 0.2123016409
0.0176030610 -0.0000120622 0.4158571150
0.0033572092 -0.0020053296 0.1027910831
0.0073648298 -0.0013158193 0.2513176464
0.0320204131 0.0031207707 0.5463616722
0.0022890444 -0.0166852624 -0.6333380705
0.0039511844 -0.0148361316 -0.5588619036
0.0042363660 -0.0106138800 -0.4504491779
0.0019536857 -0.0012188465 -0.1200967633
0.0457830479 0.0085525272 0.6343600696
0.0082681623 -0.0012152749 0.2718618391
0.0312861615 0.0029066813 0.5411022193
0.0044643686 -0.0017403396 0.1563877922
0.0133805770 -0.0006153584 0.3616794269
0.0421745881 0.0068216287 0.6122312080
0.0519523797 0.0118827507 0.6719897196
0.0170862466 -0.0000942279 0.4099975795
0.0021076794 -0.0014915745 -0.0798647088
0.0029746053 -0.0021353110 0.0791602364
0.0078010366 -0.0012670525 0.2613760284
0.0011124455 -0.0168100452 -0.6587320587
0.0032194025 -0.0160852030 -0.6017811985
0.0038823055 -0.0076505071 -0.3821876713
0.0125388292 -0.0007232243 0.3494723830
0.0024397780 -0.0020103584 -0.0088042889
0.0019709710 -0.0012547492 -0.1145514402
0.0026813396 -0.0022489236 0.0597039637
0.0040669257 -0.0088986189 -0.4105119786
0.0018642161 -0.0009195052 -0.1706662940
0.0028198863 -0.0021929909 0.0688744954
0.0476409066 0.0095014697 0.6456974104
0.0413991642 0.0064921960 0.6074089527
0.0024248815 -0.0019655728 -0.0153771395
0.0107814823 -0.0009345342 0.3210687446
0.0019126880 -0.0007823038 -0.2017166022
0.0255773401 0.0014466321 0.4962661047
0.0024504323 -0.0021981695 0.0211386426
0.0039719422 -0.0082749786 -0.3963867318
0.0037242025 -0.0019018879 0.1226985348
0.0035201467 -0.0157423326 -0.5882120521
0.0042869605 -0.0118536930 -0.4802586607
0.0042261090 -0.0103653521 -0.4444818378
0.0039002865 -0.0077518334 -0.3844594744
0.0026998137 -0.0027214137 -0.2747626449
0.0019998754 -0.0013096553 -0.1062734538
0.0024188448 -0.0019456211 -0.0183323251
0.0024742698 -0.0022962506 0.0400600993
0.0121940965 -0.0007662977 0.3442687952
0.0302629432 0.0026129467 0.5336880273
0.0408109606 0.0062424036 0.6037523757
0.0020707872 -0.0167617569 -0.6392187701
0.0021349073 -0.0015342216 -0.0738423751
0.0024486103 -0.0020832778 0.0026200050
0.0018774938 -0.0008390347 -0.1875102758
0.0082625214 -0.0012158777 0.2716625851
0.0027937918 -0.0022036195 0.0672584046
0.0019083291 -0.0011174070 -0.1360426709
0.0019599203 -0.0007498985 -0.2117849180
0.0246615550 0.0012552262 0.4879713011
0.0535975854 0.0128974732 0.6821684467
0.0005345349 -0.0167385849 -0.6684472771
0.0018953689 -0.0167958946 -0.6433805008
0.0029808225 -0.0037538324 -0.2969372540
0.0438762581 0.0076051757 0.6227035408
0.0038966727 -0.0150009374 -0.5637642212
0.0034588027 -0.0056172248 -0.3372779610
0.0021097971 -0.0006708850 -0.2279746260
0.0021648178 -0.0015786215 -0.0677182217
0.0024488811 -0.0021037228 0.0058879460
0.0068932850 -0.0013706227 0.2394681516
0.0295717375 0.0024250509 0.5285099055
0.0485397396 0.0099721903 0.6511776425
0.0056439384 -0.0015336808 0.2021711922
0.0024682163 -0.0022511725 0.0321872364
0.0019078333 -0.0011148781 -0.1364893190
0.0141083687 -0.0005208429 0.3720578631
0.0263002435 0.0016050926 0.5025930529
0.0024265139 -0.0019685479 -0.0149629652
0.0160614760 -0.0002518722 0.3979870339
0.0019659339 -0.0007482950 -0.2125101029
0.0029410918 -0.0021470559 0.0770116736
0.0019588876 -0.0007512691 -0.2114169603
0.0018678520 -0.0008740709 -0.1797975519
0.0019477893 -0.0012072061 -0.1218710384
0.0224183801 0.0008223481 0.4664403802
0.0549666602 0.0137980983 0.6907548374
0.0040720895 -0.0144059909 -0.5463445960
0.0033739604 -0.0052673953 -0.3296594201
0.0021123926 -0.0006941676 -0.2269185789
0.0020081903 -0.0013244051 -0.1040962152
0.0428143910 0.0071021990 0.6161892234
0.0024395411 -0.0020099303 -0.0088634554
0.0040493089 -0.0018235381 0.1385359834
0.0024783664 -0.0022803122 0.0381123870
0.0328324810 0.0033793478 0.5519195453
0.0149646547 -0.0004059496 0.3837758393
0.0018633735 -0.0009285506 -0.1688403899
0.0073354997 -0.0013190048 0.2506946462
0.0033643464 -0.0052296854 -0.3288454957
0.0034541530 -0.0019735101 0.1086374928
0.0243039442 0.0011817802 0.4846914606
0.0108935935 -0.0009218776 0.3231340900
0.0068760430 -0.0013724156 0.2391059882
0.0029772814 -0.0163345453 -0.6121191657
0.0041951482 -0.0100633655 -0.4374578701
0.0523082820 0.0120841625 0.6741612781
-0.0003063649 -0.0165906278 -0.6804067515
0.0037384240 -0.0153789376 -0.5756477948
0.0262089964 0.0015870603 0.5017347825
0.0018358780 -0.0168165194 -0.6450551782
0.0021216055 -0.0007158576 -0.2280074503
0.0055971317 -0.0015418559 0.2003498565
0.0181276412 0.0000703415 0.4218876583
0.0311658891 0.0028699710 0.5402616666
0.0022843059 -0.0017484657 -0.0447854442
0.0024623375 -0.0022365196 0.0290080889
0.0032262653 -0.0046773970 -0.3168596882
0.0021821708 -0.0016047191 -0.0640960060
0.0405683475 0.0061509828 0.6022027713
0.0019112143 -0.0007827525 -0.2015170532
0.0020324789 -0.0007312133 -0.2203902170
0.0104841751 -0.0009692619 0.3160171230
0.0018624835 -0.0009125573 -0.1718610309
0.0042626382 -0.0133244203 -0.5168197031
0.0518465246 0.0118062503 0.6713130090
0.0039368925 -0.0018469864 0.1335642525
0.0040049280 -0.0084125774 -0.3993708341
0.0024477697 -0.0020518550 -0.0024226939
0.0120915337 -0.0007790368 0.3427079248
0.0042421881 -0.0135107633 -0.5217221438
0.0024483579 -0.0020748718 0.0012722697
0.0274995502 0.0018956463 0.5123323427
0.0019090068 -0.0007834247 -0.2012175572
0.0048763210 -0.0016582126 0.1740342605
0.0023204440 -0.0017979163 -0.0382172474
0.0161185960 -0.0002442635 0.3987614029
0.0335227459 0.0035953967 0.5566840878
0.0020723756 -0.0014359687 -0.0877363278
0.0020346488 -0.0007304807 -0.2206968579
0.0024551907 -0.0022172281 0.0248948401
0.0200101798 0.0003856012 0.4421871873
0.0018769381 -0.0010251253 -0.1513203772
0.0032452989 -0.0020383482 0.0965222577
0.0021632873 -0.0015779004 -0.0677154306
0.0004201587 -0.0167281695 -0.6700464943
0.0098305529 -0.0010425681 0.3037417658
0.0041386754 -0.0141600706 -0.5392763481
0.0093637445 -0.0010945387 0.2947200623
0.0276905676 0.0019410486 0.5139039654
0.0033454479 -0.0020040404 0.1027468995
0.0020563261 -0.0014095768 -0.0915332103
0.0018809178 -0.0010403804 -0.1487010813
0.0206699827 0.0004997745 0.4491047285
0.0036828343 -0.0066336127 -0.3596097353
0.0329526707 0.0034047572 0.5528809629
0.0023980825 -0.0019077878 -0.0235959245
0.0050438985 -0.0016275960 0.1807510737
0.0182891255 0.0000979931 0.4235937718
0.0203583430 0.0004454560 0.4458567690
0.0386266110 0.0053893523 0.5899537952
0.0039577507 -0.0018435924 0.1343525962
0.0114906363 -0.0008513994 0.3330619061
0.0378527490 0.0050998621 0.5850054064
0.0042738932 -0.0118459125 -0.4802589560
0.0042094612 -0.0105988234 -0.4504498362
0.0034466933 -0.0055886853 -0.3367018952
0.0033584736 -0.0052277073 -0.3288456570
0.0020087990 -0.0013246706 -0.1040962194
0.0024397945 -0.0020103872 -0.0088042891
0.0056145202 -0.0015421789 0.2003493681
0.0275200691 0.0019075555 0.5123294433
0.0414005484 0.0064980788 0.6074083181
0.0018261971 -0.0167743561 -0.6442038511
0.0024486953 -0.0020833099 0.0026200048
0.0149717480 -0.0004041047 0.3837752756
0.0093795814 -0.0010924265 0.2947192070
0.0019554207 -0.0012195736 -0.1200967736
0.0176133359 -0.0000089706 0.4158561982
0.0024262605 -0.0019658940 -0.0153771424
0.0028025206 -0.0021970961 0.0672582942
0.0018758714 -0.0010014795 -0.1557930566
0.0024622647 -0.0022366669 0.0290080883
0.0068940336 -0.0013715670 0.2391052907
0.0020362129 -0.0007277092 -0.2206968205
0.0022850845 -0.0017487861 -0.0447854508
0.0033568912 -0.0020052788 0.1027910881
0.0206826285 0.0005046541 0.4491033764
0.0335567271 0.0036302678 0.5566770757
0.0024521855 -0.0021966208 0.0211386497
0.0018728505 -0.0008559139 -0.1837945656
0.0018821845 -0.0010408914 -0.1487010869
0.0018800644 -0.0167804652 -0.6433804292
0.0039649408 -0.0018444072 0.1343524553
0.0011096982 -0.0168040855 -0.6587318558
0.0018643548 -0.0009289955 -0.1688403929
0.0519526126 0.0118821160 0.6719897405
0.0078061296 -0.0012666618 0.2613758021
0.0320300502 0.0031290101 0.5463599603
0.0048841212 -0.0016586796 0.1740340772
0.0121975725 -0.0007655723 0.3442685527
0.0021352440 -0.0015343658 -0.0738423777
0.0038971138 -0.0077506175 -0.3844595486
0.0019605413 -0.0007517394 -0.2114169536
0.0041889906 -0.0100600747 -0.4374580457
0.0032120284 -0.0160784594 -0.6017811981
0.0234736998 0.0010259991 0.4765697755
0.0040608905 -0.0143969453 -0.5463447759
0.0042533938 -0.0116524000 -0.4757846227
0.0021258316 -0.0007418021 -0.2280062619
0.0021096465 -0.0014924673 -0.0798647240
0.0024395125 -0.0020099402 -0.0088634554
0.0066839667 -0.0013976591 0.2332940115
0.0275141509 0.0019043891 0.5123302784
0.0476428311 0.0095232572 0.6456953114
0.0003533428 -0.0166811997 -0.6700418312
0.0040564010 -0.0018241607 0.1385358191
0.0093762435 -0.0010929482 0.2947193837
0.0019551229 -0.0012194477 -0.1200967719
0.0023212943 -0.0017982627 -0.0382172548
0.0019047177 -0.0011063518 -0.1378846759
0.0024484377 -0.0020832862 0.0026200050
0.0234700720 0.0010245140 0.4765701847
0.0405765517 0.0061712000 0.6022002297
0.0018778843 -0.0010255147 -0.1513203805
0.0203783780 0.0004533555 0.4458546116
0.0018725686 -0.0008557903 -0.1837945653
0.0042348808 -0.0134408376 -0.5201203113
0.0033592124 -0.0020055656 0.1027910480
0.0078070871 -0.0012665944 0.2613757597
0.0328293959 0.0033763495 0.5519201322
0.0020616138 -0.0167511364 -0.6392185343
0.0041728274 -0.0100518638 -0.4374584769
0.0020007737 -0.0013100414 -0.1062734594
0.0303093696 0.0026458753 0.5336807596
0.0148663811 -0.0004189410 0.3824050134
0.0535872803 0.0129216066 0.6821676387
0.0176046368 -0.0000113888 0.4158569661
0.0027952080 -0.0022048104 0.0672583902
0.0038985178 -0.0077512628 -0.3844595100
0.0122064070 -0.0007638736 0.3442679899
0.0028019433 -0.0021975786 0.0672583020
0.0024561148 -0.0022164746 0.0248948423
0.0024719995 -0.0022793446 0.0371074708
0.0386333069 0.0054013347 0.5899520083
0.0019581749 -0.0007510758 -0.2114169631
0.0020320751 -0.0007311479 -0.2203902203
0.0107803796 -0.0009347312 0.3210688063
0.0042029050 -0.0134214218 -0.5201209034
0.0026980588 -0.0027651517 -0.2747607091
0.0021083897 -0.0014918900 -0.0798647144
0.0024474745 -0.0020518917 -0.0024226941
0.0026783461 -0.0022525618 0.0597040335
0.0066799540 -0.0013978260 0.2332941477
0.0476428963 0.0095233357 0.6456952943
0.0019541484 -0.0012190379 -0.1200967663
0.0023204088 -0.0017980485 -0.0382172482
0.0020000403 -0.0013097291 -0.1062734549
0.0019050597 -0.0011064884 -0.1378846774
0.0068922619 -0.0013716807 0.2391053590
0.0020334139 -0.0007312896 -0.2203902063
0.0234621573 0.0010207160 0.4765710842
0.0405672371 0.0061491134 0.6022030585
0.0018725703 -0.0008557904 -0.1837945653
0.0019090106 -0.0011176837 -0.1360426746
0.0018696820 -0.0008750164 -0.1797975554
0.0034574261 -0.0019739049 0.1086374326
0.0042236041 -0.0106070548 -0.4504494914
0.0200212162 0.0003894757 0.4421861146
0.0078086267 -0.0012664106 0.2613756908
0.0040517932 -0.0018237554 0.1385359270
0.0175994836 -0.0000131222 0.4158574414
0.0092627072 -0.0011053774 0.2918881033
0.0012529809 -0.0168075051 -0.6559764402
0.0121947419 -0.0007661587 0.3442687447
0.0024396439 -0.0020099552 -0.0088634558
0.0405720129 0.0061631784 0.6022014575
0.0019581941 -0.0007510827 -0.2114169630
0.0262312681 0.0015993849 0.5017317734
0.0036411093 -0.0066168317 -0.3596108673
0.0038000107 -0.0151912690 -0.5700404874
0.0313073678 0.0029244611 0.5410984831
0.0523058976 0.0120925215 0.6741608225
0.0004220887 -0.0167187999 -0.6700465141
0.0049968567 -0.0016386579 0.1784524827
0.0019104715 -0.0007824805 -0.2015170560
0.0024679772 -0.0022520329 0.0321872327
0.0160589822 -0.0002526163 0.3979872339
0.0107824600 -0.0009343310 0.3210686854
0.0042489823 -0.0133157742 -0.5168200281
0.0056090089 -0.0015418785 0.2003495257
0.0024439651 -0.0020307393 -0.0056638377
0.0024630605 -0.0022362410 0.0290080888
0.0093778083 -0.0010927059 0.2947193464
0.0018752128 -0.0010011845 -0.1557930544
0.0020372217 -0.0007288521 -0.2206968146
0.0024484875 -0.0020832688 0.0026200051
0.0262066689 0.0015858285 0.5017350640
0.0019089042 -0.0011176395 -0.1360426740
0.0030145402 -0.0038856469 -0.2997917790
0.0018804942 -0.0008403593 -0.1875099838
0.0476413647 0.0095095747 0.6456966511
0.0380884875 0.0051994278 0.5864472136
0.0023194125 -0.0017978138 -0.0382172415
0.0066772017 -0.0013978432 0.2332942419
0.0031392281 -0.0020814600 0.0890318074
0.0041775041 -0.0100540201 -0.4374583628
0.0428866499 0.0071495030 0.6166133430
0.0020730363 -0.0014362585 -0.0877363328
0.0027947157 -0.0022044606 0.0672583955
0.0120990292 -0.0007776198 0.3427074581
0.0036526782 -0.0066213830 -0.3596105622
0.0021646054 -0.0015785189 -0.0677182200
0.0019047578 -0.0011063658 -0.1378846760
0.0535910209 0.0129111825 0.6821681162
0.0320374898 0.0031363669 0.5463585495
0.0107748025 -0.0009356260 0.3210691331
0.0200236912 0.0003906078 0.4421858462
0.0044678302 -0.0017406515 0.1563877135
0.0024488876 -0.0021037589 0.0058879458
0.0428865629 0.0071489877 0.6166133956
0.0019088135 -0.0011176023 -0.1360426735
0.0018744411 -0.0010008596 -0.1557930517
0.0058518072 -0.0015056303 0.2086248477
0.0018640703 -0.0009194531 -0.1706662938
0.0018802800 -0.0008402824 -0.1875099839
0.0042697754 -0.0126057297 -0.4990227482
0.0022453336 -0.0016925058 -0.0523902487
0.0036505731 -0.0019263211 0.1182088504
0.0041812499 -0.0100559338 -0.4374582647
0.0485391392 0.0099975749 0.6511750300
0.0073832264 -0.0013146440 0.2513168767
0.0024437108 -0.0020307793 -0.0056638380
0.0019534086 -0.0012187306 -0.1200967617
0.0029781508 -0.0021354598 0.0791601826
0.0024152455 -0.0019447955 -0.0183323075
0.0262022752 0.0015836180 0.5017356214
0.0030073574 -0.0038822342 -0.2997920247
0.0020575256 -0.0014100964 -0.0915332185
0.0120980250 -0.0007777908 0.3427075212
0.0020307960 -0.0007316719 -0.2201850177
0.0335544428 0.0036267740 0.5566776040
0.0182864464 0.0000970461 0.4235940359
0.0303021495 0.0026404333 0.5336818973
0.0020084881 -0.0013245336 -0.1040962173
0.0428837676 0.0071349951 0.6166149128
0.0024440435 -0.0020307612 -0.0056638380
0.0018792849 -0.0008398571 -0.1875099841
0.0019090262 -0.0011176877 -0.1360426746
0.0066754887 -0.0013979055 0.2332943013
0.0018733172 -0.0010003986 -0.1557930487
0.0335512360 0.0036235772 0.5566782524
0.0023199187 -0.0017979314 -0.0382172447
0.0058476578 -0.0015057377 0.2086249818
0.0414020661 0.0064990813 0.6074080274
0.0073842345 -0.0013146077 0.2513168348
0.0485402506 0.0099943320 0.6511751393
0.0029771238 -0.0037517342 -0.2969373977
0.0021078029 -0.0014916339 -0.0798647097
0.0022446821 -0.0016921432 -0.0523902426
0.0024482638 -0.0020749158 0.0012722695
0.0302739174 0.0026210260 0.5336862328
0.0274974224 0.0018943773 0.5123326420
0.0037295187 -0.0019024715 0.1226984336
0.0018688622 -0.0008746390 -0.1797975542
0.0022440330 -0.0016918397 -0.0523902369
0.0335325026 0.0036053033 0.5566820769
0.0485400589 0.0099882084 0.6511757149
0.0058446362 -0.0015056554 0.2086250755
0.0413990395 0.0064922006 0.6074089623
3 119 161 44
3 119 108 161
3 108 43 161
3 50 63 44
3 13 14 88
3 0 49 15
3 48 167 15
3 22 11 18
3 10 30 41
3 101 168 124
3 78 202 15
3 108 119 0
3 119 49 0
3 50 44 1
3 7 94 29
3 94 7 37
3 15 49 119
3 63 50 43
3 73 54 56
3 20 68 27
3 71 18 11
3 189 106 12
3 77 27 68
3 79 44 161
3 86 36 52
3 11 81 71
3 88 14 67
3 83 25 66
3 26 84 9
3 39 92 19
3 97 44 79
3 24 95 85
3 165 97 1
3 98 65 51
3 65 98 3
3 98 2 3
3 100 4 80
3 4 100 95
3 100 85 95
3 104 9 151
3 9 104 26
3 11 105 81
3 43 108 63
3 29 110 7
3 16 110 188
3 136 59 22
3 19 111 39
3 112 20 77
3 20 112 68
3 76 113 87
3 26 113 84
3 114 66 21
3 31 115 139
3 168 120 5
3 120 168 101
3 121 67 14
3 67 121 13
3 1 161 50
3 161 43 50
3 122 2 44
3 126 7 110
3 128 12 106
3 129 56 54
3 22 133 11
3 133 105 11
3 105 133 71
3 82 135 103
3 59 136 74
3 31 137 115
3 192 103 23
3 33 138 76
3 138 33 87
3 86 140 42
3 216 142 38
3 2 144 204
3 165 144 122
3 144 2 122
3 145 5 45
3 166 38 116
3 148 89 72
3 89 148 13
3 150 17 70
3 22 153 133
3 156 211 45
3 96 157 47
3 93 158 38
3 158 93 116
3 202 78 118
3 167 48 119
3 201 53 125
3 64 165 44
3 165 1 44
3 166 116 93
3 169 17 130
3 171 62 69
3 173 26 131
3 45 174 156
3 32 175 125
3 175 32 53
3 168 178 124
3 47 183 96
3 44 187 64
3 190 19 92
3 19 190 177
3 74 193 22
3 193 74 136
3 194 35 55
3 196 124 178
3 59 198 170
3 211 95 80
3 76 200 33
3 53 201 175
3 204 64 187
3 27 205 20
3 91 205 203
3 128 206 12
3 206 128 189
3 207 33 200
3 210 38 34
3 45 211 4
3 211 80 4
3 218 96 183
3 219 91 186
3 51 221 98
3 221 2 98
3 2 221 181
3 3 222 65
3 222 24 65
3 24 222 99
3 4 223 45
3 223 145 45
3 145 223 123
3 223 4 123
3 5 224 156
3 224 123 156
3 123 224 145
3 224 5 145
3 25 225 147
3 225 6 147
3 6 225 208
3 226 103 90
3 103 226 82
3 226 8 82
3 17 227 214
3 10 227 169
3 227 17 169
3 166 228 134
3 12 228 189
3 228 166 189
3 13 229 89
3 229 107 89
3 229 13 72
3 15 230 0
3 230 108 0
3 108 230 167
3 230 15 167
3 16 231 110
3 231 126 110
3 231 16 185
3 18 232 22
3 232 136 22
3 136 232 153
3 232 18 153
3 233 91 179
3 91 233 205
3 233 20 205
3 234 102 25
3 102 234 66
3 234 21 66
3 170 235 59
3 235 22 59
3 22 235 74
3 23 236 90
3 236 135 90
3 135 236 103
3 236 23 103
3 237 26 151
3 26 237 113
3 237 87 113
3 86 238 36
3 238 28 36
3 238 86 154
3 29 239 197
3 239 131 197
3 131 239 173
3 239 29 173
3 61 240 155
3 30 240 160
3 240 61 160
3 124 241 146
3 31 241 196
3 241 124 196
3 192 242 57
3 242 32 57
3 32 242 172
3 242 192 172
3 33 243 60
3 243 157 60
3 157 243 207
3 243 33 207
3 34 244 210
3 244 216 210
3 216 244 142
3 244 34 142
3 35 245 220
3 152 245 194
3 245 35 194
3 197 246 29
3 246 37 29
3 37 246 94
3 246 197 94
3 39 247 46
3 247 140 46
3 140 247 42
3 199 248 28
3 248 40 28
3 40 248 209
3 248 199 209
3 44 249 119
3 249 167 119
3 249 44 63
3 150 250 218
3 250 47 218
3 47 250 183
3 250 150 183
3 118 251 15
3 251 48 15
3 48 251 78
3 251 118 78
3 52 252 86
3 252 180 86
3 180 252 154
3 252 52 154
3 56 253 73
3 253 163 73
3 163 253 182
3 253 56 182
3 155 254 61
3 68 254 77
3 254 155 77
3 69 255 152
3 255 212 152
3 212 255 62
3 255 69 62
3 214 256 17
3 256 70 17
3 70 256 191
3 256 214 191
3 71 257 105
3 257 186 105
3 257 71 81
3 201 258 109
3 258 75 109
3 75 258 125
3 258 201 125
3 80 259 100
3 259 85 100
3 85 259 184
3 137 260 115
3 92 260 139
3 260 137 139
3 99 261 24
3 261 95 24
3 95 261 162
3 261 99 162
3 161 262 79
3 262 97 79
3 97 262 1
3 262 161 1
3 142 263 38
3 263 116 38
3 263 142 34
3 204 264 64
3 264 165 64
3 165 264 144
3 264 204 144
3 99 265 51
3 265 3 51
3 3 265 222
3 265 99 222
3 5 266 168
3 266 146 168
3 146 266 124
3 125 267 75
3 267 6 75
3 267 125 109
3 8 268 149
3 268 90 149
3 90 268 226
3 268 8 226
3 10 269 30
3 269 127 30
3 127 269 160
3 270 12 206
3 12 270 228
3 270 134 228
3 271 129 54
3 129 271 88
3 271 13 88
3 164 272 202
3 272 15 202
3 15 272 118
3 218 273 150
3 273 17 150
3 17 273 191
3 20 274 203
3 274 179 203
3 179 274 233
3 274 20 233
3 275 25 83
3 25 275 234
3 275 21 234
3 172 276 57
3 23 276 192
3 276 172 192
3 114 277 40
3 277 28 40
3 277 114 132
3 278 29 37
3 29 278 110
3 278 188 110
3 116 279 158
3 34 279 263
3 279 116 263
3 89 280 176
3 280 35 176
3 35 280 217
3 209 281 28
3 281 36 28
3 36 281 199
3 281 209 199
3 38 282 216
3 282 198 216
3 198 282 210
3 282 38 210
3 111 283 39
3 42 283 46
3 283 111 46
3 181 284 2
3 284 44 2
3 44 284 187
3 284 181 187
3 47 285 60
3 285 200 60
3 200 285 207
3 286 68 112
3 68 286 254
3 286 61 254
3 194 287 152
3 287 62 152
3 62 287 212
3 287 194 212
3 167 288 108
3 288 63 108
3 63 288 249
3 288 167 249
3 65 289 162
3 289 95 162
3 95 289 184
3 147 290 25
3 290 66 25
3 66 290 102
3 290 147 102
3 189 291 106
3 291 69 106
3 69 291 171
3 71 292 18
3 292 153 18
3 153 292 133
3 292 71 133
3 73 293 117
3 293 143 117
3 293 73 163
3 74 294 59
3 294 215 59
3 215 294 170
3 76 295 113
3 295 84 113
3 295 76 138
3 184 296 95
3 296 80 95
3 80 296 259
3 296 184 259
3 297 219 186
3 219 297 105
3 297 81 105
3 298 151 9
3 151 298 237
3 298 87 237
3 94 299 29
3 299 173 29
3 173 299 197
3 299 94 197
3 131 300 151
3 300 104 151
3 104 300 26
3 300 131 26
3 220 301 35
3 107 301 217
3 301 220 217
3 115 302 139
3 302 177 139
3 177 302 92
3 196 303 31
3 303 137 31
3 137 303 178
3 303 196 178
3 203 304 91
3 304 159 91
3 304 203 179
3 204 305 2
3 305 3 2
3 305 204 187
3 124 306 101
3 306 5 101
3 5 306 266
3 306 124 266
3 6 307 195
3 109 307 267
3 307 6 267
3 188 308 16
3 308 8 16
3 8 308 185
3 308 188 185
3 87 309 84
3 309 9 84
3 9 309 298
3 309 87 298
3 310 10 58
3 10 310 269
3 310 160 269
3 13 311 67
3 54 311 271
3 311 13 271
3 21 312 141
3 83 312 275
3 312 21 275
3 313 23 213
3 23 313 276
3 313 57 276
3 208 314 102
3 314 25 102
3 25 314 225
3 314 208 225
3 28 315 209
3 132 315 277
3 315 28 277
3 155 316 127
3 316 30 127
3 30 316 240
3 316 155 240
3 317 168 146
3 168 317 178
3 317 31 178
3 158 318 38
3 318 34 38
3 34 318 279
3 318 158 279
3 35 319 176
3 319 107 176
3 107 319 301
3 319 35 301
3 39 320 247
3 320 42 247
3 42 320 283
3 320 39 283
3 40 321 114
3 321 66 114
3 66 321 141
3 322 86 180
3 86 322 140
3 322 46 140
3 207 323 157
3 323 47 157
3 47 323 285
3 323 207 285
3 162 324 65
3 324 51 65
3 51 324 99
3 324 162 99
3 59 325 198
3 325 216 198
3 216 325 215
3 325 59 215
3 61 326 77
3 326 112 77
3 112 326 286
3 326 61 286
3 70 327 150
3 327 183 150
3 183 327 218
3 327 70 218
3 170 328 235
3 328 74 235
3 74 328 294
3 328 170 294
3 203 329 20
3 329 77 20
3 77 329 27
3 119 330 15
3 330 78 15
3 78 330 48
3 330 119 48
3 81 331 257
3 331 186 257
3 186 331 297
3 331 81 297
3 82 332 135
3 332 90 135
3 90 332 149
3 332 82 149
3 217 333 107
3 333 89 107
3 89 333 280
3 333 217 280
3 92 334 260
3 334 115 260
3 115 334 302
3 334 92 302
3 93 335 166
3 335 189 166
3 189 335 134
3 336 156 123
3 156 336 211
3 336 95 211
3 97 337 44
3 337 122 44
3 122 337 165
3 337 97 165
3 152 338 69
3 338 106 69
3 106 338 171
3 117 339 73
3 339 182 73
3 182 339 163
3 339 117 163
3 164 340 272
3 340 118 272
3 118 340 202
3 340 164 202
3 191 341 17
3 341 130 17
3 130 341 214
3 341 191 214
3 139 342 92
3 342 190 92
3 190 342 177
3 342 139 177
3 343 151 26
3 151 343 131
3 343 197 131
3 193 344 22
3 344 153 22
3 153 344 136
3 344 193 136
3 219 345 91
3 345 179 91
3 345 219 159
3 3 346 181
3 346 187 181
3 187 346 305
3 346 3 305
3 214 347 130
3 347 10 130
3 10 347 227
3 347 214 227
3 149 348 8
3 348 16 8
3 348 149 82
3 197 349 173
3 349 26 173
3 26 349 343
3 349 197 343
3 27 350 205
3 350 203 205
3 203 350 329
3 350 27 329
3 351 154 52
3 154 351 238
3 351 28 238
3 31 352 241
3 352 146 241
3 146 352 317
3 352 31 317
3 353 37 7
3 37 353 278
3 353 188 278
3 38 354 93
3 134 354 166
3 354 38 166
3 141 355 21
3 40 355 321
3 355 141 321
3 120 356 5
3 356 45 5
3 45 356 174
3 356 120 174
3 46 357 39
3 357 92 39
3 92 357 177
3 67 358 88
3 358 54 88
3 54 358 311
3 358 67 311
3 217 359 35
3 359 55 35
3 55 359 220
3 359 217 220
3 57 360 192
3 360 103 192
3 103 360 213
3 361 58 41
3 58 361 310
3 361 160 310
3 60 362 33
3 362 87 33
3 362 60 200
3 184 363 85
3 65 363 289
3 363 184 289
3 364 121 14
3 121 364 13
3 364 72 13
3 208 365 6
3 365 75 6
3 75 365 195
3 365 208 195
3 84 366 87
3 366 138 87
3 138 366 295
3 366 84 295
3 367 91 159
3 91 367 186
3 367 105 186
3 95 368 4
3 368 123 4
3 123 368 336
3 368 95 336
3 175 369 125
3 369 109 125
3 109 369 201
3 369 175 201
3 209 370 40
3 370 132 40
3 132 370 315
3 370 209 315
3 143 371 117
3 371 163 117
3 163 371 293
3 371 143 293
3 171 372 62
3 372 152 62
3 152 372 338
3 372 171 338
3 179 373 304
3 373 159 304
3 159 373 345
3 373 179 345
3 210 374 198
3 374 170 198
3 374 210 216
3 191 375 70
3 375 218 70
3 218 375 273
3 375 191 273
3 188 376 126
3 376 7 126
3 7 376 353
3 376 188 353
3 72 377 148
3 14 377 364
3 377 72 364
3 378 40 132
3 40 378 355
3 378 21 355
3 28 379 199
3 52 379 351
3 379 28 351
3 41 380 10
3 380 130 10
3 380 41 58
3 42 381 86
3 381 154 86
3 154 381 180
3 381 42 180
3 177 382 19
3 46 382 357
3 382 177 357
3 181 383 3
3 383 51 3
3 51 383 221
3 383 181 221
3 125 384 32
3 384 57 32
3 57 384 172
3 60 385 47
3 385 218 47
3 385 60 157
3 85 386 24
3 386 65 24
3 65 386 363
3 386 85 363
3 73 387 54
3 387 88 54
3 387 73 182
3 77 388 61
3 388 160 61
3 160 388 127
3 185 389 8
3 389 82 8
3 389 185 16
3 141 390 66
3 390 83 66
3 83 390 312
3 390 141 312
3 87 391 76
3 391 200 76
3 200 391 362
3 391 87 362
3 90 392 23
3 392 213 23
3 213 392 103
3 392 90 103
3 93 393 335
3 393 134 335
3 134 393 354
3 393 93 354
3 156 394 5
3 394 101 5
3 394 156 174
3 195 395 6
3 102 395 208
3 395 195 208
3 105 396 219
3 396 159 219
3 159 396 367
3 396 105 367
3 139 397 31
3 397 178 31
3 178 397 137
3 397 139 137
3 220 398 55
3 152 398 245
3 398 220 245
3 170 399 215
3 399 216 215
3 216 399 374
3 399 170 374
3 400 189 128
3 189 400 291
3 400 171 291
3 6 401 147
3 401 102 147
3 102 401 395
3 401 6 395
3 148 402 13
3 402 14 13
3 14 402 377
3 402 148 377
3 82 403 348
3 403 16 348
3 16 403 389
3 403 82 389
3 19 404 111
3 404 46 111
3 46 404 382
3 404 19 382
3 21 405 114
3 405 132 114
3 132 405 378
3 405 21 378
3 160 406 30
3 406 41 30
3 41 406 361
3 406 160 361
3 199 407 36
3 407 52 36
3 52 407 379
3 407 199 379
3 408 152 212
3 152 408 398
3 408 55 398
3 57 409 360
3 409 213 360
3 213 409 313
3 409 57 313
3 169 410 10
3 410 58 10
3 410 169 130
3 176 411 89
3 411 72 89
3 411 176 107
3 77 412 388
3 412 127 388
3 127 412 155
3 412 77 155
3 413 182 56
3 182 413 387
3 413 88 387
3 101 414 120
3 414 174 120
3 174 414 394
3 414 101 394
3 195 415 75
3 415 109 75
3 109 415 307
3 415 195 307
3 416 125 53
3 125 416 384
3 416 172 384
3 126 417 188
3 417 185 188
3 185 417 231
3 417 126 231
3 171 418 106
3 418 128 106
3 128 418 400
3 418 171 400
3 134 419 189
3 419 206 189
3 206 419 270
3 419 134 270
3 218 420 96
3 420 157 96
3 157 420 385
3 420 218 385
3 46 421 42
3 421 180 42
3 180 421 322
3 421 46 322
3 172 422 32
3 422 53 32
3 53 422 416
3 422 172 416
3 55 423 194
3 423 212 194
3 212 423 408
3 423 55 408
3 88 424 129
3 424 56 129
3 56 424 413
3 424 88 413
3 58 425 380
3 425 130 380
3 130 425 410
3 425 58 410
3 72 426 229
3 426 107 229
3 107 426 411
3 426 72 411
