OFF
514 1024 0
0.0997039835 0.0006006576 -0.7751373123
0.0978409966 0.0203430532 -0.7751210880
0.0922060811 0.0392686755 -0.7751173947
0.0830155107 0.0566586588 -0.7751321165
0.0706147489 0.0718748921 -0.7751667867
0.0554924222 0.0843317344 -0.7752183683
0.0382254519 0.0935616360 -0.7752793723
0.0194512147 0.0992320559 -0.7753386651
-0.0001054082 0.1011323964 -0.7753838245
-0.0196561218 0.0991881764 -0.7754041533
-0.0384251270 0.0934701401 -0.7753926594
-0.0556953087 0.0841855978 -0.7753469518
-0.0708358078 0.0716650950 -0.7752688821
-0.0832744321 0.0563771560 -0.7751639712
-0.0925236360 0.0389138063 -0.7750407959
-0.0982372822 0.0199237079 -0.7749107240
-0.1001978353 0.0001403222 -0.7747871022
-0.0983299106 -0.0196390412 -0.7746835457
-0.0927088628 -0.0386249431 -0.7746117863
-0.0835517509 -0.0560828051 -0.7745790524
-0.0712033149 -0.0713608783 -0.7745862552
-0.0561482516 -0.0838640080 -0.7746281104
-0.0389538719 -0.0931209182 -0.7746953068
-0.0202435980 -0.0987987169 -0.7747775734
-0.0007246442 -0.1006881370 -0.7748657921
0.0188365857 -0.0987169318 -0.7749524858
0.0376460104 -0.0929587584 -0.7750312931
0.0549724217 -0.0836245816 -0.7750963606
0.0701741774 -0.0710495482 -0.7751424954
0.0826711343 -0.0557080124 -0.7751666793
0.0919701577 -0.0381994100 -0.7751697318
0.0977212154 -0.0191817903 -0.7751569599
0.1135063970 0.0006280324 -0.7396232137
0.1113868021 0.0230892520 -0.7395830668
0.1049804210 0.0445954197 -0.7395676531
0.0945342656 0.0643393766 -0.7395875396
0.0804240064 0.0816338442 -0.7396452619
0.0632254551 0.0957921581 -0.7397370577
0.0436027169 0.1062763413 -0.7398516109
0.0222464167 0.1127237662 -0.7399677371
-0.0000232130 0.1148921567 -0.7400604228
-0.0223031128 0.1126925747 -0.7401105315
-0.0436626537 0.1062099113 -0.7401070892
-0.0632889106 0.0956817508 -0.7400489174
-0.0805050756 0.0814648788 -0.7399402794
-0.0946609033 0.0640922530 -0.7397896018
-0.1051766820 0.0442644590 -0.7396072581
-0.1116729222 0.0226846614 -0.7394086232
-0.1139005675 0.0001761254 -0.7392145243
-0.1117702538 -0.0223585962 -0.7390477093
-0.1053721333 -0.0439681665 -0.7389307964
-0.0949556836 -0.0638168533 -0.7388787721
-0.0809000686 -0.0811983595 -0.7388928386
-0.0637834938 -0.0954109549 -0.7389600778
-0.0442528628 -0.1059207238 -0.7390599365
-0.0229781598 -0.1123697900 -0.7391743116
-0.0007560284 -0.1145193855 -0.7392921637
0.0215328190 -0.1122834302 -0.7394076423
0.0429390822 -0.1057496821 -0.7395160919
0.0626309333 -0.0951590856 -0.7396103714
0.0799176513 -0.0808726042 -0.7396788295
0.0941395467 -0.0634282677 -0.7397114957
0.1047115441 -0.0435325941 -0.7397061679
0.1112509197 -0.0218988374 -0.7396709255
0.1187446494 0.0005636960 -0.6734683636
0.1165287572 0.0240117160 -0.6734017521
0.1098332397 0.0464724635 -0.6733757614
0.0989158011 0.0670993944 -0.6734076389
0.0841730586 0.0851622492 -0.6734996394
0.0661790136 0.0999713729 -0.6736492875
0.0456432894 0.1109465706 -0.6738444929
0.0233034585 0.1176980261 -0.6740472060
0.0000173649 0.1199732121 -0.6742091802
-0.0232582139 0.1176813524 -0.6743014510
-0.0455858170 0.1109101927 -0.6743077121
-0.0661139951 0.0999081859 -0.6742335913
-0.0841170839 0.0850571703 -0.6740871795
-0.0989143169 0.0669151029 -0.6738824428
-0.1099095371 0.0462026586 -0.6736274698
-0.1166996203 0.0236673107 -0.6733400877
-0.1190250210 0.0001689683 -0.6730510697
-0.1167940127 -0.0233560046 -0.6727923265
-0.1100992947 -0.0459281106 -0.6726042336
-0.0992009662 -0.0666713079 -0.6725160010
-0.0845017978 -0.0848323254 -0.6725305048
-0.0665960097 -0.0996883533 -0.6726222530
-0.0461597699 -0.1106804456 -0.6727511138
-0.0239096871 -0.1174260630 -0.6728889534
-0.0006814530 -0.1196761233 -0.6730270751
0.0226073060 -0.1173423418 -0.6731664436
0.0449828634 -0.1105150670 -0.6733080222
0.0655757041 -0.0994461445 -0.6734456877
0.0836475374 -0.0845222609 -0.6735543579
0.0985078569 -0.0663079947 -0.6736103288
0.1095570091 -0.0455293051 -0.6736047847
0.1163896856 -0.0229445517 -0.6735471916
0.1178533363 0.0004537824 -0.5822174977
0.1156503473 0.0236645771 -0.5821203299
0.1090019994 0.0459247633 -0.5820804602
0.0981618817 0.0663888035 -0.5821293216
0.0835341244 0.0843047454 -0.5822627351
0.0656803675 0.0989957028 -0.5824853929
0.0452942069 0.1098959453 -0.5827997379
0.0231384410 0.1166028358 -0.5831340995
0.0000680434 0.1188645424 -0.5833892676
-0.0230003895 0.1165931163 -0.5835370900
-0.0451507718 0.1098728690 -0.5835470127
-0.0655355830 0.0989509215 -0.5834521853
-0.0834038310 0.0842226599 -0.5832602779
-0.0980790864 0.0662427151 -0.5830033499
-0.1089889284 0.0457061446 -0.5826715663
-0.1157233126 0.0233791790 -0.5822804750
-0.1180259236 0.0001192678 -0.5818790159
-0.1158086099 -0.0231498430 -0.5814952405
-0.1091602231 -0.0454981061 -0.5812012700
-0.0983373322 -0.0660571992 -0.5810528626
-0.0837492963 -0.0840535230 -0.5810579834
-0.0659663234 -0.0987878468 -0.5811707044
-0.0456603993 -0.1097032411 -0.5813132283
-0.0235750964 -0.1164029638 -0.5814468980
-0.0005470082 -0.1186389803 -0.5815791431
0.0225228294 -0.1163262560 -0.5817267586
0.0447066592 -0.1095520208 -0.5818998454
0.0651435942 -0.0985671250 -0.5821041261
0.0830705768 -0.0837728002 -0.5822828445
0.0977976031 -0.0657351702 -0.5823884090
0.1087527846 -0.0451513435 -0.5824029155
0.1155241453 -0.0227974566 -0.5823276362
0.1139867466 0.0003453971 -0.4715981220
0.1118481521 0.0227408754 -0.4714698707
0.1054097301 0.0442412632 -0.4713943312
0.0949166094 0.0640248075 -0.4714502365
0.0807668941 0.0813461044 -0.4716209370
0.0635025696 0.0955495688 -0.4719251364
0.0437876757 0.1060946784 -0.4724120128
0.0223756329 0.1125839183 -0.4729353932
0.0000936170 0.1147718973 -0.4732893613
-0.0221880514 0.1125741601 -0.4735062268
-0.0435999861 0.1060712719 -0.4734959400
-0.0633199566 0.0955044152 -0.4733801270
-0.0806020921 0.0812667852 -0.4731316572
-0.0947895293 0.0638966853 -0.4728437079
-0.1053383841 0.0440577778 -0.4724526336
-0.1118474674 0.0225054683 -0.4719647511
-0.1140692827 0.0000709088 -0.4714700441
-0.1119199451 -0.0223680244 -0.4709451217
-0.1054836088 -0.0439314510 -0.4705125854
-0.0950076250 -0.0637830711 -0.4702693572
-0.0808921977 -0.0811624296 -0.4702336308
-0.0636789547 -0.0954020621 -0.4703347353
-0.0440208480 -0.1059610888 -0.4704372731
-0.0226580133 -0.1124446185 -0.4704994189
-0.0004055810 -0.1146103412 -0.4705793927
0.0218733579 -0.1123769448 -0.4707168726
0.0433061206 -0.1058284778 -0.4709120457
0.0630626872 -0.0952104685 -0.4712099244
0.0803882619 -0.0809219263 -0.4714892740
0.0946176295 -0.0635085088 -0.4716784375
0.1052038122 -0.0436387611 -0.4717704437
0.1117433612 -0.0220747017 -0.4717123305
0.1095464809 0.0002620124 -0.3466301920
0.1074819198 0.0217443687 -0.3464842267
0.1012852777 0.0423806851 -0.3462888977
0.0911931374 0.0613798252 -0.3461958674
0.0775910362 0.0780184001 -0.3463981349
0.0610004136 0.0916636995 -0.3469075259
0.0420587042 0.1017965783 -0.3476197794
0.0214940360 0.1080321947 -0.3482628161
0.0001002203 0.1101332716 -0.3487277634
-0.0212939102 0.1080185668 -0.3489649570
-0.0418604895 0.1017660377 -0.3489723101
-0.0608088544 0.0916099630 -0.3487983912
-0.0774152521 0.0779331361 -0.3485511161
-0.0910459225 0.0612550134 -0.3481810095
-0.1011800106 0.0422127993 -0.3477758444
-0.1074310309 0.0215363476 -0.3473302100
-0.1095610121 0.0000232634 -0.3467611280
-0.1074895344 -0.0214914928 -0.3462423994
-0.1012969269 -0.0421720245 -0.3457009503
-0.0912207351 -0.0612182130 -0.3453228734
-0.0776463660 -0.0778972414 -0.3451336007
-0.0610926804 -0.0915692625 -0.3449894730
-0.0421903928 -0.1017127706 -0.3449057605
-0.0216592955 -0.1079435146 -0.3447836685
-0.0002858124 -0.1100262788 -0.3447705585
0.0211053097 -0.1078826734 -0.3449359405
0.0416853212 -0.1015941302 -0.3452293475
0.0606592567 -0.0913990785 -0.3455229306
0.0772975880 -0.0776851523 -0.3458604908
0.0909609939 -0.0609769537 -0.3461344301
0.1011248817 -0.0419160390 -0.3464505636
0.1074000753 -0.0212362584 -0.3466289572
0.1059584491 0.0002105627 -0.2112942449
0.1039526436 0.0209611728 -0.2111723355
0.0979505864 0.0409008313 -0.2109852798
0.0881820320 0.0592642715 -0.2110014777
0.0750212967 0.0753493035 -0.2113180574
0.0589735431 0.0885420433 -0.2119472870
0.0406556868 0.0983393442 -0.2126518557
0.0207727881 0.1043676375 -0.2132631778
0.0000914901 0.1063965985 -0.2137803319
-0.0205899389 0.1043476119 -0.2140635728
-0.0404740048 0.0982968173 -0.2141891926
-0.0587962513 0.0884725767 -0.2141671591
-0.0748545321 0.0752476289 -0.2139252975
-0.0880345071 0.0591261227 -0.2136513546
-0.0978323229 0.0407251504 -0.2132763314
-0.1038738541 0.0207514694 -0.2127909322
-0.1059287836 -0.0000249335 -0.2122003663
-0.1039192776 -0.0208008525 -0.2116784225
-0.0979228777 -0.0407726577 -0.2111340376
-0.0881693634 -0.0591692193 -0.2106271010
-0.0750318617 -0.0752823118 -0.2101870781
-0.0590126255 -0.0884934109 -0.2098790886
-0.0407237822 -0.0982971779 -0.2095448232
-0.0208648501 -0.1043200200 -0.2093431011
-0.0001977115 -0.1063331185 -0.2092458460
0.0204819609 -0.1042603772 -0.2093924713
0.0403763870 -0.0981811434 -0.2096180361
0.0587184355 -0.0883274589 -0.2099204146
0.0748019630 -0.0750759727 -0.2101865155
0.0880084424 -0.0589345851 -0.2105112282
0.0978305092 -0.0405234690 -0.2108935863
0.1038913042 -0.0205515318 -0.2112023011
0.1039983621 0.0001930928 -0.0700183063
0.1020219624 0.0205438589 -0.0699688798
0.0961235310 0.0401016611 -0.0700154931
0.0865291897 0.0581156417 -0.0702407226
0.0736070790 0.0738958378 -0.0705881909
0.0578536107 0.0868388367 -0.0711327961
0.0398746758 0.0964501012 -0.0717790377
0.0203624805 0.1023623380 -0.0724261242
0.0000689239 0.1043491060 -0.0729248388
-0.0202238175 0.1023332685 -0.0733737216
-0.0397342996 0.0963900363 -0.0736235586
-0.0577126173 0.0867445076 -0.0736557108
-0.0734692267 0.0737637765 -0.0734281620
-0.0864007831 0.0579437496 -0.0731290724
-0.0960126753 0.0398908245 -0.0727543348
-0.1019376445 0.0202990018 -0.0722923361
-0.1039496046 -0.0000766730 -0.0717675079
-0.1019721393 -0.0204496768 -0.0711651010
-0.0960813192 -0.0400334130 -0.0705799606
-0.0865027097 -0.0580726363 -0.0700456466
-0.0736027312 -0.0738730819 -0.0695788245
-0.0578747618 -0.0868280875 -0.0691741804
-0.0399205489 -0.0964415368 -0.0686785309
-0.0204278466 -0.1023462483 -0.0683433008
-0.0001448936 -0.1043172655 -0.0682168345
0.0201480259 -0.1022799139 -0.0682998600
0.0396691282 -0.0963124848 -0.0685520101
0.0576662044 -0.0866434414 -0.0688107892
0.0734462089 -0.0736431751 -0.0691164047
0.0864020013 -0.0578104271 -0.0694709006
0.0960355888 -0.0397535893 -0.0698074721
0.1019770421 -0.0201675549 -0.0699442104
0.1040023126 0.0002097973 0.0728773894
0.1020195762 0.0205575807 0.0727810363
0.0961145082 0.0401119718 0.0725249119
0.0865135258 0.0581222191 0.0722321678
0.0735850843 0.0738983831 0.0717768583
0.0578259440 0.0868370139 0.0712948859
0.0398423683 0.0964435026 0.0707981535
0.0203269142 0.1023504777 0.0703125722
0.0000317348 0.1043314439 0.0698898587
-0.0202609178 0.1023092663 0.0694441857
-0.0397697368 0.0963592499 0.0691445851
-0.0577451249 0.0867067129 0.0689452544
-0.0734979267 0.0737191195 0.0689610364
-0.0864251797 0.0578928979 0.0691365386
-0.0960325897 0.0398350745 0.0694572990
-0.1019531234 0.0202402846 0.0699486609
-0.1039608282 -0.0001359355 0.0705579613
-0.1019793425 -0.0205068600 0.0710849575
-0.0960847334 -0.0400860334 0.0716284452
-0.0865025269 -0.0581186471 0.0721453959
-0.0735990909 -0.0739110336 0.0726305219
-0.0578677604 -0.0868571495 0.0731166978
-0.0399102723 -0.0964614316 0.0736540982
-0.0204144249 -0.1023571577 0.0740088376
-0.0001285764 -0.1043197534 0.0741409796
0.0201667823 -0.1022748807 0.0741850457
0.0396895816 -0.0963011446 0.0740275970
0.0576872880 -0.0866272901 0.0737101298
0.0734665734 -0.0736239055 0.0733534233
0.0864201581 -0.0577897674 0.0730181447
0.0960501133 -0.0397331017 0.0728406500
0.1019867322 -0.0201484983 0.0728760454
0.1059697081 0.0002598313 0.2133611430
0.1039446625 0.0210013644 0.2132125608
0.0979224731 0.0409307432 0.2129413104
0.0881337427 0.0592829988 0.2126700048
0.0749537053 0.0753559879 0.2122999159
0.0588885728 0.0885356927 0.2119946315
0.0405564260 0.0983187320 0.2116726108
0.0206634709 0.1043312818 0.2112820897
-0.0000227857 0.1063428290 0.2108330410
-0.0207037980 0.1042747334 0.2104476777
-0.0405825351 0.0982033797 0.2100761624
-0.0588955689 0.0883577553 0.2098737676
-0.0749420178 0.0751116962 0.2098143812
-0.0881087482 0.0589709475 0.2099018079
-0.0978928791 0.0405545922 0.2101295663
-0.1039209579 0.0205714651 0.2105840629
-0.1059630509 -0.0002067984 0.2111889216
-0.1039414686 -0.0209763149 0.2117150516
-0.0979337236 -0.0409339464 0.2122852001
-0.0881694609 -0.0593100470 0.2127722799
-0.0750216345 -0.0753983502 0.2131994780
-0.0589923510 -0.0885822805 0.2135815383
-0.0406936847 -0.0983581727 0.2139779511
-0.0208252632 -0.1043537758 0.2142809534
-0.0001493065 -0.1063413617 0.2144587553
0.0205378984 -0.1042458014 0.2145446935
0.0404376842 -0.0981473824 0.2145111004
0.0587818673 -0.0882790477 0.2143633240
0.0748633458 -0.0750181326 0.2140568725
0.0880631066 -0.0588727004 0.2136538967
0.0978740364 -0.0404623575 0.2134339639
0.1039200446 -0.0204949896 0.2134078249
0.1095630953 0.0003409014 0.3476827232
0.1074659097 0.0218078128 0.3475456611
0.1012351916 0.0424269535 0.3474131098
0.0911087880 0.0614076020 0.3471486348
0.0774736516 0.0780263674 0.3468689973
0.0608529583 0.0916502525 0.3465655383
0.0418862330 0.1017596655 0.3463588864
0.0213038393 0.1079692822 0.3460974799
-0.0000985650 0.1100414395 0.3457703719
-0.0214914639 0.1078947555 0.3454253614
-0.0420479826 0.1016074713 0.3450690274
-0.0609795833 0.0914147760 0.3447663005
-0.0775649625 0.0777012031 0.3446512553
-0.0911725527 0.0609889207 0.3447718969
-0.1012831632 0.0419187614 0.3451031063
-0.1075113940 0.0212246573 0.3455456517
-0.1096198469 -0.0002923271 0.3460530274
-0.1075282754 -0.0217958262 0.3465413711
-0.1013169029 -0.0424510404 0.3470058484
-0.0912230037 -0.0614610321 0.3474061071
-0.0776316526 -0.0780968488 0.3478607199
-0.0610614172 -0.0917221688 0.3483874363
-0.0421428603 -0.1018182703 0.3488132282
-0.0215958772 -0.1080029730 0.3490955009
-0.0002073717 -0.1100426617 0.3492735820
0.0211969329 -0.1078603849 0.3493674867
0.0417867480 -0.1015391041 0.3493434319
0.0607651037 -0.0913189347 0.3491492283
0.0774004441 -0.0775890423 0.3488771498
0.0910523162 -0.0608745932 0.3484561711
0.1011968447 -0.0418158762 0.3481324956
0.1074465354 -0.0211446095 0.3478550468
0.1140048589 0.0004476717 0.4722858352
0.1118201910 0.0228213068 0.4721040020
0.1053337530 0.0442979558 0.4719679976
0.0947920682 0.0640562485 0.4717128459
0.0805949204 0.0813506284 0.4713598383
0.0632866083 0.0955250069 0.4710334028
0.0435343209 0.1060381618 0.4707781181
0.0220953201 0.1124918267 0.4705394139
-0.0001995292 0.1146399601 0.4702950459
-0.0224781841 0.1123977404 0.4700592991
-0.0438733967 0.1058458788 0.4698577282
-0.0635670098 0.0952265098 0.4697299482
-0.0808173077 0.0809349467 0.4696561930
-0.0949707691 0.0635131689 0.4697603326
-0.1054858196 0.0436303419 0.4699428581
-0.1119626450 0.0220489258 0.4702462214
-0.1141543865 -0.0003930163 0.4706403227
-0.1119772637 -0.0228147471 0.4710840733
-0.1055151820 -0.0443388311 0.4715618604
-0.0950150408 -0.0641354957 0.4720584770
-0.0808765184 -0.0814510261 0.4725171876
-0.0636407606 -0.0956232691 0.4730165786
-0.0439604031 -0.1061150236 0.4733787991
-0.0225755714 -0.1125338218 0.4735706893
-0.0003018664 -0.1146390623 0.4737209071
0.0219964485 -0.1123509911 0.4738563228
0.0434445715 -0.1057555859 0.4739476597
0.0632092733 -0.0951010318 0.4738634691
0.0805318302 -0.0807895134 0.4736187929
0.0947442122 -0.0633686759 0.4732265909
0.1053016475 -0.0435040624 0.4727980868
0.1118040879 -0.0219536217 0.4724747007
0.1178663485 0.0005682153 0.5825267896
0.1156053623 0.0237517189 0.5823284927
0.1088966174 0.0459828220 0.5821393053
0.0979948428 0.0664161599 0.5818991814
0.0833057480 0.0842994103 0.5816114946
0.0653935309 0.0989549635 0.5813314733
0.0449558725 0.1098161599 0.5810891396
0.0227615404 0.1164793652 0.5808770225
-0.0003272668 0.1186918317 0.5806872137
-0.0233890464 0.1163649562 0.5805241082
-0.0455131045 0.1095828947 0.5804000030
-0.0658596012 0.0985934387 0.5803283905
-0.0836839025 0.0837939397 0.5803114654
-0.0983139389 0.0657429717 0.5803853062
-0.1091799426 0.0451424588 0.5805323206
-0.1158732633 0.0227694118 0.5807651743
-0.1181381050 -0.0005045932 0.5810763841
-0.1158862511 -0.0237478540 0.5814474924
-0.1092061193 -0.0460377936 0.5818602876
-0.0983536418 -0.0665197608 0.5822912717
-0.0837374702 -0.0844305481 0.5827055746
-0.0659271513 -0.0990775161 0.5830974396
-0.0455941725 -0.1099075833 0.5834023371
-0.0234819054 -0.1165261582 0.5836062408
-0.0004272207 -0.1186864973 0.5837569816
0.0226678134 -0.1163047241 0.5838722366
0.0448732008 -0.1094698577 0.5839282522
0.0653238854 -0.0984361133 0.5838661103
0.0832499122 -0.0836106260 0.5836752518
0.0979530444 -0.0655666947 0.5833783906
0.1088688369 -0.0449929700 0.5830432229
0.1155915066 -0.0226585217 0.5827514187
0.1187428049 0.0006729206 0.6734842137
0.1164614609 0.0240910294 0.6732872252
0.1096974254 0.0465198883 0.6730923517
0.0987091436 0.0671129401 0.6728797181
0.0838944388 0.0851394436 0.6726507551
0.0658295469 0.0999089329 0.6724267904
0.0452282370 0.1108401958 0.6722249393
0.0228356184 0.1175423142 0.6720498530
-0.0004776689 0.1197617109 0.6719021625
-0.0237390683 0.1174067737 0.6717847247
-0.0460273909 0.1105648303 0.6717030329
-0.0665044445 0.0994846026 0.6716630964
-0.0844524959 0.0845492695 0.6716700446
-0.0991952090 0.0663198133 0.6717350321
-0.1101387807 0.0455227607 0.6718587321
-0.1168811731 0.0229166896 0.6720448543
-0.1191631178 -0.0006164759 0.6722903006
-0.1168926421 -0.0240936114 0.6725847818
-0.1101618748 -0.0465814871 0.6729132763
-0.0992301721 -0.0672256148 0.6732558755
-0.0844995123 -0.0852834340 0.6735890263
-0.0665633817 -0.1000377019 0.6738938093
-0.0460973753 -0.1109323789 0.6741439168
-0.0238177980 -0.1175863851 0.6743310225
-0.0005604384 -0.1197513722 0.6744668421
0.0227563905 -0.1173396160 0.6745557475
0.0451573322 -0.1104424600 0.6745850070
0.0657694071 -0.0993142576 0.6745321434
0.0838461208 -0.0843487686 0.6743916847
0.0986729779 -0.0661333739 0.6741802044
0.1096734109 -0.0453698060 0.6739350285
0.1164494939 -0.0228080429 0.6736971312
0.1134789451 0.0007105924 0.7394363209
0.1112938792 0.0231438075 0.7392600382
0.1048178748 0.0446187683 0.7390844564
0.0942988842 0.0643285772 0.7389045657
0.0801137510 0.0815856838 0.7387223264
0.0628400579 0.0957027827 0.7385467533
0.0431448236 0.1061410249 0.7383870321
0.0217242637 0.1125368150 0.7382487146
-0.0005871329 0.1146469611 0.7381349903
-0.0228387744 0.1123818308 0.7380487521
-0.0441479911 0.1058260465 0.7379933244
-0.0637165021 0.0952176001 0.7379722315
-0.0808733975 0.0809146852 0.7379891180
-0.0949715199 0.0634531460 0.7380484178
-0.1054329071 0.0435388546 0.7381521303
-0.1118789377 0.0218850352 0.7383010763
-0.1140607826 -0.0006629389 0.7384925396
-0.1118888499 -0.0231447138 0.7387194086
-0.1054527706 -0.0446663270 0.7389706089
-0.0950013479 -0.0644137660 0.7392317548
-0.0809130417 -0.0816904866 0.7394866826
-0.0637654372 -0.0957998703 0.7397201760
-0.0442050137 -0.1062109098 0.7399180919
-0.0229016485 -0.1125674412 0.7400732473
-0.0006523492 -0.1146318178 0.7401852199
0.0216611100 -0.1123190177 0.7402525912
0.0430872843 -0.1057184107 0.7402692145
0.0627904478 -0.0950739622 0.7402275766
0.0800733761 -0.0807520667 0.7401274067
0.0942683812 -0.0632976092 0.7399791781
0.1047974946 -0.0434088925 0.7398023289
0.1112836874 -0.0217925022 0.7396174152
0.0996458472 0.0006384952 0.7748309758
0.0977241831 0.0203578152 0.7746821247
0.0920261209 0.0392557134 0.7745327471
0.0827696536 0.0566139363 0.7743842363
0.0703024120 0.0717944597 0.7742392702
0.0551161048 0.0842113497 0.7741021314
0.0377921913 0.0933965311 0.7739775900
0.0189745593 0.0990168618 0.7738698689
-0.0006034587 0.1008612415 0.7737824357
-0.0201460077 0.0988549912 0.7737182539
-0.0388851504 0.0930692170 0.7736800195
-0.0561124768 0.0837124751 0.7736702307
-0.0712037932 0.0711178529 0.7736911377
-0.0835914393 0.0557582238 0.7737445324
-0.0927907124 0.0382323407 0.7738311077
-0.0984570814 0.0191983842 0.7739500324
-0.1003737489 -0.0005984362 0.7740983242
-0.0984654831 -0.0203511344 0.7742705060
-0.0928074273 -0.0392796459 0.7744587267
-0.0836162418 -0.0566608865 0.7746533007
-0.0712362282 -0.0718524719 0.7748436527
-0.0561517370 -0.0842659806 0.7750195092
-0.0389299506 -0.0934347252 0.7751719206
-0.0201945092 -0.0990289163 0.7752943399
-0.0006533224 -0.1008415146 0.7753825277
0.0189259067 -0.0988021386 0.7754333509
0.0377471118 -0.0929863299 0.7754442211
0.0550764797 -0.0836071235 0.7754140194
0.0702695819 -0.0710016626 0.7753448571
0.0827444862 -0.0556451916 0.7752428499
0.0920091267 -0.0381351920 0.7751171429
0.0977156303 -0.0191267961 0.7749773766
-0.0004924812 0.0000146553 0.7823222506
-0.0003300964 0.0002922150 -0.7828472481
3 0 1 33
3 0 33 32
3 1 2 34
3 1 34 33
3 2 3 35
3 2 35 34
3 3 4 36
3 3 36 35
3 4 5 37
3 4 37 36
3 5 6 38
3 5 38 37
3 6 7 39
3 6 39 38
3 7 8 40
3 7 40 39
3 8 9 41
3 8 41 40
3 9 10 42
3 9 42 41
3 10 11 43
3 10 43 42
3 11 12 44
3 11 44 43
3 12 13 45
3 12 45 44
3 13 14 46
3 13 46 45
3 14 15 47
3 14 47 46
3 15 16 48
3 15 48 47
3 16 17 49
3 16 49 48
3 17 18 50
3 17 50 49
3 18 19 51
3 18 51 50
3 19 20 52
3 19 52 51
3 20 21 53
3 20 53 52
3 21 22 54
3 21 54 53
3 22 23 55
3 22 55 54
3 23 24 56
3 23 56 55
3 24 25 57
3 24 57 56
3 25 26 58
3 25 58 57
3 26 27 59
3 26 59 58
3 27 28 60
3 27 60 59
3 28 29 61
3 28 61 60
3 29 30 62
3 29 62 61
3 30 31 63
3 30 63 62
3 31 0 32
3 31 32 63
3 32 33 65
3 32 65 64
3 33 34 66
3 33 66 65
3 34 35 67
3 34 67 66
3 35 36 68
3 35 68 67
3 36 37 69
3 36 69 68
3 37 38 70
3 37 70 69
3 38 39 71
3 38 71 70
3 39 40 72
3 39 72 71
3 40 41 73
3 40 73 72
3 41 42 74
3 41 74 73
3 42 43 75
3 42 75 74
3 43 44 76
3 43 76 75
3 44 45 77
3 44 77 76
3 45 46 78
3 45 78 77
3 46 47 79
3 46 79 78
3 47 48 80
3 47 80 79
3 48 49 81
3 48 81 80
3 49 50 82
3 49 82 81
3 50 51 83
3 50 83 82
3 51 52 84
3 51 84 83
3 52 53 85
3 52 85 84
3 53 54 86
3 53 86 85
3 54 55 87
3 54 87 86
3 55 56 88
3 55 88 87
3 56 57 89
3 56 89 88
3 57 58 90
3 57 90 89
3 58 59 91
3 58 91 90
3 59 60 92
3 59 92 91
3 60 61 93
3 60 93 92
3 61 62 94
3 61 94 93
3 62 63 95
3 62 95 94
3 63 32 64
3 63 64 95
3 64 65 97
3 64 97 96
3 65 66 98
3 65 98 97
3 66 67 99
3 66 99 98
3 67 68 100
3 67 100 99
3 68 69 101
3 68 101 100
3 69 70 102
3 69 102 101
3 70 71 103
3 70 103 102
3 71 72 104
3 71 104 103
3 72 73 105
3 72 105 104
3 73 74 106
3 73 106 105
3 74 75 107
3 74 107 106
3 75 76 108
3 75 108 107
3 76 77 109
3 76 109 108
3 77 78 110
3 77 110 109
3 78 79 111
3 78 111 110
3 79 80 112
3 79 112 111
3 80 81 113
3 80 113 112
3 81 82 114
3 81 114 113
3 82 83 115
3 82 115 114
3 83 84 116
3 83 116 115
3 84 85 117
3 84 117 116
3 85 86 118
3 85 118 117
3 86 87 119
3 86 119 118
3 87 88 120
3 87 120 119
3 88 89 121
3 88 121 120
3 89 90 122
3 89 122 121
3 90 91 123
3 90 123 122
3 91 92 124
3 91 124 123
3 92 93 125
3 92 125 124
3 93 94 126
3 93 126 125
3 94 95 127
3 94 127 126
3 95 64 96
3 95 96 127
3 96 97 129
3 96 129 128
3 97 98 130
3 97 130 129
3 98 99 131
3 98 131 130
3 99 100 132
3 99 132 131
3 100 101 133
3 100 133 132
3 101 102 134
3 101 134 133
3 102 103 135
3 102 135 134
3 103 104 136
3 103 136 135
3 104 105 137
3 104 137 136
3 105 106 138
3 105 138 137
3 106 107 139
3 106 139 138
3 107 108 140
3 107 140 139
3 108 109 141
3 108 141 140
3 109 110 142
3 109 142 141
3 110 111 143
3 110 143 142
3 111 112 144
3 111 144 143
3 112 113 145
3 112 145 144
3 113 114 146
3 113 146 145
3 114 115 147
3 114 147 146
3 115 116 148
3 115 148 147
3 116 117 149
3 116 149 148
3 117 118 150
3 117 150 149
3 118 119 151
3 118 151 150
3 119 120 152
3 119 152 151
3 120 121 153
3 120 153 152
3 121 122 154
3 121 154 153
3 122 123 155
3 122 155 154
3 123 124 156
3 123 156 155
3 124 125 157
3 124 157 156
3 125 126 158
3 125 158 157
3 126 127 159
3 126 159 158
3 127 96 128
3 127 128 159
3 128 129 161
3 128 161 160
3 129 130 162
3 129 162 161
3 130 131 163
3 130 163 162
3 131 132 164
3 131 164 163
3 132 133 165
3 132 165 164
3 133 134 166
3 133 166 165
3 134 135 167
3 134 167 166
3 135 136 168
3 135 168 167
3 136 137 169
3 136 169 168
3 137 138 170
3 137 170 169
3 138 139 171
3 138 171 170
3 139 140 172
3 139 172 171
3 140 141 173
3 140 173 172
3 141 142 174
3 141 174 173
3 142 143 175
3 142 175 174
3 143 144 176
3 143 176 175
3 144 145 177
3 144 177 176
3 145 146 178
3 145 178 177
3 146 147 179
3 146 179 178
3 147 148 180
3 147 180 179
3 148 149 181
3 148 181 180
3 149 150 182
3 149 182 181
3 150 151 183
3 150 183 182
3 151 152 184
3 151 184 183
3 152 153 185
3 152 185 184
3 153 154 186
3 153 186 185
3 154 155 187
3 154 187 186
3 155 156 188
3 155 188 187
3 156 157 189
3 156 189 188
3 157 158 190
3 157 190 189
3 158 159 191
3 158 191 190
3 159 128 160
3 159 160 191
3 160 161 193
3 160 193 192
3 161 162 194
3 161 194 193
3 162 163 195
3 162 195 194
3 163 164 196
3 163 196 195
3 164 165 197
3 164 197 196
3 165 166 198
3 165 198 197
3 166 167 199
3 166 199 198
3 167 168 200
3 167 200 199
3 168 169 201
3 168 201 200
3 169 170 202
3 169 202 201
3 170 171 203
3 170 203 202
3 171 172 204
3 171 204 203
3 172 173 205
3 172 205 204
3 173 174 206
3 173 206 205
3 174 175 207
3 174 207 206
3 175 176 208
3 175 208 207
3 176 177 209
3 176 209 208
3 177 178 210
3 177 210 209
3 178 179 211
3 178 211 210
3 179 180 212
3 179 212 211
3 180 181 213
3 180 213 212
3 181 182 214
3 181 214 213
3 182 183 215
3 182 215 214
3 183 184 216
3 183 216 215
3 184 185 217
3 184 217 216
3 185 186 218
3 185 218 217
3 186 187 219
3 186 219 218
3 187 188 220
3 187 220 219
3 188 189 221
3 188 221 220
3 189 190 222
3 189 222 221
3 190 191 223
3 190 223 222
3 191 160 192
3 191 192 223
3 192 193 225
3 192 225 224
3 193 194 226
3 193 226 225
3 194 195 227
3 194 227 226
3 195 196 228
3 195 228 227
3 196 197 229
3 196 229 228
3 197 198 230
3 197 230 229
3 198 199 231
3 198 231 230
3 199 200 232
3 199 232 231
3 200 201 233
3 200 233 232
3 201 202 234
3 201 234 233
3 202 203 235
3 202 235 234
3 203 204 236
3 203 236 235
3 204 205 237
3 204 237 236
3 205 206 238
3 205 238 237
3 206 207 239
3 206 239 238
3 207 208 240
3 207 240 239
3 208 209 241
3 208 241 240
3 209 210 242
3 209 242 241
3 210 211 243
3 210 243 242
3 211 212 244
3 211 244 243
3 212 213 245
3 212 245 244
3 213 214 246
3 213 246 245
3 214 215 247
3 214 247 246
3 215 216 248
3 215 248 247
3 216 217 249
3 216 249 248
3 217 218 250
3 217 250 249
3 218 219 251
3 218 251 250
3 219 220 252
3 219 252 251
3 220 221 253
3 220 253 252
3 221 222 254
3 221 254 253
3 222 223 255
3 222 255 254
3 223 192 224
3 223 224 255
3 224 225 257
3 224 257 256
3 225 226 258
3 225 258 257
3 226 227 259
3 226 259 258
3 227 228 260
3 227 260 259
3 228 229 261
3 228 261 260
3 229 230 262
3 229 262 261
3 230 231 263
3 230 263 262
3 231 232 264
3 231 264 263
3 232 233 265
3 232 265 264
3 233 234 266
3 233 266 265
3 234 235 267
3 234 267 266
3 235 236 268
3 235 268 267
3 236 237 269
3 236 269 268
3 237 238 270
3 237 270 269
3 238 239 271
3 238 271 270
3 239 240 272
3 239 272 271
3 240 241 273
3 240 273 272
3 241 242 274
3 241 274 273
3 242 243 275
3 242 275 274
3 243 244 276
3 243 276 275
3 244 245 277
3 244 277 276
3 245 246 278
3 245 278 277
3 246 247 279
3 246 279 278
3 247 248 280
3 247 280 279
3 248 249 281
3 248 281 280
3 249 250 282
3 249 282 281
3 250 251 283
3 250 283 282
3 251 252 284
3 251 284 283
3 252 253 285
3 252 285 284
3 253 254 286
3 253 286 285
3 254 255 287
3 254 287 286
3 255 224 256
3 255 256 287
3 256 257 289
3 256 289 288
3 257 258 290
3 257 290 289
3 258 259 291
3 258 291 290
3 259 260 292
3 259 292 291
3 260 261 293
3 260 293 292
3 261 262 294
3 261 294 293
3 262 263 295
3 262 295 294
3 263 264 296
3 263 296 295
3 264 265 297
3 264 297 296
3 265 266 298
3 265 298 297
3 266 267 299
3 266 299 298
3 267 268 300
3 267 300 299
3 268 269 301
3 268 301 300
3 269 270 302
3 269 302 301
3 270 271 303
3 270 303 302
3 271 272 304
3 271 304 303
3 272 273 305
3 272 305 304
3 273 274 306
3 273 306 305
3 274 275 307
3 274 307 306
3 275 276 308
3 275 308 307
3 276 277 309
3 276 309 308
3 277 278 310
3 277 310 309
3 278 279 311
3 278 311 310
3 279 280 312
3 279 312 311
3 280 281 313
3 280 313 312
3 281 282 314
3 281 314 313
3 282 283 315
3 282 315 314
3 283 284 316
3 283 316 315
3 284 285 317
3 284 317 316
3 285 286 318
3 285 318 317
3 286 287 319
3 286 319 318
3 287 256 288
3 287 288 319
3 288 289 321
3 288 321 320
3 289 290 322
3 289 322 321
3 290 291 323
3 290 323 322
3 291 292 324
3 291 324 323
3 292 293 325
3 292 325 324
3 293 294 326
3 293 326 325
3 294 295 327
3 294 327 326
3 295 296 328
3 295 328 327
3 296 297 329
3 296 329 328
3 297 298 330
3 297 330 329
3 298 299 331
3 298 331 330
3 299 300 332
3 299 332 331
3 300 301 333
3 300 333 332
3 301 302 334
3 301 334 333
3 302 303 335
3 302 335 334
3 303 304 336
3 303 336 335
3 304 305 337
3 304 337 336
3 305 306 338
3 305 338 337
3 306 307 339
3 306 339 338
3 307 308 340
3 307 340 339
3 308 309 341
3 308 341 340
3 309 310 342
3 309 342 341
3 310 311 343
3 310 343 342
3 311 312 344
3 311 344 343
3 312 313 345
3 312 345 344
3 313 314 346
3 313 346 345
3 314 315 347
3 314 347 346
3 315 316 348
3 315 348 347
3 316 317 349
3 316 349 348
3 317 318 350
3 317 350 349
3 318 319 351
3 318 351 350
3 319 288 320
3 319 320 351
3 320 321 353
3 320 353 352
3 321 322 354
3 321 354 353
3 322 323 355
3 322 355 354
3 323 324 356
3 323 356 355
3 324 325 357
3 324 357 356
3 325 326 358
3 325 358 357
3 326 327 359
3 326 359 358
3 327 328 360
3 327 360 359
3 328 329 361
3 328 361 360
3 329 330 362
3 329 362 361
3 330 331 363
3 330 363 362
3 331 332 364
3 331 364 363
3 332 333 365
3 332 365 364
3 333 334 366
3 333 366 365
3 334 335 367
3 334 367 366
3 335 336 368
3 335 368 367
3 336 337 369
3 336 369 368
3 337 338 370
3 337 370 369
3 338 339 371
3 338 371 370
3 339 340 372
3 339 372 371
3 340 341 373
3 340 373 372
3 341 342 374
3 341 374 373
3 342 343 375
3 342 375 374
3 343 344 376
3 343 376 375
3 344 345 377
3 344 377 376
3 345 346 378
3 345 378 377
3 346 347 379
3 346 379 378
3 347 348 380
3 347 380 379
3 348 349 381
3 348 381 380
3 349 350 382
3 349 382 381
3 350 351 383
3 350 383 382
3 351 320 352
3 351 352 383
3 352 353 385
3 352 385 384
3 353 354 386
3 353 386 385
3 354 355 387
3 354 387 386
3 355 356 388
3 355 388 387
3 356 357 389
3 356 389 388
3 357 358 390
3 357 390 389
3 358 359 391
3 358 391 390
3 359 360 392
3 359 392 391
3 360 361 393
3 360 393 392
3 361 362 394
3 361 394 393
3 362 363 395
3 362 395 394
3 363 364 396
3 363 396 395
3 364 365 397
3 364 397 396
3 365 366 398
3 365 398 397
3 366 367 399
3 366 399 398
3 367 368 400
3 367 400 399
3 368 369 401
3 368 401 400
3 369 370 402
3 369 402 401
3 370 371 403
3 370 403 402
3 371 372 404
3 371 404 403
3 372 373 405
3 372 405 404
3 373 374 406
3 373 406 405
3 374 375 407
3 374 407 406
3 375 376 408
3 375 408 407
3 376 377 409
3 376 409 408
3 377 378 410
3 377 410 409
3 378 379 411
3 378 411 410
3 379 380 412
3 379 412 411
3 380 381 413
3 380 413 412
3 381 382 414
3 381 414 413
3 382 383 415
3 382 415 414
3 383 352 384
3 383 384 415
3 384 385 417
3 384 417 416
3 385 386 418
3 385 418 417
3 386 387 419
3 386 419 418
3 387 388 420
3 387 420 419
3 388 389 421
3 388 421 420
3 389 390 422
3 389 422 421
3 390 391 423
3 390 423 422
3 391 392 424
3 391 424 423
3 392 393 425
3 392 425 424
3 393 394 426
3 393 426 425
3 394 395 427
3 394 427 426
3 395 396 428
3 395 428 427
3 396 397 429
3 396 429 428
3 397 398 430
3 397 430 429
3 398 399 431
3 398 431 430
3 399 400 432
3 399 432 431
3 400 401 433
3 400 433 432
3 401 402 434
3 401 434 433
3 402 403 435
3 402 435 434
3 403 404 436
3 403 436 435
3 404 405 437
3 404 437 436
3 405 406 438
3 405 438 437
3 406 407 439
3 406 439 438
3 407 408 440
3 407 440 439
3 408 409 441
3 408 441 440
3 409 410 442
3 409 442 441
3 410 411 443
3 410 443 442
3 411 412 444
3 411 444 443
3 412 413 445
3 412 445 444
3 413 414 446
3 413 446 445
3 414 415 447
3 414 447 446
3 415 384 416
3 415 416 447
3 416 417 449
3 416 449 448
3 417 418 450
3 417 450 449
3 418 419 451
3 418 451 450
3 419 420 452
3 419 452 451
3 420 421 453
3 420 453 452
3 421 422 454
3 421 454 453
3 422 423 455
3 422 455 454
3 423 424 456
3 423 456 455
3 424 425 457
3 424 457 456
3 425 426 458
3 425 458 457
3 426 427 459
3 426 459 458
3 427 428 460
3 427 460 459
3 428 429 461
3 428 461 460
3 429 430 462
3 429 462 461
3 430 431 463
3 430 463 462
3 431 432 464
3 431 464 463
3 432 433 465
3 432 465 464
3 433 434 466
3 433 466 465
3 434 435 467
3 434 467 466
3 435 436 468
3 435 468 467
3 436 437 469
3 436 469 468
3 437 438 470
3 437 470 469
3 438 439 471
3 438 471 470
3 439 440 472
3 439 472 471
3 440 441 473
3 440 473 472
3 441 442 474
3 441 474 473
3 442 443 475
3 442 475 474
3 443 444 476
3 443 476 475
3 444 445 477
3 444 477 476
3 445 446 478
3 445 478 477
3 446 447 479
3 446 479 478
3 447 416 448
3 447 448 479
3 448 449 481
3 448 481 480
3 449 450 482
3 449 482 481
3 450 451 483
3 450 483 482
3 451 452 484
3 451 484 483
3 452 453 485
3 452 485 484
3 453 454 486
3 453 486 485
3 454 455 487
3 454 487 486
3 455 456 488
3 455 488 487
3 456 457 489
3 456 489 488
3 457 458 490
3 457 490 489
3 458 459 491
3 458 491 490
3 459 460 492
3 459 492 491
3 460 461 493
3 460 493 492
3 461 462 494
3 461 494 493
3 462 463 495
3 462 495 494
3 463 464 496
3 463 496 495
3 464 465 497
3 464 497 496
3 465 466 498
3 465 498 497
3 466 467 499
3 466 499 498
3 467 468 500
3 467 500 499
3 468 469 501
3 468 501 500
3 469 470 502
3 469 502 501
3 470 471 503
3 470 503 502
3 471 472 504
3 471 504 503
3 472 473 505
3 472 505 504
3 473 474 506
3 473 506 505
3 474 475 507
3 474 507 506
3 475 476 508
3 475 508 507
3 476 477 509
3 476 509 508
3 477 478 510
3 477 510 509
3 478 479 511
3 478 511 510
3 479 448 480
3 479 480 511
3 480 481 512
3 481 482 512
3 482 483 512
3 483 484 512
3 484 485 512
3 485 486 512
3 486 487 512
3 487 488 512
3 488 489 512
3 489 490 512
3 490 491 512
3 491 492 512
3 492 493 512
3 493 494 512
3 494 495 512
3 495 496 512
3 496 497 512
3 497 498 512
3 498 499 512
3 499 500 512
3 500 501 512
3 501 502 512
3 502 503 512
3 503 504 512
3 504 505 512
3 505 506 512
3 506 507 512
3 507 508 512
3 508 509 512
3 509 510 512
3 510 511 512
3 511 480 512
3 1 0 513
3 2 1 513
3 3 2 513
3 4 3 513
3 5 4 513
3 6 5 513
3 7 6 513
3 8 7 513
3 9 8 513
3 10 9 513
3 11 10 513
3 12 11 513
3 13 12 513
3 14 13 513
3 15 14 513
3 16 15 513
3 17 16 513
3 18 17 513
3 19 18 513
3 20 19 513
3 21 20 513
3 22 21 513
3 23 22 513
3 24 23 513
3 25 24 513
3 26 25 513
3 27 26 513
3 28 27 513
3 29 28 513
3 30 29 513
3 31 30 513
3 0 31 513
