OFF
514 1024 0
0.0999814109 0.0008802001 -0.7767536645
0.0979965256 0.0205443315 -0.7766996995
0.0922375833 0.0393897548 -0.7766122471
0.0829229546 0.0566976952 -0.7764930676
0.0703996259 0.0718293196 -0.7763463481
0.0551576776 0.0841982162 -0.7761784913
0.0377760953 0.0933366251 -0.7759980751
0.0188959849 0.0989126628 -0.7758161428
-0.0007514122 0.1007176236 -0.7756458695
-0.0203696530 0.0986805195 -0.7755013780
-0.0391846377 0.0928777439 -0.7753961084
-0.0564783093 0.0835247874 -0.7753409698
-0.0716151745 0.0709627016 -0.7753422887
-0.0840182563 0.0556699053 -0.7754000314
-0.0932076084 0.0382359628 -0.7755075108
-0.0988452078 0.0193071531 -0.7756529300
-0.1007191517 -0.0003824942 -0.7758217346
-0.0987566988 -0.0200347843 -0.7759982643
-0.0930330946 -0.0388742980 -0.7761670782
-0.0837626681 -0.0561818351 -0.7763151363
-0.0712846921 -0.0713208797 -0.7764338438
-0.0560745159 -0.0837136312 -0.7765199927
-0.0387166633 -0.0928796299 -0.7765756359
-0.0198500486 -0.0984805564 -0.7766075579
-0.0001993117 -0.1003043675 -0.7766255375
0.0194456460 -0.0982784005 -0.7766395932
0.0383018569 -0.0924784078 -0.7766575728
0.0556414577 -0.0831200217 -0.7766831657
0.0708211860 -0.0705451582 -0.7767150194
0.0832585296 -0.0552338644 -0.7767471886
0.0924698844 -0.0377781651 -0.7767706764
0.0981150913 -0.0188275932 -0.7767756248
0.1138091281 0.0009241163 -0.7417584842
0.1115567650 0.0233010394 -0.7416838656
0.1050177313 0.0447246093 -0.7415584630
0.0944403379 0.0643856048 -0.7413883023
0.0802011294 0.0815940925 -0.7411798782
0.0628763176 0.0956611278 -0.7409415806
0.0431293491 0.1060480822 -0.7406828741
0.0216510609 0.1123926196 -0.7404180870
-0.0007318342 0.1144536326 -0.7401667455
-0.0230774116 0.1121445971 -0.7399505471
-0.0444897779 0.1055549070 -0.7397908389
-0.0641558927 0.0949305958 -0.7397066262
-0.0813843513 0.0806460845 -0.7397108650
-0.0954841479 0.0632775880 -0.7398041560
-0.1059167775 0.0434872932 -0.7399731567
-0.1123181925 0.0219672793 -0.7401961288
-0.1144452219 -0.0004535766 -0.7404511316
-0.1122097788 -0.0228311666 -0.7407161797
-0.1057003130 -0.0442675713 -0.7409661841
-0.0951622941 -0.0639477845 -0.7411789561
-0.0809694833 -0.0811784518 -0.7413411320
-0.0636964419 -0.0952669655 -0.7414490178
-0.0440010705 -0.1056744751 -0.7415059245
-0.0225678555 -0.1120368669 -0.7415247396
-0.0002092768 -0.1141107845 -0.7415254236
0.0221797452 -0.1118078409 -0.7415268228
0.0436532510 -0.1052162509 -0.7415439900
0.0633812631 -0.0945816100 -0.7415834680
0.0806645775 -0.0802786795 -0.7416416262
0.0948076865 -0.0628849442 -0.7417060971
0.1052693903 -0.0430652061 -0.7417590857
0.1116843070 -0.0215164028 -0.7417815684
0.1190326269 0.0008349587 -0.6764880410
0.1166886653 0.0242044942 -0.6763666415
0.1098652992 0.0465901935 -0.6761708836
0.0988220651 0.0671419761 -0.6759178239
0.0839576674 0.0851255890 -0.6756153508
0.0658488364 0.0998474513 -0.6752764772
0.0452051108 0.1107279470 -0.6749085771
0.0227663537 0.1173782184 -0.6745301513
-0.0006061698 0.1195471100 -0.6741710171
-0.0239691311 0.1171463948 -0.6738622825
-0.0463669254 0.1102687547 -0.6736331961
-0.0669441742 0.0991721025 -0.6735122562
-0.0849627925 0.0842567514 -0.6735240326
-0.0997096769 0.0661179501 -0.6736706547
-0.1106243823 0.0454455757 -0.6739261086
-0.1173203346 0.0229771278 -0.6742505793
-0.1195450727 -0.0004244708 -0.6746167289
-0.1172088303 -0.0238135222 -0.6750019987
-0.1104032516 -0.0462319933 -0.6753659782
-0.0993857448 -0.0668219132 -0.6756713096
-0.0845564095 -0.0848421486 -0.6758991529
-0.0665095264 -0.0995763500 -0.6760480108
-0.0459278014 -0.1104649093 -0.6761176273
-0.0235378897 -0.1171218089 -0.6761276991
-0.0001863049 -0.1192945343 -0.6761156564
0.0232007732 -0.1168929207 -0.6761092982
0.0456471064 -0.1100081399 -0.6761339838
0.0662803526 -0.0988972835 -0.6761993212
0.0843519827 -0.0839606087 -0.6762970533
0.0991428657 -0.0657941694 -0.6764049956
0.1100893014 -0.0450897985 -0.6764931682
0.1168033478 -0.0225890912 -0.6765294565
0.1180977890 0.0006686075 -0.5864427753
0.1157832910 0.0238161965 -0.5862363697
0.1090219500 0.0460156554 -0.5859215972
0.0980697682 0.0664181018 -0.5855488034
0.0833338209 0.0842678489 -0.5851115706
0.0653826183 0.0988805937 -0.5846419384
0.0449048826 0.1096957041 -0.5841311749
0.0226629706 0.1163123726 -0.5836050799
-0.0004872591 0.1184806057 -0.5831153714
-0.0236247345 0.1161156434 -0.5827031245
-0.0458314472 0.1093074471 -0.5823991182
-0.0662528668 0.0983124038 -0.5822371358
-0.0841278190 0.0835393825 -0.5822650868
-0.0987696848 0.0655570766 -0.5824905509
-0.1096180194 0.0450529127 -0.5828627808
-0.1162742025 0.0227866403 -0.5833018196
-0.1184889783 -0.0003865181 -0.5837877641
-0.1161773882 -0.0235447452 -0.5843246327
-0.1094288728 -0.0457685287 -0.5848383061
-0.0984993139 -0.0662012175 -0.5852632433
-0.0837975993 -0.0840783113 -0.5855770623
-0.0658953024 -0.0987059036 -0.5857965757
-0.0454688482 -0.1095284150 -0.5858957154
-0.0232684978 -0.1161481783 -0.5858994022
-0.0001382343 -0.1183158403 -0.5858871700
0.0230143258 -0.1159461296 -0.5858824709
0.0452564592 -0.1091283263 -0.5859298609
0.0657220461 -0.0981185197 -0.5860407765
0.0836413522 -0.0833260120 -0.5861973224
0.0983220026 -0.0653209983 -0.5863621671
0.1092000741 -0.0447939542 -0.5864906530
0.1158752238 -0.0225098694 -0.5865342696
0.1141788463 0.0005028402 -0.4772012358
0.1119504260 0.0228464445 -0.4768648879
0.1054198663 0.0442966908 -0.4763588702
0.0948351849 0.0640291365 -0.4758395962
0.0805973779 0.0812951907 -0.4752090966
0.0632513857 0.0954361441 -0.4745807536
0.0434602874 0.1059129109 -0.4738869823
0.0219772806 0.1123298875 -0.4731760698
-0.0003692633 0.1144440882 -0.4725539690
-0.0227059007 0.1121745480 -0.4720640200
-0.0441605920 0.1056069804 -0.4717206959
-0.0639064258 0.0949895525 -0.4715394769
-0.0811920156 0.0807234749 -0.4716010222
-0.0953572299 0.0633530857 -0.4719306837
-0.1058622146 0.0435409104 -0.4724411839
-0.1123118086 0.0220390285 -0.4729683534
-0.1144634954 -0.0003247571 -0.4735349702
-0.1122364696 -0.0226767159 -0.4742420630
-0.1057163674 -0.0441437034 -0.4749308591
-0.0951511817 -0.0638969065 -0.4754914519
-0.0809418946 -0.0811821927 -0.4758999141
-0.0636319412 -0.0953363068 -0.4762450065
-0.0438776427 -0.1058203213 -0.4764077083
-0.0224238278 -0.1122397784 -0.4764076732
-0.0000908882 -0.1143523659 -0.4764406161
0.0222529798 -0.1120772895 -0.4764643515
0.0437305839 -0.1055003050 -0.4765677182
0.0635079086 -0.0948698813 -0.4767552274
0.0808271546 -0.0805881061 -0.4769922868
0.0950232714 -0.0632010218 -0.4772170495
0.1055530606 -0.0433738371 -0.4773717573
0.1120193913 -0.0218621505 -0.4774041646
0.1096934979 0.0003578977 -0.3534079923
0.1075600624 0.0217992383 -0.3528598829
0.1012919480 0.0423954155 -0.3521490923
0.0911282754 0.0613538830 -0.3514351259
0.0774567675 0.0779493572 -0.3505858551
0.0608005045 0.0915477227 -0.3496842808
0.0417973266 0.1016301911 -0.3487459810
0.0211758163 0.1078132955 -0.3478276881
-0.0002690532 0.1098619427 -0.3471309753
-0.0217063767 0.1076979458 -0.3466559321
-0.0423059020 0.1014032646 -0.3464062756
-0.0612739888 0.0912168782 -0.3464091281
-0.0778839974 0.0775261825 -0.3465458628
-0.0915008432 0.0608536245 -0.3469436472
-0.1016051442 0.0418363904 -0.3474539267
-0.1078133599 0.0212023548 -0.3479864173
-0.1098905235 -0.0002539084 -0.3486243574
-0.1077585334 -0.0217013282 -0.3493867572
-0.1014992952 -0.0423088381 -0.3501954018
-0.0913515218 -0.0612813782 -0.3508930616
-0.0777019262 -0.0778904901 -0.3514684755
-0.0610712833 -0.0914994528 -0.3519412727
-0.0420930939 -0.1015885327 -0.3522429330
-0.0214907199 -0.1077742384 -0.3523469425
-0.0000545167 -0.1098216965 -0.3524660648
0.0213868989 -0.1076529652 -0.3526553137
0.0420013663 -0.1013503451 -0.3528843396
0.0609912790 -0.0911534208 -0.3531804243
0.0776256671 -0.0774506192 -0.3535117557
0.0912656657 -0.0607659322 -0.3537674806
0.1013890288 -0.0417385519 -0.3538580074
0.1076103147 -0.0210985212 -0.3537424905
0.1060789024 0.0002448990 -0.2189316188
0.1040214192 0.0209630244 -0.2182781602
0.0979650587 0.0408714575 -0.2175001526
0.0881415094 0.0592042337 -0.2165578593
0.0749266595 0.0752581000 -0.2154375634
0.0588268151 0.0884184369 -0.2143653656
0.0404595922 0.0981822195 -0.2133669734
0.0205307677 0.1041768316 -0.2125084422
-0.0001919554 0.1061736548 -0.2119217845
-0.0209087636 0.1040964234 -0.2115095492
-0.0408203162 0.0980241240 -0.2112613328
-0.0591601624 0.0881881086 -0.2112773646
-0.0752244174 0.0749636833 -0.2114388959
-0.0883979192 0.0588563802 -0.2117688721
-0.0981772661 0.0404829998 -0.2123113221
-0.1041896701 0.0205485824 -0.2130041300
-0.1062064506 -0.0001796205 -0.2137096318
-0.1041512689 -0.0209017809 -0.2144253606
-0.0981029299 -0.0408180029 -0.2150858188
-0.0882923938 -0.0591608019 -0.2157502855
-0.0750942068 -0.0752249903 -0.2164074453
-0.0590125342 -0.0883941924 -0.2170632352
-0.0406620347 -0.0981642530 -0.2176402184
-0.0207452802 -0.1041619953 -0.2180142939
-0.0000273829 -0.1061586189 -0.2182207652
0.0206929204 -0.1040779498 -0.2183335727
0.0406153140 -0.0979993374 -0.2185271971
0.0589709558 -0.0881548117 -0.2188478149
0.0750530237 -0.0749207048 -0.2192570798
0.0882435471 -0.0588038960 -0.2195420780
0.0980368353 -0.0404227251 -0.2195691513
0.1040584895 -0.0204837017 -0.2193342162
0.1041190126 0.0001682622 -0.0780951102
0.1021033541 0.0204918740 -0.0774715238
0.0961630774 0.0400253618 -0.0765833033
0.0865256634 0.0580173756 -0.0755775209
0.0735603242 0.0737771842 -0.0744523139
0.0577642649 0.0867008303 -0.0734485821
0.0397439998 0.0962937878 -0.0724839073
0.0201924452 0.1021894218 -0.0715931540
-0.0001375379 0.1041625677 -0.0709428111
-0.0204624670 0.1021378200 -0.0705523061
-0.0399993584 0.0961923558 -0.0703455859
-0.0579967184 0.0865531119 -0.0702191206
-0.0737636145 0.0735884639 -0.0703409080
-0.0866958794 0.0577945740 -0.0707421969
-0.0962987930 0.0397768405 -0.0712828491
-0.1022055526 0.0202271582 -0.0719045847
-0.1041908232 -0.0001023292 -0.0725536447
-0.1021789805 -0.0204283619 -0.0733047514
-0.0962468888 -0.0399675992 -0.0740379846
-0.0866210375 -0.0579676870 -0.0747523116
-0.0736691771 -0.0737365270 -0.0754376223
-0.0578866324 -0.0866687323 -0.0761481399
-0.0398777760 -0.0962685414 -0.0767056216
-0.0203334746 -0.1021684103 -0.0771837092
-0.0000051223 -0.1041426433 -0.0774779170
0.0203242073 -0.1021157054 -0.0776673939
0.0398706784 -0.0961650540 -0.0778425307
0.0578809794 -0.0865183046 -0.0780835399
0.0736619218 -0.0735448627 -0.0783695462
0.0866071338 -0.0577421760 -0.0786546372
0.0962200777 -0.0397170226 -0.0786855089
0.1021326959 -0.0201625431 -0.0785338419
0.1041565710 0.0001287718 0.0650823785
0.1021422507 0.0204512608 0.0656365357
0.0962030075 0.0399858118 0.0664596627
0.0865661299 0.0579810375 0.0674815448
0.0736007063 0.0737460965 0.0684863552
0.0578039337 0.0866768623 0.0694079253
0.0397824510 0.0962785868 0.0702503640
0.0202293936 0.1021843596 0.0709780601
-0.0001021621 0.1041686861 0.0716207292
-0.0204286518 0.1021557768 0.0720000816
-0.0399672158 0.0962223775 0.0723012032
-0.0579666116 0.0865949660 0.0725403932
-0.0737361412 0.0736414631 0.0725442286
-0.0866717380 0.0578576112 0.0723023921
-0.0962786005 0.0398484339 0.0718911243
-0.1021896560 0.0203054999 0.0713566797
-0.1041791459 -0.0000193378 0.0707110285
-0.1021709211 -0.0203430818 0.0700696150
-0.0962412834 -0.0398826152 0.0693427293
-0.0866162194 -0.0578857631 0.0685629981
-0.0736631890 -0.0736604914 0.0677715364
-0.0578776131 -0.0866012285 0.0671189164
-0.0398644195 -0.0962117000 0.0666516189
-0.0203152959 -0.1021236483 0.0663021951
0.0000175700 -0.1041106439 0.0660866210
0.0203505790 -0.1020965130 0.0658893042
0.0398997396 -0.0961582033 0.0657481991
0.0579119020 -0.0865229306 0.0654989703
0.0736942078 -0.0735597802 0.0651293644
0.0866406183 -0.0577659353 0.0648000428
0.0962548169 -0.0397479499 0.0646699159
0.1021688151 -0.0201987685 0.0647452490
0.1061964200 0.0001255194 0.2070931298
0.1041432923 0.0208401625 0.2074179482
0.0980903729 0.0407517786 0.2079665423
0.0882687027 0.0590942805 0.2086870646
0.0750537315 0.0751640694 0.2093884435
0.0589517032 0.0883460149 0.2101477237
0.0405806304 0.0981364276 0.2109296944
0.0206470517 0.1041618669 0.2116504563
-0.0000805289 0.1061927218 0.2122859495
-0.0208019539 0.1041515614 0.2126974907
-0.0407183368 0.0981160466 0.2130335734
-0.0590641344 0.0883160998 0.2131954767
-0.0751362783 0.0751256073 0.2132081654
-0.0883199393 0.0590488154 0.2130536646
-0.0981114541 0.0407013907 0.2127709883
-0.1041371742 0.0207874186 0.2124078508
-0.1061671021 0.0000733022 0.2119219381
-0.1041232849 -0.0206419086 0.2113633199
-0.0980827700 -0.0405589621 0.2107070665
-0.0882748685 -0.0589109688 0.2100625757
-0.0750730589 -0.0749930766 0.2094855750
-0.0589817013 -0.0881884499 0.2090561950
-0.0406173430 -0.0979912370 0.2087786186
-0.0206853496 -0.1040259180 0.2084845852
0.0000465293 -0.1060613827 0.2082128830
0.0207778863 -0.1040195381 0.2080657494
0.0407080293 -0.0979782534 0.2078848133
0.0590687930 -0.0881684139 0.2076714935
0.0751545409 -0.0749654227 0.2074101156
0.0883484303 -0.0588753827 0.2070735026
0.0981454620 -0.0405159715 0.2069034248
0.1041714120 -0.0205930901 0.2068738028
0.1099045490 0.0001567379 0.3434331812
0.1077795241 0.0215918805 0.3436364632
0.1015183220 0.0421933264 0.3439446878
0.0913587551 0.0611682396 0.3443116391
0.0776875713 0.0777906946 0.3448340334
0.0610275783 0.0914257313 0.3454954927
0.0420173125 0.1015534777 0.3462258204
0.0213869631 0.1077891053 0.3468241550
-0.0000665529 0.1098958699 0.3472862329
-0.0215112797 0.1077936206 0.3476911681
-0.0421181153 0.1015620202 0.3479749982
-0.0610955336 0.0914374787 0.3482086714
-0.0777186512 0.0778048030 0.3482786204
-0.0913529765 0.0611842094 0.3481424053
-0.1014786028 0.0422109547 0.3478334665
-0.1077103370 0.0216114428 0.3473803605
-0.1098108744 0.0001789357 0.3469700669
-0.1076993669 -0.0212567888 0.3466405347
-0.1014546587 -0.0418655264 0.3463438184
-0.0913122855 -0.0608533565 0.3459843638
-0.0776564084 -0.0774929704 0.3456419435
-0.0610075564 -0.0911474210 0.3453715532
-0.0420033266 -0.1012933966 0.3451431399
-0.0213729625 -0.1075427231 0.3448575334
0.0000878996 -0.1096563674 0.3446487431
0.0215475571 -0.1075532672 0.3445563115
0.0421736138 -0.1013134932 0.3445046192
0.0611703153 -0.0911749264 0.3443277747
0.0778093651 -0.0775245433 0.3440243591
0.0914542060 -0.0608850845 0.3436667693
0.1015837786 -0.0418947089 0.3433878678
0.1078127710 -0.0212823798 0.3433336443
0.1145027671 0.0002196345 0.4693655362
0.1122885062 0.0225537244 0.4695056700
0.1057701789 0.0440113012 0.4697798954
0.0951935313 0.0637670347 0.4700886745
0.0809576261 0.0810712898 0.4705587354
0.0636065221 0.0952643158 0.4710801714
0.0438041626 0.1058056122 0.4715792021
0.0223065627 0.1122977015 0.4719764235
-0.0000536458 0.1144953204 0.4723493887
-0.0223997259 0.1123147950 0.4726306848
-0.0438627512 0.1058385457 0.4728831431
-0.0636202690 0.0953107540 0.4730231629
-0.0809242135 0.0811283208 0.4730837019
-0.0951151442 0.0638322557 0.4729515582
-0.1056521403 0.0440822723 0.4727283407
-0.1121370136 0.0226288567 0.4723802671
-0.1143237305 0.0002982807 0.4721083101
-0.1121278207 -0.0220377761 0.4719484317
-0.1056307717 -0.0435063861 0.4717590534
-0.0950755454 -0.0632804188 0.4714962468
-0.0808576157 -0.0806088503 0.4712973230
-0.0635174699 -0.0948305065 0.4712025817
-0.0437203078 -0.1053985968 0.4711881394
-0.0222220186 -0.1119102419 0.4711208308
0.0001477884 -0.1141169779 0.4710346249
0.0225159269 -0.1119341640 0.4709462450
0.0440060864 -0.1054451531 0.4708110416
0.0637886208 -0.0948965258 0.4705480476
0.0811110349 -0.0806884563 0.4701595635
0.0953124295 -0.0633652208 0.4698049830
0.1058510279 -0.0435909799 0.4695569414
0.1123293561 -0.0221197370 0.4693813857
0.1185543961 0.0003090273 0.5807781186
0.1162617662 0.0234435212 0.5808492190
0.1095204537 0.0456528079 0.5810273010
0.0985829511 0.0660849208 0.5812758422
0.0838528212 0.0839830234 0.5816077771
0.0658963087 0.0986622969 0.5819719189
0.0454026407 0.1095605201 0.5823189341
0.0231379510 0.1162744098 0.5826174771
-0.0000339212 0.1185510895 0.5828819506
-0.0231810334 0.1163025975 0.5830948511
-0.0453950092 0.1096149690 0.5832647293
-0.0658291795 0.0987391546 0.5833627280
-0.0837279578 0.0840765989 0.5833855627
-0.0984057792 0.0661903896 0.5833048896
-0.1092990821 0.0457649366 0.5831539908
-0.1160033280 0.0235591999 0.5829550185
-0.1182647012 0.0004269754 0.5827867460
-0.1159945647 -0.0227133461 0.5826692499
-0.1092782519 -0.0449401727 0.5825550918
-0.0983654532 -0.0653983650 0.5824318969
-0.0836550740 -0.0833292081 0.5823498558
-0.0657052037 -0.0980503391 0.5823304897
-0.0452134727 -0.1089863148 0.5823518884
-0.0229483550 -0.1157260633 0.5823534836
0.0002318367 -0.1180130265 0.5823182747
0.0234111378 -0.1157586620 0.5822366864
0.0456613651 -0.1090507454 0.5820860606
0.0661253604 -0.0981438631 0.5818446029
0.0840427516 -0.0834447115 0.5815345421
0.0987283531 -0.0655205000 0.5812348186
0.1096184717 -0.0450622832 0.5809958665
0.1163110379 -0.0228334357 0.5808301597
0.1196342194 0.0004123056 0.6726397902
0.1173208116 0.0237733013 0.6726654626
0.1105274640 0.0461729278 0.6727703896
0.0995089599 0.0667575215 0.6729380698
0.0846582849 0.0847950856 0.6731565230
0.0665475026 0.0995942122 0.6733981804
0.0458860577 0.1105731118 0.6736348224
0.0234165396 0.1173391379 0.6738482013
0.0000089034 0.1196374034 0.6740343246
-0.0233611930 0.1173763691 0.6741861826
-0.0457668433 0.1106453809 0.6743004432
-0.0663586031 0.0996977584 0.6743666639
-0.0844025553 0.0849245672 0.6743797119
-0.0992043972 0.0668949254 0.6743356949
-0.1101798832 0.0463132974 0.6742495272
-0.1169346748 0.0239135167 0.6741425477
-0.1192129584 0.0005507905 0.6740465598
-0.1169228723 -0.0228173952 0.6739739906
-0.1101535914 -0.0452451245 0.6739154808
-0.0991573198 -0.0658692996 0.6738692315
-0.0843211463 -0.0839527994 0.6738492469
-0.0662077756 -0.0988065359 0.6738601774
-0.0455392877 -0.1098323351 0.6738869070
-0.0230652750 -0.1166278582 0.6739000188
0.0003483660 -0.1189347628 0.6738789303
0.0237569025 -0.1166617383 0.6738097423
0.0461996532 -0.1099004233 0.6736815980
0.0668190589 -0.0989075903 0.6734929624
0.0848798886 -0.0840796226 0.6732638587
0.0996767662 -0.0660042116 0.6730344089
0.1106397957 -0.0453813133 0.6728391652
0.1173770588 -0.0229542596 0.6727003922
0.1145493430 0.0005428245 0.7392331473
0.1123338229 0.0228921723 0.7392341860
0.1058342419 0.0443128306 0.7392899972
0.0952934225 0.0639945446 0.7393918611
0.0810798967 0.0812512555 0.7395282564
0.0637617200 0.0953991282 0.7396829638
0.0440061204 0.1058929316 0.7398395489
0.0225080968 0.1123634382 0.7399857184
0.0000978139 0.1145642863 0.7401144388
-0.0222784572 0.1124049367 0.7402201913
-0.0437259708 0.1059709943 0.7402988309
-0.0634321180 0.0955035548 0.7403459348
-0.0807076468 0.0813692870 0.7403595554
-0.0948658589 0.0641337881 0.7403412452
-0.1053593696 0.0444606140 0.7402995591
-0.1118175571 0.0230383202 0.7402473448
-0.1139934326 0.0006820419 0.7401990887
-0.1117966732 -0.0217094871 0.7401627723
-0.1053140189 -0.0431914535 0.7401389806
-0.0947880858 -0.0629344871 0.7401281268
-0.0805835239 -0.0802461627 0.7401325595
-0.0632414093 -0.0944637413 0.7401501521
-0.0434587811 -0.1050094524 0.7401706595
-0.0219367589 -0.1115075477 0.7401782652
0.0004938222 -0.1137117052 0.7401588267
0.0228882105 -0.1115338697 0.7401023734
0.0443464858 -0.1050641504 0.7400041371
0.0640520406 -0.0945501665 0.7398672601
0.0813150281 -0.0803640491 0.7397055844
0.0954708076 -0.0630557293 0.7395412970
0.1059527682 -0.0433158723 0.7393965845
0.1123931222 -0.0218404584 0.7392893049
0.1008211211 0.0005937391 0.7750339548
0.0988715624 0.0202198001 0.7750252671
0.0931536326 0.0390487938 0.7750519624
0.0838804512 0.0563642538 0.7751097921
0.0713905382 0.0715327161 0.7751915613
0.0561601952 0.0839785121 0.7752881116
0.0387783875 0.0932204343 0.7753899364
0.0198895751 0.0989181675 0.7754886827
0.0002216468 0.1008573144 0.7755778279
-0.0194424800 0.0989625847 0.7756524746
-0.0383127885 0.0933064795 0.7757092057
-0.0556645594 0.0841002542 0.7757460482
-0.0708599240 0.0716799406 0.7757629536
-0.0833206409 0.0565182780 0.7757622184
-0.0925638535 0.0391990821 0.7757486794
-0.0982481145 0.0203596215 0.7757288090
-0.1001582524 0.0007187089 0.7757091757
-0.0982185612 -0.0189486617 0.7756945527
-0.0925016560 -0.0378444962 0.7756872594
-0.0832199526 -0.0552347027 0.7756877896
-0.0707131738 -0.0704726816 0.7756949697
-0.0554649684 -0.0829682912 0.7757051603
-0.0380591295 -0.0922423603 0.7757119742
-0.0191424267 -0.0979533107 0.7757073965
0.0005494379 -0.0998858657 0.7756839453
0.0202167063 -0.0979651679 0.7756365414
0.0390826051 -0.0922657724 0.7755638818
0.0564266635 -0.0830029461 0.7754694218
0.0716101576 -0.0705196055 0.7753615086
0.0840480167 -0.0553016396 0.7752520201
0.0932663888 -0.0379321513 0.7751537815
0.0989281937 -0.0190559232 0.7750782479
0.0003723979 0.0005733964 0.7833230922
-0.0004284695 0.0002355700 -0.7839552351
3 0 1 33
3 0 33 32
3 1 2 34
3 1 34 33
3 2 3 35
3 2 35 34
3 3 4 36
3 3 36 35
3 4 5 37
3 4 37 36
3 5 6 38
3 5 38 37
3 6 7 39
3 6 39 38
3 7 8 40
3 7 40 39
3 8 9 41
3 8 41 40
3 9 10 42
3 9 42 41
3 10 11 43
3 10 43 42
3 11 12 44
3 11 44 43
3 12 13 45
3 12 45 44
3 13 14 46
3 13 46 45
3 14 15 47
3 14 47 46
3 15 16 48
3 15 48 47
3 16 17 49
3 16 49 48
3 17 18 50
3 17 50 49
3 18 19 51
3 18 51 50
3 19 20 52
3 19 52 51
3 20 21 53
3 20 53 52
3 21 22 54
3 21 54 53
3 22 23 55
3 22 55 54
3 23 24 56
3 23 56 55
3 24 25 57
3 24 57 56
3 25 26 58
3 25 58 57
3 26 27 59
3 26 59 58
3 27 28 60
3 27 60 59
3 28 29 61
3 28 61 60
3 29 30 62
3 29 62 61
3 30 31 63
3 30 63 62
3 31 0 32
3 31 32 63
3 32 33 65
3 32 65 64
3 33 34 66
3 33 66 65
3 34 35 67
3 34 67 66
3 35 36 68
3 35 68 67
3 36 37 69
3 36 69 68
3 37 38 70
3 37 70 69
3 38 39 71
3 38 71 70
3 39 40 72
3 39 72 71
3 40 41 73
3 40 73 72
3 41 42 74
3 41 74 73
3 42 43 75
3 42 75 74
3 43 44 76
3 43 76 75
3 44 45 77
3 44 77 76
3 45 46 78
3 45 78 77
3 46 47 79
3 46 79 78
3 47 48 80
3 47 80 79
3 48 49 81
3 48 81 80
3 49 50 82
3 49 82 81
3 50 51 83
3 50 83 82
3 51 52 84
3 51 84 83
3 52 53 85
3 52 85 84
3 53 54 86
3 53 86 85
3 54 55 87
3 54 87 86
3 55 56 88
3 55 88 87
3 56 57 89
3 56 89 88
3 57 58 90
3 57 90 89
3 58 59 91
3 58 91 90
3 59 60 92
3 59 92 91
3 60 61 93
3 60 93 92
3 61 62 94
3 61 94 93
3 62 63 95
3 62 95 94
3 63 32 64
3 63 64 95
3 64 65 97
3 64 97 96
3 65 66 98
3 65 98 97
3 66 67 99
3 66 99 98
3 67 68 100
3 67 100 99
3 68 69 101
3 68 101 100
3 69 70 102
3 69 102 101
3 70 71 103
3 70 103 102
3 71 72 104
3 71 104 103
3 72 73 105
3 72 105 104
3 73 74 106
3 73 106 105
3 74 75 107
3 74 107 106
3 75 76 108
3 75 108 107
3 76 77 109
3 76 109 108
3 77 78 110
3 77 110 109
3 78 79 111
3 78 111 110
3 79 80 112
3 79 112 111
3 80 81 113
3 80 113 112
3 81 82 114
3 81 114 113
3 82 83 115
3 82 115 114
3 83 84 116
3 83 116 115
3 84 85 117
3 84 117 116
3 85 86 118
3 85 118 117
3 86 87 119
3 86 119 118
3 87 88 120
3 87 120 119
3 88 89 121
3 88 121 120
3 89 90 122
3 89 122 121
3 90 91 123
3 90 123 122
3 91 92 124
3 91 124 123
3 92 93 125
3 92 125 124
3 93 94 126
3 93 126 125
3 94 95 127
3 94 127 126
3 95 64 96
3 95 96 127
3 96 97 129
3 96 129 128
3 97 98 130
3 97 130 129
3 98 99 131
3 98 131 130
3 99 100 132
3 99 132 131
3 100 101 133
3 100 133 132
3 101 102 134
3 101 134 133
3 102 103 135
3 102 135 134
3 103 104 136
3 103 136 135
3 104 105 137
3 104 137 136
3 105 106 138
3 105 138 137
3 106 107 139
3 106 139 138
3 107 108 140
3 107 140 139
3 108 109 141
3 108 141 140
3 109 110 142
3 109 142 141
3 110 111 143
3 110 143 142
3 111 112 144
3 111 144 143
3 112 113 145
3 112 145 144
3 113 114 146
3 113 146 145
3 114 115 147
3 114 147 146
3 115 116 148
3 115 148 147
3 116 117 149
3 116 149 148
3 117 118 150
3 117 150 149
3 118 119 151
3 118 151 150
3 119 120 152
3 119 152 151
3 120 121 153
3 120 153 152
3 121 122 154
3 121 154 153
3 122 123 155
3 122 155 154
3 123 124 156
3 123 156 155
3 124 125 157
3 124 157 156
3 125 126 158
3 125 158 157
3 126 127 159
3 126 159 158
3 127 96 128
3 127 128 159
3 128 129 161
3 128 161 160
3 129 130 162
3 129 162 161
3 130 131 163
3 130 163 162
3 131 132 164
3 131 164 163
3 132 133 165
3 132 165 164
3 133 134 166
3 133 166 165
3 134 135 167
3 134 167 166
3 135 136 168
3 135 168 167
3 136 137 169
3 136 169 168
3 137 138 170
3 137 170 169
3 138 139 171
3 138 171 170
3 139 140 172
3 139 172 171
3 140 141 173
3 140 173 172
3 141 142 174
3 141 174 173
3 142 143 175
3 142 175 174
3 143 144 176
3 143 176 175
3 144 145 177
3 144 177 176
3 145 146 178
3 145 178 177
3 146 147 179
3 146 179 178
3 147 148 180
3 147 180 179
3 148 149 181
3 148 181 180
3 149 150 182
3 149 182 181
3 150 151 183
3 150 183 182
3 151 152 184
3 151 184 183
3 152 153 185
3 152 185 184
3 153 154 186
3 153 186 185
3 154 155 187
3 154 187 186
3 155 156 188
3 155 188 187
3 156 157 189
3 156 189 188
3 157 158 190
3 157 190 189
3 158 159 191
3 158 191 190
3 159 128 160
3 159 160 191
3 160 161 193
3 160 193 192
3 161 162 194
3 161 194 193
3 162 163 195
3 162 195 194
3 163 164 196
3 163 196 195
3 164 165 197
3 164 197 196
3 165 166 198
3 165 198 197
3 166 167 199
3 166 199 198
3 167 168 200
3 167 200 199
3 168 169 201
3 168 201 200
3 169 170 202
3 169 202 201
3 170 171 203
3 170 203 202
3 171 172 204
3 171 204 203
3 172 173 205
3 172 205 204
3 173 174 206
3 173 206 205
3 174 175 207
3 174 207 206
3 175 176 208
3 175 208 207
3 176 177 209
3 176 209 208
3 177 178 210
3 177 210 209
3 178 179 211
3 178 211 210
3 179 180 212
3 179 212 211
3 180 181 213
3 180 213 212
3 181 182 214
3 181 214 213
3 182 183 215
3 182 215 214
3 183 184 216
3 183 216 215
3 184 185 217
3 184 217 216
3 185 186 218
3 185 218 217
3 186 187 219
3 186 219 218
3 187 188 220
3 187 220 219
3 188 189 221
3 188 221 220
3 189 190 222
3 189 222 221
3 190 191 223
3 190 223 222
3 191 160 192
3 191 192 223
3 192 193 225
3 192 225 224
3 193 194 226
3 193 226 225
3 194 195 227
3 194 227 226
3 195 196 228
3 195 228 227
3 196 197 229
3 196 229 228
3 197 198 230
3 197 230 229
3 198 199 231
3 198 231 230
3 199 200 232
3 199 232 231
3 200 201 233
3 200 233 232
3 201 202 234
3 201 234 233
3 202 203 235
3 202 235 234
3 203 204 236
3 203 236 235
3 204 205 237
3 204 237 236
3 205 206 238
3 205 238 237
3 206 207 239
3 206 239 238
3 207 208 240
3 207 240 239
3 208 209 241
3 208 241 240
3 209 210 242
3 209 242 241
3 210 211 243
3 210 243 242
3 211 212 244
3 211 244 243
3 212 213 245
3 212 245 244
3 213 214 246
3 213 246 245
3 214 215 247
3 214 247 246
3 215 216 248
3 215 248 247
3 216 217 249
3 216 249 248
3 217 218 250
3 217 250 249
3 218 219 251
3 218 251 250
3 219 220 252
3 219 252 251
3 220 221 253
3 220 253 252
3 221 222 254
3 221 254 253
3 222 223 255
3 222 255 254
3 223 192 224
3 223 224 255
3 224 225 257
3 224 257 256
3 225 226 258
3 225 258 257
3 226 227 259
3 226 259 258
3 227 228 260
3 227 260 259
3 228 229 261
3 228 261 260
3 229 230 262
3 229 262 261
3 230 231 263
3 230 263 262
3 231 232 264
3 231 264 263
3 232 233 265
3 232 265 264
3 233 234 266
3 233 266 265
3 234 235 267
3 234 267 266
3 235 236 268
3 235 268 267
3 236 237 269
3 236 269 268
3 237 238 270
3 237 270 269
3 238 239 271
3 238 271 270
3 239 240 272
3 239 272 271
3 240 241 273
3 240 273 272
3 241 242 274
3 241 274 273
3 242 243 275
3 242 275 274
3 243 244 276
3 243 276 275
3 244 245 277
3 244 277 276
3 245 246 278
3 245 278 277
3 246 247 279
3 246 279 278
3 247 248 280
3 247 280 279
3 248 249 281
3 248 281 280
3 249 250 282
3 249 282 281
3 250 251 283
3 250 283 282
3 251 252 284
3 251 284 283
3 252 253 285
3 252 285 284
3 253 254 286
3 253 286 285
3 254 255 287
3 254 287 286
3 255 224 256
3 255 256 287
3 256 257 289
3 256 289 288
3 257 258 290
3 257 290 289
3 258 259 291
3 258 291 290
3 259 260 292
3 259 292 291
3 260 261 293
3 260 293 292
3 261 262 294
3 261 294 293
3 262 263 295
3 262 295 294
3 263 264 296
3 263 296 295
3 264 265 297
3 264 297 296
3 265 266 298
3 265 298 297
3 266 267 299
3 266 299 298
3 267 268 300
3 267 300 299
3 268 269 301
3 268 301 300
3 269 270 302
3 269 302 301
3 270 271 303
3 270 303 302
3 271 272 304
3 271 304 303
3 272 273 305
3 272 305 304
3 273 274 306
3 273 306 305
3 274 275 307
3 274 307 306
3 275 276 308
3 275 308 307
3 276 277 309
3 276 309 308
3 277 278 310
3 277 310 309
3 278 279 311
3 278 311 310
3 279 280 312
3 279 312 311
3 280 281 313
3 280 313 312
3 281 282 314
3 281 314 313
3 282 283 315
3 282 315 314
3 283 284 316
3 283 316 315
3 284 285 317
3 284 317 316
3 285 286 318
3 285 318 317
3 286 287 319
3 286 319 318
3 287 256 288
3 287 288 319
3 288 289 321
3 288 321 320
3 289 290 322
3 289 322 321
3 290 291 323
3 290 323 322
3 291 292 324
3 291 324 323
3 292 293 325
3 292 325 324
3 293 294 326
3 293 326 325
3 294 295 327
3 294 327 326
3 295 296 328
3 295 328 327
3 296 297 329
3 296 329 328
3 297 298 330
3 297 330 329
3 298 299 331
3 298 331 330
3 299 300 332
3 299 332 331
3 300 301 333
3 300 333 332
3 301 302 334
3 301 334 333
3 302 303 335
3 302 335 334
3 303 304 336
3 303 336 335
3 304 305 337
3 304 337 336
3 305 306 338
3 305 338 337
3 306 307 339
3 306 339 338
3 307 308 340
3 307 340 339
3 308 309 341
3 308 341 340
3 309 310 342
3 309 342 341
3 310 311 343
3 310 343 342
3 311 312 344
3 311 344 343
3 312 313 345
3 312 345 344
3 313 314 346
3 313 346 345
3 314 315 347
3 314 347 346
3 315 316 348
3 315 348 347
3 316 317 349
3 316 349 348
3 317 318 350
3 317 350 349
3 318 319 351
3 318 351 350
3 319 288 320
3 319 320 351
3 320 321 353
3 320 353 352
3 321 322 354
3 321 354 353
3 322 323 355
3 322 355 354
3 323 324 356
3 323 356 355
3 324 325 357
3 324 357 356
3 325 326 358
3 325 358 357
3 326 327 359
3 326 359 358
3 327 328 360
3 327 360 359
3 328 329 361
3 328 361 360
3 329 330 362
3 329 362 361
3 330 331 363
3 330 363 362
3 331 332 364
3 331 364 363
3 332 333 365
3 332 365 364
3 333 334 366
3 333 366 365
3 334 335 367
3 334 367 366
3 335 336 368
3 335 368 367
3 336 337 369
3 336 369 368
3 337 338 370
3 337 370 369
3 338 339 371
3 338 371 370
3 339 340 372
3 339 372 371
3 340 341 373
3 340 373 372
3 341 342 374
3 341 374 373
3 342 343 375
3 342 375 374
3 343 344 376
3 343 376 375
3 344 345 377
3 344 377 376
3 345 346 378
3 345 378 377
3 346 347 379
3 346 379 378
3 347 348 380
3 347 380 379
3 348 349 381
3 348 381 380
3 349 350 382
3 349 382 381
3 350 351 383
3 350 383 382
3 351 320 352
3 351 352 383
3 352 353 385
3 352 385 384
3 353 354 386
3 353 386 385
3 354 355 387
3 354 387 386
3 355 356 388
3 355 388 387
3 356 357 389
3 356 389 388
3 357 358 390
3 357 390 389
3 358 359 391
3 358 391 390
3 359 360 392
3 359 392 391
3 360 361 393
3 360 393 392
3 361 362 394
3 361 394 393
3 362 363 395
3 362 395 394
3 363 364 396
3 363 396 395
3 364 365 397
3 364 397 396
3 365 366 398
3 365 398 397
3 366 367 399
3 366 399 398
3 367 368 400
3 367 400 399
3 368 369 401
3 368 401 400
3 369 370 402
3 369 402 401
3 370 371 403
3 370 403 402
3 371 372 404
3 371 404 403
3 372 373 405
3 372 405 404
3 373 374 406
3 373 406 405
3 374 375 407
3 374 407 406
3 375 376 408
3 375 408 407
3 376 377 409
3 376 409 408
3 377 378 410
3 377 410 409
3 378 379 411
3 378 411 410
3 379 380 412
3 379 412 411
3 380 381 413
3 380 413 412
3 381 382 414
3 381 414 413
3 382 383 415
3 382 415 414
3 383 352 384
3 383 384 415
3 384 385 417
3 384 417 416
3 385 386 418
3 385 418 417
3 386 387 419
3 386 419 418
3 387 388 420
3 387 420 419
3 388 389 421
3 388 421 420
3 389 390 422
3 389 422 421
3 390 391 423
3 390 423 422
3 391 392 424
3 391 424 423
3 392 393 425
3 392 425 424
3 393 394 426
3 393 426 425
3 394 395 427
3 394 427 426
3 395 396 428
3 395 428 427
3 396 397 429
3 396 429 428
3 397 398 430
3 397 430 429
3 398 399 431
3 398 431 430
3 399 400 432
3 399 432 431
3 400 401 433
3 400 433 432
3 401 402 434
3 401 434 433
3 402 403 435
3 402 435 434
3 403 404 436
3 403 436 435
3 404 405 437
3 404 437 436
3 405 406 438
3 405 438 437
3 406 407 439
3 406 439 438
3 407 408 440
3 407 440 439
3 408 409 441
3 408 441 440
3 409 410 442
3 409 442 441
3 410 411 443
3 410 443 442
3 411 412 444
3 411 444 443
3 412 413 445
3 412 445 444
3 413 414 446
3 413 446 445
3 414 415 447
3 414 447 446
3 415 384 416
3 415 416 447
3 416 417 449
3 416 449 448
3 417 418 450
3 417 450 449
3 418 419 451
3 418 451 450
3 419 420 452
3 419 452 451
3 420 421 453
3 420 453 452
3 421 422 454
3 421 454 453
3 422 423 455
3 422 455 454
3 423 424 456
3 423 456 455
3 424 425 457
3 424 457 456
3 425 426 458
3 425 458 457
3 426 427 459
3 426 459 458
3 427 428 460
3 427 460 459
3 428 429 461
3 428 461 460
3 429 430 462
3 429 462 461
3 430 431 463
3 430 463 462
3 431 432 464
3 431 464 463
3 432 433 465
3 432 465 464
3 433 434 466
3 433 466 465
3 434 435 467
3 434 467 466
3 435 436 468
3 435 468 467
3 436 437 469
3 436 469 468
3 437 438 470
3 437 470 469
3 438 439 471
3 438 471 470
3 439 440 472
3 439 472 471
3 440 441 473
3 440 473 472
3 441 442 474
3 441 474 473
3 442 443 475
3 442 475 474
3 443 444 476
3 443 476 475
3 444 445 477
3 444 477 476
3 445 446 478
3 445 478 477
3 446 447 479
3 446 479 478
3 447 416 448
3 447 448 479
3 448 449 481
3 448 481 480
3 449 450 482
3 449 482 481
3 450 451 483
3 450 483 482
3 451 452 484
3 451 484 483
3 452 453 485
3 452 485 484
3 453 454 486
3 453 486 485
3 454 455 487
3 454 487 486
3 455 456 488
3 455 488 487
3 456 457 489
3 456 489 488
3 457 458 490
3 457 490 489
3 458 459 491
3 458 491 490
3 459 460 492
3 459 492 491
3 460 461 493
3 460 493 492
3 461 462 494
3 461 494 493
3 462 463 495
3 462 495 494
3 463 464 496
3 463 496 495
3 464 465 497
3 464 497 496
3 465 466 498
3 465 498 497
3 466 467 499
3 466 499 498
3 467 468 500
3 467 500 499
3 468 469 501
3 468 501 500
3 469 470 502
3 469 502 501
3 470 471 503
3 470 503 502
3 471 472 504
3 471 504 503
3 472 473 505
3 472 505 504
3 473 474 506
3 473 506 505
3 474 475 507
3 474 507 506
3 475 476 508
3 475 508 507
3 476 477 509
3 476 509 508
3 477 478 510
3 477 510 509
3 478 479 511
3 478 511 510
3 479 448 480
3 479 480 511
3 480 481 512
3 481 482 512
3 482 483 512
3 483 484 512
3 484 485 512
3 485 486 512
3 486 487 512
3 487 488 512
3 488 489 512
3 489 490 512
3 490 491 512
3 491 492 512
3 492 493 512
3 493 494 512
3 494 495 512
3 495 496 512
3 496 497 512
3 497 498 512
3 498 499 512
3 499 500 512
3 500 501 512
3 501 502 512
3 502 503 512
3 503 504 512
3 504 505 512
3 505 506 512
3 506 507 512
3 507 508 512
3 508 509 512
3 509 510 512
3 510 511 512
3 511 480 512
3 1 0 513
3 2 1 513
3 3 2 513
3 4 3 513
3 5 4 513
3 6 5 513
3 7 6 513
3 8 7 513
3 9 8 513
3 10 9 513
3 11 10 513
3 12 11 513
3 13 12 513
3 14 13 513
3 15 14 513
3 16 15 513
3 17 16 513
3 18 17 513
3 19 18 513
3 20 19 513
3 21 20 513
3 22 21 513
3 23 22 513
3 24 23 513
3 25 24 513
3 26 25 513
3 27 26 513
3 28 27 513
3 29 28 513
3 30 29 513
3 31 30 513
3 0 31 513
